<svg xmlns="http://www.w3.org/2000/svg" width="499" height="499" viewBox="0 0 499 499">
<g>
<path d="M 395.00 474.57 C384.07,478.59 377.93,477.55 369.96,470.34 C364.89,465.77 358.93,453.70 352.61,435.24 C349.47,426.09 341.56,406.32 336.82,395.80 C334.49,390.61 333.96,379.57 335.82,374.86 C338.71,367.57 349.13,360.56 364.50,355.57 C369.60,353.92 373.91,352.18 396.00,342.91 C413.72,335.47 423.73,332.00 427.44,332.00 C433.21,332.00 439.80,334.95 443.38,339.13 C445.35,341.43 449.34,349.19 452.97,357.78 C456.39,365.88 459.87,374.02 460.70,375.87 C461.53,377.72 463.48,382.90 465.03,387.37 C466.59,391.84 469.96,400.45 472.54,406.50 C478.55,420.63 479.44,428.39 475.88,435.52 C472.64,442.02 466.60,446.40 454.84,450.79 C451.73,451.95 447.23,453.81 444.84,454.93 C440.44,456.97 406.93,470.18 395.00,474.57 Z" fill="rgb(123,170,203)"/>
<path d="M 169.76 250.47 L 169.50 310.94 L 111.00 311.27 C78.82,311.45 51.60,311.41 50.50,311.18 C49.40,310.95 48.17,310.26 47.77,309.63 C46.85,308.22 46.77,229.23 47.66,206.66 L 48.31 190.00 L 170.02 190.00 ZM 169.76 389.25 L 169.50 449.50 L 109.38 449.76 C58.92,449.97 49.07,449.79 48.10,448.62 C47.25,447.59 46.98,431.91 47.10,389.22 C47.18,357.32 47.53,330.77 47.87,330.22 C48.80,328.75 53.23,328.66 114.26,328.84 L 170.02 329.00 ZM 170.00 52.31 L 170.00 172.00 L 109.11 172.00 C54.87,172.00 48.15,171.83 47.62,170.44 C47.29,169.58 47.14,142.70 47.29,110.69 L 47.57 52.50 L 56.53 51.86 C68.71,50.98 131.48,50.85 152.75,51.66 ZM 449.02 310.49 C447.86,311.21 361.29,311.89 342.32,311.33 L 329.15 310.94 L 328.49 307.97 C327.73,304.50 328.77,192.18 329.58,190.88 C329.88,190.39 356.77,190.00 390.06,190.00 L 450.00 190.00 L 450.00 249.94 C450.00,288.02 449.64,310.10 449.02,310.49 ZM 308.02 329.00 L 307.50 449.50 L 247.79 449.71 C203.38,449.87 187.89,449.63 187.35,448.77 C186.96,448.13 186.43,420.92 186.19,388.30 L 185.73 329.00 ZM 308.32 310.75 C307.38,311.44 306.37,311.89 306.06,311.76 C305.75,311.63 279.17,311.29 247.00,311.01 L 188.50 310.50 L 188.50 190.50 L 309.50 190.50 L 309.76 250.00 C310.00,305.05 309.89,309.59 308.32,310.75 ZM 309.76 112.22 L 309.50 171.50 L 249.36 171.76 C195.17,171.99 189.16,171.86 188.61,170.43 C188.27,169.55 188.00,142.76 188.00,110.89 C188.00,56.64 188.11,52.89 189.75,52.22 C192.04,51.28 305.97,51.28 308.26,52.22 C309.91,52.90 310.00,56.47 309.76,112.22 ZM 449.76 111.83 L 449.50 171.50 L 389.25 171.76 L 329.00 172.02 L 328.75 119.26 C328.48,62.18 328.59,53.08 329.54,52.12 C330.41,51.26 436.04,50.68 443.76,51.50 L 450.02 52.16 Z" fill="rgb(161,163,168)"/>
<path d="M 0.00 249.50 L 0.00 0.00 L 249.50 0.00 L 499.00 0.00 L 499.00 249.50 L 499.00 499.00 L 249.50 499.00 L 0.00 499.00 L 0.00 249.50 ZM 395.00 474.57 C406.93,470.18 440.44,456.97 444.84,454.93 C447.23,453.81 451.73,451.95 454.84,450.79 C466.60,446.40 472.64,442.02 475.88,435.52 C479.44,428.39 478.55,420.63 472.54,406.50 C469.96,400.45 466.59,391.84 465.03,387.37 C463.48,382.90 461.53,377.72 460.70,375.87 C459.87,374.02 456.39,365.88 452.97,357.78 C449.34,349.19 445.35,341.43 443.38,339.13 C439.80,334.95 433.21,332.00 427.44,332.00 C423.73,332.00 413.72,335.47 396.00,342.91 C373.91,352.18 369.60,353.92 364.50,355.57 C349.13,360.56 338.71,367.57 335.82,374.86 C333.96,379.57 334.49,390.61 336.82,395.80 C341.56,406.32 349.47,426.09 352.61,435.24 C358.93,453.70 364.89,465.77 369.96,470.34 C377.93,477.55 384.07,478.59 395.00,474.57 ZM 169.76 389.25 L 170.02 329.00 L 114.26 328.84 C53.23,328.66 48.80,328.75 47.87,330.22 C47.53,330.77 47.18,357.32 47.10,389.22 C46.98,431.91 47.25,447.59 48.10,448.62 C49.07,449.79 58.92,449.97 109.38,449.76 L 169.50 449.50 L 169.76 389.25 ZM 307.76 389.25 L 308.02 329.00 L 246.87 329.00 L 185.73 329.00 L 186.19 388.30 C186.43,420.92 186.96,448.13 187.35,448.77 C187.89,449.63 203.38,449.87 247.79,449.71 L 307.50 449.50 L 307.76 389.25 ZM 169.76 250.47 L 170.02 190.00 L 109.16 190.00 L 48.31 190.00 L 47.66 206.66 C46.77,229.23 46.85,308.22 47.77,309.63 C48.17,310.26 49.40,310.95 50.50,311.18 C51.60,311.41 78.82,311.45 111.00,311.27 L 169.50 310.94 L 169.76 250.47 ZM 308.32 310.75 C309.89,309.59 310.00,305.05 309.76,250.00 L 309.50 190.50 L 249.00 190.50 L 188.50 190.50 L 188.50 250.50 L 188.50 310.50 L 247.00 311.01 C279.17,311.29 305.75,311.63 306.06,311.76 C306.37,311.89 307.38,311.44 308.32,310.75 ZM 449.02 310.49 C449.64,310.10 450.00,288.02 450.00,249.94 L 450.00 190.00 L 390.06 190.00 C356.77,190.00 329.88,190.39 329.58,190.88 C328.77,192.18 327.73,304.50 328.49,307.97 L 329.15 310.94 L 342.32 311.33 C361.29,311.89 447.86,311.21 449.02,310.49 ZM 170.00 112.16 L 170.00 52.31 L 152.75 51.66 C131.48,50.85 68.71,50.98 56.53,51.86 L 47.57 52.50 L 47.29 110.69 C47.14,142.70 47.29,169.58 47.62,170.44 C48.15,171.83 54.87,172.00 109.11,172.00 L 170.00 172.00 L 170.00 112.16 ZM 309.76 112.22 C310.00,56.47 309.91,52.90 308.26,52.22 C305.97,51.28 192.04,51.28 189.75,52.22 C188.11,52.89 188.00,56.64 188.00,110.89 C188.00,142.76 188.27,169.55 188.61,170.43 C189.16,171.86 195.17,171.99 249.36,171.76 L 309.50 171.50 L 309.76 112.22 ZM 449.76 111.83 L 450.02 52.16 L 443.76 51.50 C436.04,50.68 330.41,51.26 329.54,52.12 C328.59,53.08 328.48,62.18 328.75,119.26 L 329.00 172.02 L 389.25 171.76 L 449.50 171.50 L 449.76 111.83 Z" fill="rgb(254,254,254)"/>
</g>
</svg>