<?xml version="1.0" encoding="UTF-8"?>
<!-- Generator: visioncortex VTracer 0.6.4 -->
<svg version="1.1" xmlns="http://www.w3.org/2000/svg" width="500" height="557">
<path d="M0 0 C0.95108643 -0.00945648 1.90217285 -0.01891296 2.88208008 -0.02865601 C3.90712646 -0.02258331 4.93217285 -0.01651062 5.98828125 -0.01025391 C7.04233154 -0.01312408 8.09638184 -0.01599426 9.18237305 -0.01895142 C11.41162656 -0.02099354 13.64089792 -0.01545339 15.87011719 -0.00292969 C19.28751593 0.01312129 22.7037319 -0.00277399 26.12109375 -0.02197266 C28.28515887 -0.01999025 30.44922325 -0.01614663 32.61328125 -0.01025391 C33.63832764 -0.0163266 34.66337402 -0.02239929 35.71948242 -0.02865601 C36.67056885 -0.01919952 37.62165527 -0.00974304 38.6015625 0 C39.43856689 0.00238678 40.27557129 0.00477356 41.13793945 0.00723267 C43.82355154 0.48026145 44.70806504 1.19867255 46.30078125 3.38818359 C46.59947809 5.98860314 46.72023282 8.29517518 46.67578125 10.88818359 C46.68738281 11.56494141 46.69898438 12.24169922 46.7109375 12.93896484 C46.69476831 15.67155745 46.56802106 17.88328395 45.27734375 20.32177734 C42.12229438 22.02400754 38.80551499 21.88520369 35.30078125 21.95068359 C29.50604429 21.98768898 29.50604429 21.98768898 24.30078125 24.38818359 C23.88289036 27.29882739 23.88289036 27.29882739 24.0078125 30.70849609 C24.02231445 32.59375 24.02231445 32.59375 24.03710938 34.51708984 C24.06224609 35.83580078 24.08738281 37.15451172 24.11328125 38.51318359 C24.12832642 39.85301263 24.14201512 41.19285763 24.15429688 42.53271484 C24.18975253 45.81827201 24.23917276 49.10302941 24.30078125 52.38818359 C25.39390625 52.63568359 26.48703125 52.88318359 27.61328125 53.13818359 C31.55002264 54.4726722 32.36515844 54.87451837 34.30078125 58.38818359 C34.61682129 61.37794495 34.61682129 61.37794495 34.52929688 64.92553711 C34.51684181 65.57836198 34.50438675 66.23118685 34.49155426 66.90379429 C34.44485961 69.06605402 34.37424747 71.2266783 34.30078125 73.38818359 C34.25773321 74.89093112 34.21501433 76.3936881 34.17260742 77.89645386 C34.02303289 82.86218975 33.83451526 87.82620146 33.64453125 92.79052734 C33.57702876 94.60754007 33.50977254 96.42456195 33.44274902 98.24159241 C33.26764084 102.97123436 33.08923878 107.70074623 32.91009521 112.43023682 C32.72709394 117.27747154 32.54728439 122.12482462 32.3671875 126.97216797 C32.01480121 136.4442901 31.65892688 145.91627759 31.30078125 155.38818359 C30.70855774 155.58553101 30.11633423 155.78287842 29.50616455 155.98620605 C27.87503805 156.52981793 26.24395664 157.07356509 24.61291504 157.61743164 C22.939767 158.1751771 21.2663523 158.73212283 19.59277344 159.28857422 C0.42152548 165.74292216 -17.53468263 174.11679631 -33.69921875 186.38818359 C-34.97925781 187.35304687 -34.97925781 187.35304687 -36.28515625 188.33740234 C-73.62178965 217.3704627 -97.64090381 259.25922396 -104.22045898 306.09887695 C-104.7229339 310.18970142 -104.87591341 314.25738475 -104.90234375 318.37646484 C-104.90940338 319.11293243 -104.91646301 319.84940002 -104.92373657 320.60818481 C-105.19532769 343.17252695 -105.19532769 343.17252695 -101.69921875 365.38818359 C-101.40120361 366.61601563 -101.40120361 366.61601563 -101.09716797 367.86865234 C-93.2608232 399.28447049 -78.92264805 427.70939759 -56.13427734 450.91796875 C-54.75639501 452.32960662 -53.40867669 453.77049753 -52.0625 455.21240234 C-22.26966923 486.43030125 22.69386685 504.51504249 65.51196289 505.68115234 C86.85679609 505.88562925 103.85802622 495.05671897 121.61279297 484.40039062 C140.01735768 473.43995487 140.01735768 473.43995487 149.61328125 473.76318359 C150.36907471 473.77647705 151.12486816 473.78977051 151.90356445 473.8034668 C161.95061589 474.20632796 171.59983364 476.93750291 181.30078125 479.38818359 C185.46019325 480.42137191 189.62705747 481.41461448 193.80078125 482.38818359 C194.76201904 482.63205811 195.72325684 482.87593262 196.71362305 483.12719727 C197.61894775 483.33707275 198.52427246 483.54694824 199.45703125 483.76318359 C200.24916016 483.95654297 201.04128906 484.14990234 201.85742188 484.34912109 C205.38473268 484.40551295 207.35695099 483.28141002 210.30078125 481.38818359 C216.95309404 472.4901856 219.07942502 460.31359822 221.82983398 449.73876953 C229.74201122 419.57298407 246.63696243 408.68702865 272.61254883 393.44775391 C280.00476735 389.50709729 280.00476735 389.50709729 285.30078125 383.38818359 C286.37226825 371.20981911 277.56794601 359.51693371 271.69946289 349.48339844 C257.02869429 324.32383191 258.7020184 307.2043494 265.74609375 279.70849609 C265.97530518 278.81146973 266.2045166 277.91444336 266.44067383 276.99023438 C266.87594704 275.30633533 267.3204995 273.62479612 267.77612305 271.94628906 C268.98924015 267.33107415 269.69516825 263.20577245 269.30078125 258.38818359 C262.88941399 249.41226943 250.22136114 247.0210315 240.17578125 244.45068359 C207.35761861 235.77230557 207.35761861 235.77230557 201.46875 225.89599609 C200.46529814 224.10727763 199.47226653 222.31268418 198.48828125 220.51318359 C197.96129639 219.57369873 197.43431152 218.63421387 196.89135742 217.66625977 C194.58076066 213.54304272 192.30466708 209.40231633 190.05859375 205.24365234 C176.33305431 180.06050572 149.51942876 167.17585529 122.92578125 159.00537109 C119.73428572 158.0660081 116.52726971 157.20014758 113.30078125 156.38818359 C112.60611113 151.22656736 112.12493825 146.14978949 111.91186523 140.94091797 C111.86775513 139.89507034 111.86775513 139.89507034 111.82275391 138.82809448 C111.72743154 136.54616514 111.63698324 134.26407432 111.546875 131.98193359 C111.48124395 130.3725911 111.4154087 128.76325692 111.34938049 127.15393066 C111.21193699 123.78515887 111.07690424 120.41630147 110.94360352 117.04736328 C110.77440327 112.77571402 110.59934215 108.5043298 110.42242336 104.23299408 C110.28534036 100.90748476 110.15142056 97.58185343 110.01838875 94.25617981 C109.95514628 92.68402817 109.89098498 91.11191315 109.82580376 89.5398407 C109.64677705 85.19897658 109.49323942 80.85854203 109.37055588 76.51571655 C109.29840095 74.31560454 109.19243431 72.11841858 109.08694458 69.91967773 C109.03967808 68.48279402 108.99379783 67.04586387 108.94946289 65.60888672 C108.89705948 64.33952271 108.84465607 63.07015869 108.79066467 61.7623291 C109.44970822 57.40311215 110.82313379 56.01922401 114.30078125 53.38818359 C115.95078125 53.05818359 117.60078125 52.72818359 119.30078125 52.38818359 C119.30078125 43.14818359 119.30078125 33.90818359 119.30078125 24.38818359 C114.580411 22.02799847 110.91319908 22.01460811 105.70117188 21.90966797 C102.97583766 21.798706 100.77429312 21.64828166 98.359375 20.32177734 C96.70160817 17.29375306 96.86818355 14.24804942 96.92578125 10.88818359 C96.91417969 10.21142578 96.90257812 9.53466797 96.890625 8.83740234 C96.91976962 3.91196125 96.91976962 3.91196125 98.53198242 1.69564819 C100.81985688 0.00449213 102.1694056 0.00807165 105 0 C105.95108643 -0.00945648 106.90217285 -0.01891296 107.88208008 -0.02865601 C108.90712646 -0.02258331 109.93217285 -0.01651062 110.98828125 -0.01025391 C112.04233154 -0.01312408 113.09638184 -0.01599426 114.18237305 -0.01895142 C116.41162656 -0.02099354 118.64089792 -0.01545339 120.87011719 -0.00292969 C124.28751593 0.01312129 127.7037319 -0.00277399 131.12109375 -0.02197266 C133.28515887 -0.01999025 135.44922325 -0.01614663 137.61328125 -0.01025391 C138.63832764 -0.0163266 139.66337402 -0.02239929 140.71948242 -0.02865601 C141.67056885 -0.01919952 142.62165527 -0.00974304 143.6015625 0 C144.43856689 0.00238678 145.27557129 0.00477356 146.13793945 0.00723267 C148.30078125 0.38818359 148.30078125 0.38818359 150.06625366 1.56059265 C151.78494707 4.10494123 151.70897476 5.95793701 151.75244141 9.01782227 C151.78599228 10.75058662 151.78599228 10.75058662 151.82022095 12.51835632 C151.82669647 13.76832901 151.833172 15.0183017 151.83984375 16.30615234 C151.85220062 17.59250076 151.8645575 18.87884918 151.87728882 20.20417786 C151.89976889 22.93037201 151.90931865 25.65628673 151.91162109 28.38256836 C151.91688645 31.85892178 151.96809574 35.3329147 152.03113747 38.80863476 C152.08211451 42.14113922 152.08264274 45.47326912 152.08984375 48.80615234 C152.11656158 50.04600388 152.14327942 51.28585541 152.17080688 52.5632782 C152.12348454 58.61629571 151.87373262 62.49549626 147.81396484 67.17456055 C146.6714226 68.27613554 145.50663594 69.35629954 144.30078125 70.38818359 C142.16991683 72.51904801 143.04117253 77.27985295 142.984375 80.23583984 C142.95320335 81.56548012 142.95320335 81.56548012 142.92140198 82.92198181 C142.85580725 85.7648006 142.79697573 88.60771476 142.73828125 91.45068359 C142.69510545 93.37321966 142.65149147 95.29574594 142.60742188 97.21826172 C142.50011582 101.94147028 142.39887674 106.66477513 142.30078125 111.38818359 C142.99405518 111.56196533 143.6873291 111.73574707 144.40161133 111.91479492 C150.53446 113.50999609 156.2408331 115.41775199 161.98828125 118.07568359 C162.75011719 118.42308594 163.51195312 118.77048828 164.296875 119.12841797 C166.63701534 120.20356523 168.96931782 121.29436791 171.30078125 122.38818359 C172.03119629 122.72543457 172.76161133 123.06268555 173.51416016 123.41015625 C182.31963765 127.4959138 190.07441545 131.7796855 197.30078125 138.38818359 C198.24824219 139.21576172 198.24824219 139.21576172 199.21484375 140.06005859 C205.76390102 146.11865783 209.91263244 153.85488615 214.18164062 161.59619141 C218.20929513 168.85625625 222.74937573 175.17291848 228.30078125 181.38818359 C228.95175781 182.17966797 229.60273438 182.97115234 230.2734375 183.78662109 C243.02005793 198.178759 265.31393523 202.43303816 283.30078125 206.45068359 C294.65126571 209.00604884 308.11832954 213.31657029 316.0390625 222.37646484 C322.95845893 233.40893903 320.9517363 253.38524823 318.30078125 265.38818359 C317.05674209 270.74406148 315.77375095 276.0900205 314.42163086 281.41967773 C312.9177871 287.41389837 311.75350219 293.22308137 311.30078125 299.38818359 C311.19894531 300.64759766 311.09710938 301.90701172 310.9921875 303.20458984 C310.32341479 322.63953006 320.47131051 339.78016544 330.98828125 355.57568359 C338.42473866 366.78328112 344.34312092 379.65908107 343.30078125 393.38818359 C335.83827285 408.36973454 322.35147808 419.33443704 307.9921875 427.20068359 C299.0258541 432.13714756 291.11514451 437.77831781 283.30078125 444.38818359 C282.44355469 445.08298828 281.58632813 445.77779297 280.703125 446.49365234 C267.27178617 458.40446225 263.04725174 478.89603742 259.32421875 495.71630859 C256.79971556 507.02608289 252.24839415 523.36163367 242.30078125 530.38818359 C234.39604339 533.21723149 226.38803911 533.96738252 218.05078125 533.95068359 C216.93469482 533.95116699 215.8186084 533.95165039 214.66870117 533.95214844 C203.56654725 533.73471985 193.5038425 531.06515038 182.88183594 528.07177734 C177.09647203 526.53952054 171.26576857 525.82928049 165.30078125 525.38818359 C164.07488281 525.29408203 162.84898437 525.19998047 161.5859375 525.10302734 C142.99513774 524.35479082 126.35971593 533.76161965 111.11328125 543.51318359 C82.29867986 561.9182486 52.49200607 558.74263178 20.36328125 551.79052734 C-8.41589209 545.26996307 -35.62725967 533.51956376 -59.69921875 516.38818359 C-60.64667969 515.71529297 -61.59414062 515.04240234 -62.5703125 514.34912109 C-112.67324759 477.75335177 -144.99650541 423.7630116 -154.9375 362.65771484 C-155.19900604 360.90231978 -155.45329843 359.14582987 -155.69921875 357.38818359 C-155.85608154 356.27068726 -155.85608154 356.27068726 -156.01611328 355.13061523 C-157.04490801 346.5312532 -156.94300757 337.84906304 -156.94921875 329.20068359 C-156.94989349 328.35603546 -156.95056824 327.51138733 -156.95126343 326.6411438 C-156.89519593 282.36092113 -144.3793375 239.34461233 -119.69921875 202.38818359 C-119.28317383 201.76266602 -118.86712891 201.13714844 -118.43847656 200.49267578 C-104.10377009 179.1781836 -85.71520863 159.20136341 -64.69921875 144.38818359 C-63.68142334 143.66840332 -63.68142334 143.66840332 -62.64306641 142.93408203 C-45.95095398 131.24622968 -28.6774134 121.8070899 -9.69921875 114.38818359 C-8.96477539 114.09540527 -8.23033203 113.80262695 -7.47363281 113.50097656 C-4.41436753 112.30754225 -2.01287125 111.38818359 1.30078125 111.38818359 C1.33094803 105.81878503 1.3152628 100.25204916 1.25805664 94.68286133 C1.2449601 92.79065393 1.24414303 90.89831843 1.25610352 89.00610352 C1.27118295 86.27672677 1.24133316 83.55086665 1.203125 80.82177734 C1.22450783 79.56354408 1.22450783 79.56354408 1.24632263 78.27989197 C1.12658251 73.36361799 0.35035879 70.93400543 -3.19311523 67.42358398 C-3.82305893 66.88222305 -4.45300262 66.34086212 -5.10203552 65.78309631 C-6.69921875 64.38818359 -6.69921875 64.38818359 -7.69921875 62.38818359 C-7.8055635 60.52529032 -7.84803782 58.65861017 -7.86035156 56.79272461 C-7.86995911 55.62133438 -7.87956665 54.44994415 -7.88946533 53.24305725 C-7.89584015 51.33682838 -7.89584015 51.33682838 -7.90234375 49.39208984 C-7.90804382 48.09246811 -7.9137439 46.79284637 -7.9196167 45.45384216 C-7.93012428 42.70075082 -7.93596872 39.94768866 -7.93945312 37.19458008 C-7.94494168 33.66584727 -7.96897781 30.13749959 -7.99742508 26.60888767 C-8.02051927 23.24496201 -8.02249872 19.88109073 -8.02734375 16.51708984 C-8.03969055 15.24829483 -8.05203735 13.97949982 -8.0647583 12.67225647 C-8.0617572 11.49771408 -8.0587561 10.32317169 -8.05566406 9.11303711 C-8.06113251 7.55988548 -8.06113251 7.55988548 -8.06671143 5.97535706 C-7.69921875 3.38818359 -7.69921875 3.38818359 -6.47064209 1.55464172 C-4.18017982 0.04640353 -2.73533556 0.00780001 0 0 Z " fill="#8E38BA" transform="translate(156.69921875,-0.38818359375)"/>
<path d="M0 0 C1.42662964 -0.01418472 1.42662964 -0.01418472 2.88208008 -0.02865601 C3.90712646 -0.02258331 4.93217285 -0.01651062 5.98828125 -0.01025391 C7.04233154 -0.01312408 8.09638184 -0.01599426 9.18237305 -0.01895142 C11.41162656 -0.02099354 13.64089792 -0.01545339 15.87011719 -0.00292969 C19.28751593 0.01312129 22.7037319 -0.00277399 26.12109375 -0.02197266 C28.28515887 -0.01999025 30.44922325 -0.01614663 32.61328125 -0.01025391 C33.63832764 -0.0163266 34.66337402 -0.02239929 35.71948242 -0.02865601 C36.67056885 -0.01919952 37.62165527 -0.00974304 38.6015625 0 C39.43856689 0.00238678 40.27557129 0.00477356 41.13793945 0.00723267 C43.30078125 0.38818359 43.30078125 0.38818359 45.06625366 1.56059265 C46.78494707 4.10494123 46.70897476 5.95793701 46.75244141 9.01782227 C46.77480865 10.1729985 46.7971759 11.32817474 46.82022095 12.51835632 C46.82993423 14.39331535 46.82993423 14.39331535 46.83984375 16.30615234 C46.85220062 17.59250076 46.8645575 18.87884918 46.87728882 20.20417786 C46.89976889 22.93037201 46.90931865 25.65628673 46.91162109 28.38256836 C46.91688645 31.85892178 46.96809574 35.3329147 47.03113747 38.80863476 C47.08211451 42.14113922 47.08264274 45.47326912 47.08984375 48.80615234 C47.1299205 50.66592964 47.1299205 50.66592964 47.17080688 52.5632782 C47.12348454 58.61629571 46.87373262 62.49549626 42.81396484 67.17456055 C41.6714226 68.27613554 40.50663594 69.35629954 39.30078125 70.38818359 C37.16991683 72.51904801 38.04117253 77.27985295 37.984375 80.23583984 C37.9635939 81.12226669 37.94281281 82.00869354 37.92140198 82.92198181 C37.85580725 85.7648006 37.79697573 88.60771476 37.73828125 91.45068359 C37.69510545 93.37321966 37.65149147 95.29574594 37.60742188 97.21826172 C37.50011582 101.94147028 37.39887674 106.66477513 37.30078125 111.38818359 C37.99405518 111.56196533 38.6873291 111.73574707 39.40161133 111.91479492 C45.53446 113.50999609 51.2408331 115.41775199 56.98828125 118.07568359 C57.75011719 118.42308594 58.51195312 118.77048828 59.296875 119.12841797 C61.63701534 120.20356523 63.96931782 121.29436791 66.30078125 122.38818359 C67.03119629 122.72543457 67.76161133 123.06268555 68.51416016 123.41015625 C77.31963765 127.4959138 85.07441545 131.7796855 92.30078125 138.38818359 C92.93242187 138.93990234 93.5640625 139.49162109 94.21484375 140.06005859 C100.76390102 146.11865783 104.91263244 153.85488615 109.18164062 161.59619141 C113.20929513 168.85625625 117.74937573 175.17291848 123.30078125 181.38818359 C123.95175781 182.17966797 124.60273438 182.97115234 125.2734375 183.78662109 C138.02005793 198.178759 160.31393523 202.43303816 178.30078125 206.45068359 C189.65126571 209.00604884 203.11832954 213.31657029 211.0390625 222.37646484 C217.95845893 233.40893903 215.9517363 253.38524823 213.30078125 265.38818359 C212.05674209 270.74406148 210.77375095 276.0900205 209.42163086 281.41967773 C207.9177871 287.41389837 206.75350219 293.22308137 206.30078125 299.38818359 C206.19894531 300.64759766 206.09710938 301.90701172 205.9921875 303.20458984 C205.32341479 322.63953006 215.47131051 339.78016544 225.98828125 355.57568359 C233.42473866 366.78328112 239.34312092 379.65908107 238.30078125 393.38818359 C230.83827285 408.36973454 217.35147808 419.33443704 202.9921875 427.20068359 C194.0258541 432.13714756 186.11514451 437.77831781 178.30078125 444.38818359 C177.44355469 445.08298828 176.58632813 445.77779297 175.703125 446.49365234 C162.27178617 458.40446225 158.04725174 478.89603742 154.32421875 495.71630859 C151.79971556 507.02608289 147.24839415 523.36163367 137.30078125 530.38818359 C129.39604339 533.21723149 121.38803911 533.96738252 113.05078125 533.95068359 C111.93469482 533.95116699 110.8186084 533.95165039 109.66870117 533.95214844 C98.56436648 533.73467714 88.50503776 531.06295444 77.88183594 528.06738281 C67.28953552 525.2800408 56.15536463 525.11182249 45.30078125 524.38818359 C42.66078125 507.88818359 40.02078125 491.38818359 37.30078125 474.38818359 C56.75008066 474.38818359 56.75008066 474.38818359 64.92578125 476.57568359 C66.78237813 477.02822079 68.63915565 477.48001735 70.49609375 477.93115234 C72.43109928 478.41639219 74.36599178 478.90208296 76.30078125 479.38818359 C80.46049212 480.41999448 84.62724838 481.4139593 88.80078125 482.38818359 C89.76193848 482.63205811 90.7230957 482.87593262 91.71337891 483.12719727 C92.61878418 483.33707275 93.52418945 483.54694824 94.45703125 483.76318359 C95.64522461 484.05322266 95.64522461 484.05322266 96.85742188 484.34912109 C100.38473268 484.40551295 102.35695099 483.28141002 105.30078125 481.38818359 C111.95309404 472.4901856 114.07942502 460.31359822 116.82983398 449.73876953 C124.74201122 419.57298407 141.63696243 408.68702865 167.61254883 393.44775391 C175.00476735 389.50709729 175.00476735 389.50709729 180.30078125 383.38818359 C181.37226825 371.20981911 172.56794601 359.51693371 166.69946289 349.48339844 C152.02869429 324.32383191 153.7020184 307.2043494 160.74609375 279.70849609 C160.97530518 278.81146973 161.2045166 277.91444336 161.44067383 276.99023438 C161.87594704 275.30633533 162.3204995 273.62479612 162.77612305 271.94628906 C163.98924015 267.33107415 164.69516825 263.20577245 164.30078125 258.38818359 C157.88941399 249.41226943 145.22136114 247.0210315 135.17578125 244.45068359 C102.35761861 235.77230557 102.35761861 235.77230557 96.46875 225.89599609 C95.46529814 224.10727763 94.47226653 222.31268418 93.48828125 220.51318359 C92.96129639 219.57369873 92.43431152 218.63421387 91.89135742 217.66625977 C89.58076066 213.54304272 87.30466708 209.40231633 85.05859375 205.24365234 C71.33305431 180.06050572 44.51942876 167.17585529 17.92578125 159.00537109 C14.73428572 158.0660081 11.52726971 157.20014758 8.30078125 156.38818359 C7.60611113 151.22656736 7.12493825 146.14978949 6.91186523 140.94091797 C6.8824585 140.24368622 6.85305176 139.54645447 6.82275391 138.82809448 C6.72743154 136.54616514 6.63698324 134.26407432 6.546875 131.98193359 C6.48124395 130.3725911 6.4154087 128.76325692 6.34938049 127.15393066 C6.21193699 123.78515887 6.07690424 120.41630147 5.94360352 117.04736328 C5.77440327 112.77571402 5.59934215 108.5043298 5.42242336 104.23299408 C5.28534036 100.90748476 5.15142056 97.58185343 5.01838875 94.25617981 C4.95514628 92.68402817 4.89098498 91.11191315 4.82580376 89.5398407 C4.64677705 85.19897658 4.49323942 80.85854203 4.37055588 76.51571655 C4.29840095 74.31560454 4.19243431 72.11841858 4.08694458 69.91967773 C4.03967808 68.48279402 3.99379783 67.04586387 3.94946289 65.60888672 C3.89705948 64.33952271 3.84465607 63.07015869 3.79066467 61.7623291 C4.44970822 57.40311215 5.82313379 56.01922401 9.30078125 53.38818359 C11.77578125 52.89318359 11.77578125 52.89318359 14.30078125 52.38818359 C14.30078125 43.14818359 14.30078125 33.90818359 14.30078125 24.38818359 C9.580411 22.02799847 5.91319908 22.01460811 0.70117188 21.90966797 C-2.02416234 21.798706 -4.22570688 21.64828166 -6.640625 20.32177734 C-8.29839183 17.29375306 -8.13181645 14.24804942 -8.07421875 10.88818359 C-8.08582031 10.21142578 -8.09742188 9.53466797 -8.109375 8.83740234 C-8.08023038 3.91196125 -8.08023038 3.91196125 -6.46801758 1.69564819 C-4.18014312 0.00449213 -2.8305944 0.00807165 0 0 Z " fill="#0080C8" transform="translate(261.69921875,-0.38818359375)"/>
<path d="M0 0 C1.42662964 -0.01418472 1.42662964 -0.01418472 2.88208008 -0.02865601 C3.90712646 -0.02258331 4.93217285 -0.01651062 5.98828125 -0.01025391 C7.04233154 -0.01312408 8.09638184 -0.01599426 9.18237305 -0.01895142 C11.41162656 -0.02099354 13.64089792 -0.01545339 15.87011719 -0.00292969 C19.28751593 0.01312129 22.7037319 -0.00277399 26.12109375 -0.02197266 C28.28515887 -0.01999025 30.44922325 -0.01614663 32.61328125 -0.01025391 C33.63832764 -0.0163266 34.66337402 -0.02239929 35.71948242 -0.02865601 C36.67056885 -0.01919952 37.62165527 -0.00974304 38.6015625 0 C39.43856689 0.00238678 40.27557129 0.00477356 41.13793945 0.00723267 C43.30078125 0.38818359 43.30078125 0.38818359 45.06625366 1.56059265 C46.78494707 4.10494123 46.70897476 5.95793701 46.75244141 9.01782227 C46.77480865 10.1729985 46.7971759 11.32817474 46.82022095 12.51835632 C46.82993423 14.39331535 46.82993423 14.39331535 46.83984375 16.30615234 C46.85220062 17.59250076 46.8645575 18.87884918 46.87728882 20.20417786 C46.89976889 22.93037201 46.90931865 25.65628673 46.91162109 28.38256836 C46.91688645 31.85892178 46.96809574 35.3329147 47.03113747 38.80863476 C47.08211451 42.14113922 47.08264274 45.47326912 47.08984375 48.80615234 C47.1299205 50.66592964 47.1299205 50.66592964 47.17080688 52.5632782 C47.12348454 58.61629571 46.87373262 62.49549626 42.81396484 67.17456055 C41.6714226 68.27613554 40.50663594 69.35629954 39.30078125 70.38818359 C37.16991683 72.51904801 38.04117253 77.27985295 37.984375 80.23583984 C37.9635939 81.12226669 37.94281281 82.00869354 37.92140198 82.92198181 C37.85580725 85.7648006 37.79697573 88.60771476 37.73828125 91.45068359 C37.69510545 93.37321966 37.65149147 95.29574594 37.60742188 97.21826172 C37.50011582 101.94147028 37.39887674 106.66477513 37.30078125 111.38818359 C37.99405518 111.56196533 38.6873291 111.73574707 39.40161133 111.91479492 C45.53446 113.50999609 51.2408331 115.41775199 56.98828125 118.07568359 C57.75011719 118.42308594 58.51195312 118.77048828 59.296875 119.12841797 C61.63701534 120.20356523 63.96931782 121.29436791 66.30078125 122.38818359 C67.03119629 122.72543457 67.76161133 123.06268555 68.51416016 123.41015625 C77.31963765 127.4959138 85.07441545 131.7796855 92.30078125 138.38818359 C92.93242187 138.93990234 93.5640625 139.49162109 94.21484375 140.06005859 C100.76390102 146.11865783 104.91263244 153.85488615 109.18164062 161.59619141 C115.31889905 172.65893129 123.16912003 181.6451037 132.30078125 190.38818359 C129.52419928 195.47206607 126.45105241 200.04898982 122.92578125 204.63818359 C121.87026532 206.0281799 120.81561763 207.41883584 119.76171875 208.81005859 C119.20581055 209.54289063 118.64990234 210.27572266 118.07714844 211.03076172 C114.86702656 215.29092347 111.71049874 219.59057962 108.55078125 223.88818359 C107.93025879 224.73155273 107.30973633 225.57492188 106.67041016 226.44384766 C105.21325991 228.42484774 103.75669309 230.40627328 102.30078125 232.38818359 C96.8859363 227.81877912 94.15235059 221.98041743 90.92578125 215.76318359 C78.09839924 191.24385769 64.03364592 178.93310249 39.30078125 167.38818359 C38.13675781 166.84162109 36.97273438 166.29505859 35.7734375 165.73193359 C26.84752267 161.72396268 17.7155921 158.96414879 8.30078125 156.38818359 C7.60611113 151.22656736 7.12493825 146.14978949 6.91186523 140.94091797 C6.8824585 140.24368622 6.85305176 139.54645447 6.82275391 138.82809448 C6.72743154 136.54616514 6.63698324 134.26407432 6.546875 131.98193359 C6.48124395 130.3725911 6.4154087 128.76325692 6.34938049 127.15393066 C6.21193699 123.78515887 6.07690424 120.41630147 5.94360352 117.04736328 C5.77440327 112.77571402 5.59934215 108.5043298 5.42242336 104.23299408 C5.28534036 100.90748476 5.15142056 97.58185343 5.01838875 94.25617981 C4.95514628 92.68402817 4.89098498 91.11191315 4.82580376 89.5398407 C4.64677705 85.19897658 4.49323942 80.85854203 4.37055588 76.51571655 C4.29840095 74.31560454 4.19243431 72.11841858 4.08694458 69.91967773 C4.03967808 68.48279402 3.99379783 67.04586387 3.94946289 65.60888672 C3.89705948 64.33952271 3.84465607 63.07015869 3.79066467 61.7623291 C4.44970822 57.40311215 5.82313379 56.01922401 9.30078125 53.38818359 C11.77578125 52.89318359 11.77578125 52.89318359 14.30078125 52.38818359 C14.30078125 43.14818359 14.30078125 33.90818359 14.30078125 24.38818359 C9.580411 22.02799847 5.91319908 22.01460811 0.70117188 21.90966797 C-2.02416234 21.798706 -4.22570688 21.64828166 -6.640625 20.32177734 C-8.29839183 17.29375306 -8.13181645 14.24804942 -8.07421875 10.88818359 C-8.08582031 10.21142578 -8.09742188 9.53466797 -8.109375 8.83740234 C-8.08023038 3.91196125 -8.08023038 3.91196125 -6.46801758 1.69564819 C-4.18014312 0.00449213 -2.8305944 0.00807165 0 0 Z " fill="#00AFEA" transform="translate(261.69921875,-0.38818359375)"/>
<path d="M0 0 C0.25652344 0.64582031 0.51304687 1.29164063 0.77734375 1.95703125 C5.93861228 14.66035547 11.22202861 27.42467295 19.125 38.6875 C27.40420864 50.51174863 33.06105175 63.39492633 33 78 C26.57958984 77.28662109 20.15917969 76.57324219 13.73876953 75.85986328 C12.16201261 75.68466807 10.58525071 75.50951771 9.00848389 75.33441162 C7.42059422 75.15788878 5.83274441 74.98100704 4.24493408 74.80377197 C0.14039233 74.34608817 -3.96472144 73.89521858 -8.07128906 73.45605469 C-8.88937042 73.36766327 -9.70745178 73.27927185 -10.55032349 73.1882019 C-12.10694455 73.02018069 -13.6637997 72.85430931 -15.22091675 72.69094849 C-18.54917813 72.32964578 -21.7827366 71.94995869 -25 71 C-24.9175 69.906875 -24.835 68.81375 -24.75 67.6875 C-24.85141451 56.06539725 -32.34282031 45.71563995 -38 36 C-39.63499883 33.17229296 -41.25728471 30.33762076 -42.875 27.5 C-43.42837036 26.54927612 -43.42837036 26.54927612 -43.99291992 25.5793457 C-47.28187947 19.81591487 -50.6395734 13.82211622 -50 7 C-40.20199394 5.04631903 -30.36890552 3.36672403 -20.5 1.8125 C-19.39092285 1.63364258 -18.2818457 1.45478516 -17.13916016 1.27050781 C-11.35004652 0.37341816 -5.85779807 -0.20616037 0 0 Z " fill="#0080C8" transform="translate(467,314)"/>
<path d="M0 0 C1.07032471 0.094021 2.14064941 0.18804199 3.2434082 0.28491211 C5.13518799 0.44950928 5.13518799 0.44950928 7.06518555 0.61743164 C8.5584066 0.76347674 10.05139388 0.91192402 11.54418945 1.06225586 C12.80733978 1.18803009 12.80733978 1.18803009 14.0960083 1.31634521 C19.84952096 1.89661756 25.59764496 2.51906076 31.34423828 3.1640625 C34.395029 3.50402824 37.44706464 3.83094594 40.49926758 4.15795898 C42.43750789 4.37395629 44.37566257 4.59072378 46.3137207 4.80834961 C47.22708694 4.90425888 48.14045319 5.00016815 49.08149719 5.09898376 C51.24508072 5.34941476 53.39714733 5.69616911 55.54418945 6.06225586 C56.03918945 7.05225586 56.03918945 7.05225586 56.54418945 8.06225586 C47.08905914 22.86574271 36.73203291 33.3855624 21.2355957 41.87475586 C8.97877221 48.62359174 -1.93282806 56.74076241 -11.45581055 67.06225586 C-18.06424215 63.06276419 -24.30936864 58.74301989 -30.38598633 53.98242188 C-35.62888546 49.88674675 -41.02792647 46.03091697 -46.4597168 42.19116211 C-48.81983825 40.51415273 -51.15144102 38.81447816 -53.45581055 37.06225586 C-48.24098159 24.7412092 -28.16986058 16.53563886 -17.2956543 9.91772461 C-16.47258789 9.41668213 -15.64952148 8.91563965 -14.80151367 8.39941406 C-13.22555058 7.4425565 -11.64749951 6.48912737 -10.06713867 5.53955078 C-9.35879883 5.11134033 -8.65045898 4.68312988 -7.9206543 4.24194336 C-6.98660767 3.68095947 -6.98660767 3.68095947 -6.03369141 3.10864258 C-1.39956823 0.03547966 -1.39956823 0.03547966 0 0 Z " fill="#00AFEA" transform="translate(443.455810546875,384.937744140625)"/>
<path d="M0 0 C0.66 0.33 1.32 0.66 2 1 C6.67512474 16.12540357 5.44579874 32.47385637 1.59765625 47.58203125 C1.06419104 49.67945546 0.53166987 51.77711997 0 53.875 C-0.2683667 54.93267578 -0.5367334 55.99035156 -0.81323242 57.08007812 C-3.53482717 68.30697255 -4.33969686 79.50201597 -5 91 C-5.57993713 91.08547592 -6.15987427 91.17095184 -6.75738525 91.25901794 C-12.79222565 92.14888179 -18.82664989 93.04152741 -24.86083984 93.93579102 C-27.11301282 94.26918789 -29.36529101 94.60187485 -31.61767578 94.93383789 C-34.85477155 95.41105628 -38.09148062 95.89082468 -41.328125 96.37109375 C-42.33554749 96.51904892 -43.34296997 96.66700409 -44.38092041 96.81944275 C-45.32159363 96.95951248 -46.26226685 97.09958221 -47.23144531 97.24389648 C-48.05751282 97.36603012 -48.88358032 97.48816376 -49.73468018 97.61399841 C-51.85974174 97.97610054 -53.91761067 98.44605905 -56 99 C-57.00228357 86.14849732 -54.02248723 74.39794694 -51 62 C-50.77054687 61.0502832 -50.54109375 60.10056641 -50.3046875 59.12207031 C-49.0847867 54.09348496 -47.8601081 49.06561582 -46.53344727 44.06396484 C-46.0334705 42.12950097 -45.60017337 40.17814846 -45.171875 38.2265625 C-43.75190535 34.31691272 -42.2020613 32.91659793 -38.9375 30.375 C-38.41583252 29.96169434 -37.89416504 29.54838867 -37.35668945 29.12255859 C-35.58541806 27.72884701 -33.79477651 26.3632862 -32 25 C-30.65078434 23.96387667 -29.30183529 22.92740608 -27.953125 21.890625 C-25.81529981 20.25147764 -23.67517903 18.61564917 -21.52929688 16.98706055 C-14.24540811 11.4577629 -7.11312132 5.74640805 0 0 Z " fill="#00AFEA" transform="translate(472,223)"/>
<path d="M0 0 C19.47414982 0 19.47414982 0 27.625 2.1875 C29.47992043 2.65193505 31.33541181 3.11409445 33.19140625 3.57421875 C34.13387207 3.81188965 35.07633789 4.04956055 36.04736328 4.29443359 C39.13300862 5.03178394 42.22597169 5.6629328 45.33984375 6.26953125 C46.37995605 6.47618408 47.42006836 6.68283691 48.49169922 6.89575195 C50.49200844 7.28935708 52.49491109 7.67007166 54.50048828 8.03588867 C60.16700429 9.1839636 63.26602558 10.32412213 67 15 C67.82757813 15.93714844 68.65515625 16.87429688 69.5078125 17.83984375 C70.38333171 18.86974879 71.25559625 19.90242734 72.125 20.9375 C72.83450806 21.77958008 72.83450806 21.77958008 73.55834961 22.63867188 C82.36815007 33.15974949 90.65853087 44.10723554 99 55 C98.505 55.99 98.505 55.99 98 57 C79.45462293 63.13794986 58.70473322 58.78978435 40.58105469 53.67919922 C29.98875427 50.89185721 18.85458338 50.72363889 8 50 C5.36 33.5 2.72 17 0 0 Z " fill="#00AFEA" transform="translate(299,474)"/>
<path d="M0 0 C5.61227538 4.35163469 9.68474889 10.68978198 10.99609375 17.71484375 C11.82601906 27.84950857 10.46627245 35.15456498 3.87109375 43.02734375 C-2.77665381 49.8775067 -7.96810742 51.89127373 -17.50390625 52.21484375 C-26.75489625 51.94629649 -33.4626969 49.40471695 -40.00390625 42.71484375 C-45.75522399 33.87745308 -46.89810225 26.12959715 -46.00390625 15.71484375 C-43.84869129 7.82991095 -38.65453997 2.26126057 -32.00390625 -2.28515625 C-21.51638191 -7.82749563 -9.74883563 -6.25217724 0 0 Z " fill="#00B0EB" transform="translate(184.00390625,416.28515625)"/>
<path d="M0 0 C6.00346272 4.33583419 9.20597833 9.86662813 11 17 C12.0252998 24.59653942 10.82604001 31.79084517 6.5234375 38.19921875 C2.04190393 43.73462894 -2.76909925 46.76168759 -9.5625 48.75 C-19.07754779 49.72590234 -26.6995029 47.81761345 -34.20703125 41.80859375 C-39.68953069 36.27831653 -41.74265565 29.86016519 -42.25 22.25 C-42.08635578 14.33557068 -39.29448414 8.44929923 -33.90234375 2.7265625 C-24.30231467 -5.98640023 -11.03464 -6.34585952 0 0 Z " fill="#00B0EB" transform="translate(273,237)"/>
<path d="M0 0 C5.84551286 4.95717038 9.41232499 10.81852738 10.27734375 18.4453125 C10.55771345 25.7797839 8.92213122 31.11680317 4.875 37.1875 C0.44792478 41.94009546 -4.13755104 44.64642145 -10.63671875 45.44921875 C-17.78403776 45.6554598 -24.29021322 45.67993939 -30 41 C-35.04230096 36.1887208 -38.60515587 31.84284349 -39.3359375 24.73046875 C-39.43637664 15.62063854 -38.53887715 10.20839445 -32.6875 3.25 C-22.75561816 -5.06506387 -11.39198163 -6.70338092 0 0 Z " fill="#0080C8" transform="translate(177,296)"/>
<path d="M0 0 C6.0863299 3.18677498 10.61243497 8.91213977 12.73828125 15.34765625 C13.89800384 23.29480788 12.42221933 29.81137994 7.73828125 36.34765625 C3.78094652 40.35199021 -0.71111773 42.40687642 -6.26171875 43.34765625 C-13.11902496 43.33673697 -19.02548556 42.50178627 -24.109375 37.546875 C-29.78790588 31.35529411 -31.76300827 26.56218004 -31.5703125 18.12890625 C-30.79875982 11.17516561 -27.34436035 6.88762374 -22.04296875 2.57421875 C-15.63169445 -1.84056223 -7.46314163 -2.15258144 0 0 Z " fill="#0080C8" transform="translate(245.26171875,342.65234375)"/>
<path d="M0 0 C4.6952224 2.77223111 7.55560237 6.21736222 9.875 11.1875 C11.40434541 18.27810145 11.10845845 23.89445525 7.5625 30.375 C4.32684421 35.04872503 1.17923125 38.13931912 -4.4375 39.375 C-10.83763907 40.0890651 -17.01852117 40.1948778 -22.68359375 36.82421875 C-27.62084779 32.74466141 -30.5724153 27.71020612 -31.5 21.375 C-31.73455054 15.32359594 -30.59940627 10.16524355 -26.8515625 5.328125 C-19.76014957 -2.16585722 -9.66456967 -4.40968958 0 0 Z " fill="#0080C8" transform="translate(194.4375,195.625)"/>
<path d="M0 0 C4.6992228 3.5530709 9.19620504 8.06243168 10.5625 13.9375 C11.32279016 20.78011143 10.71063318 26.30616803 6.5625 31.9375 C1.71514691 36.99417061 -2.0190428 39.0771278 -9.125 39.25 C-16.15057631 39.18203796 -20.65970626 37.56514273 -25.75 32.75 C-29.31679517 26.80534138 -31.21839996 21.08505976 -30.06640625 14.13671875 C-28.26624485 7.8417444 -24.60376988 3.00064807 -18.8828125 -0.21875 C-12.76842014 -2.32850839 -6.10546751 -1.8871445 0 0 Z " fill="#00B0EB" transform="translate(217.4375,281.0625)"/>
<path d="M0 0 C3.55247432 0.87379409 4.94828114 2.4927342 6.9375 5.4765625 C7.63597125 8.3162489 7.63597125 10.6368761 6.9375 13.4765625 C4.94828114 16.4603908 3.55247432 18.07933091 0 18.953125 C-3.92313492 19.23547183 -5.73362371 18.69581336 -9.0625 16.4765625 C-11.28175086 13.14768621 -11.82140933 11.33719742 -11.5390625 7.4140625 C-10.07519871 1.46261629 -5.59135555 -0.40240816 0 0 Z " fill="#0080C8" transform="translate(271.0625,331.5234375)"/>
</svg>
