<?xml version="1.0" encoding="utf-8"?>
<!DOCTYPE svg PUBLIC "-//W3C//DTD SVG 1.0//EN" "http://www.w3.org/TR/2001/REC-SVG-20010904/DTD/svg10.dtd">
<svg version="1.0" xmlns="http://www.w3.org/2000/svg" width="3552px" height="1122px" viewBox="0 0 3552 1122" preserveAspectRatio="xMidYMid meet">
 <g fill="#000000">
  <path d="M1341.93 1042.82 c-11.68 -3.31 -27.85 -11.49 -32.33 -16.55 -2.73 -2.92 -2.34 -4.09 3.12 -11.88 9.15 -12.66 8.76 -12.66 16.55 -6.62 22.78 17.33 54.33 16.75 64.07 -1.17 2.92 -5.84 3.31 -8.57 1.95 -14.61 -2.34 -9.35 -9.54 -14.41 -30.77 -21.42 -28.43 -9.35 -42.84 -19.08 -47.91 -32.52 -3.31 -8.57 -2.53 -26.68 1.56 -35.64 4.67 -10.13 17.53 -21.23 30.18 -25.51 20.25 -7.21 55.31 -2.53 69.52 8.96 l4.28 3.31 -7.21 11.29 -7.01 11.10 -6.04 -4.28 c-7.40 -5.06 -21.42 -9.54 -30.77 -9.54 -11.10 0.19 -23.17 6.62 -26.48 14.22 -6.23 15.19 0.58 22.39 31.55 32.72 37.97 12.66 48.49 23.37 48.10 49.46 -0.19 21.42 -10.52 36.81 -30.96 45.96 -12.46 5.65 -36.42 6.82 -51.41 2.73z"/>
  <path d="M1554.97 1044.57 c-19.08 -4.67 -43.82 -16.55 -43.82 -20.84 0 -1.56 7.98 -12.66 13.83 -19.67 0.78 -0.97 4.09 0.19 7.21 2.53 31.16 22.20 68.55 16.75 68.55 -10.13 0 -11.49 -8.18 -18.31 -32.33 -26.48 -22.78 -7.59 -33.49 -13.44 -40.70 -22.01 -7.21 -8.57 -9.15 -14.22 -8.96 -27.26 0.19 -39.73 49.46 -59.98 95.81 -39.34 6.23 2.92 11.49 6.23 11.29 7.40 -0.19 4.48 -10.91 19.67 -13.63 19.28 -1.56 -0.19 -7.98 -2.53 -14.41 -5.26 -18.69 -7.98 -37.39 -6.04 -46.54 4.87 -6.43 7.59 -6.43 15.38 -0.19 22.78 3.70 4.48 9.54 7.21 24.93 12.07 33.30 10.71 44.40 18.11 50.83 33.49 3.70 8.76 3.89 25.32 0.39 35.25 -7.21 19.86 -26.87 32.33 -52.97 33.49 -8.57 0.39 -17.14 0.39 -19.28 -0.19z"/>
  <path d="M2181.64 1042.82 c-15.77 -4.28 -27.26 -10.52 -38.56 -20.84 -24.54 -22.39 -32.52 -60.17 -20.06 -95.03 8.76 -24.54 36.22 -46.54 65.24 -52.77 14.99 -3.12 39.73 -1.17 53.36 3.89 11.68 4.48 27.07 14.41 27.07 17.72 0 0.97 -3.89 5.84 -8.57 10.91 l-8.37 9.15 -6.62 -5.06 c-22.98 -17.33 -57.45 -15.97 -77.31 3.12 -10.71 10.32 -16.55 23.56 -17.53 40.70 -1.95 34.08 15.58 58.62 46.15 64.26 18.50 3.51 33.49 -1.17 53.94 -16.75 1.56 -1.17 5.45 0.97 12.27 6.62 l9.93 8.37 -5.26 5.84 c-18.11 19.08 -56.08 27.85 -85.68 19.86z"/>
  <path d="M36.42 1041.26 c-0.19 -0.78 0.19 -12.27 1.17 -25.12 3.51 -57.06 23.56 -122.10 52.77 -171.56 39.92 -67.96 97.56 -120.93 169.62 -156.18 29.41 -14.41 59.39 -25.32 82.76 -29.99 15.38 -3.31 16.55 -3.89 17.14 -8.76 l0.58 -5.06 -161.63 0 -161.83 0 0 -78.87 0 -78.87 161.63 0 161.63 0 0 -5.84 c0 -3.31 -1.17 -6.23 -2.34 -6.62 -1.36 -0.39 -11.68 -2.53 -22.98 -5.06 -47.32 -9.93 -99.71 -35.25 -145.08 -69.91 -15.97 -12.07 -49.66 -44.98 -63.48 -61.73 -52.58 -64.26 -84.71 -146.05 -90.55 -230.57 l-1.36 -19.47 79.84 0 80.04 0 1.17 6.04 c0.58 3.31 1.17 9.35 1.17 13.24 0 3.89 1.75 14.99 3.89 24.93 12.85 60.95 43.43 110.03 90.36 145.08 14.41 10.71 59.20 34.66 64.85 34.66 1.95 0 2.53 -21.81 2.53 -111.97 l0 -111.97 79.84 0 79.84 0 0 112.95 0 112.75 8.37 -2.92 c13.05 -4.48 38.17 -17.92 53.16 -28.24 17.53 -12.27 45.96 -41.48 58.62 -60.17 23.37 -34.86 38.75 -78.48 42.65 -120.93 l1.36 -13.44 79.84 0 79.84 0 -1.36 18.11 c-4.67 60.56 -16.55 105.16 -41.28 155.21 -33.49 67.18 -76.53 116.45 -137.09 156.37 -38.95 25.71 -92.11 47.91 -128.92 54.14 l-15.19 2.53 0 6.43 0 6.43 160.66 0 160.66 0 0 78.87 0 78.87 -161.83 0 -161.63 0 0.58 5.26 c0.58 4.87 1.56 5.45 13.44 7.59 53.94 9.93 119.96 42.45 168.84 83.54 82.76 68.94 134.56 171.76 140.02 277.69 l1.17 22.59 -17.53 1.36 c-22.78 1.56 -135.34 1.36 -138.07 -0.39 -1.17 -0.78 -3.89 -13.24 -6.23 -27.65 -8.96 -57.06 -30.38 -100.48 -68.35 -138.46 -24.54 -24.73 -61.93 -49.07 -87.24 -57.06 l-4.48 -1.36 0 111.78 c0 95.23 -0.39 112.17 -2.73 112.95 -1.56 0.58 -37 1.17 -78.67 1.36 -67.96 0 -75.95 -0.19 -77.12 -3.12 -0.58 -1.56 -1.17 -52.58 -1.17 -112.95 0 -60.37 -0.58 -109.83 -1.36 -109.83 -3.70 0.19 -42.26 19.86 -54.72 28.24 -53.16 34.86 -90.75 95.03 -102.63 163.38 -1.56 9.54 -2.92 20.64 -2.92 24.54 l0 7.40 -33.49 1.36 c-40.89 1.56 -125.99 0.58 -126.77 -1.56z"/>
  <path d="M1020.42 960.25 c0 -74.39 0.39 -83.74 3.12 -84.71 4.87 -1.95 58.81 -1.36 73.42 0.78 20.45 2.92 31.35 9.74 38.75 24.15 12.46 24.34 1.75 54.14 -23.17 64.85 l-8.37 3.51 20.45 36.03 c11.29 19.67 20.45 36.61 20.45 37.58 0 0.78 -7.59 1.17 -16.75 0.97 l-16.94 -0.58 -19.28 -35.44 -19.47 -35.64 -11.49 0 -11.49 0 0 36.03 0 36.03 -14.61 0 -14.61 0 0 -83.54z m79.65 -26.29 c7.21 -7.01 7.59 -12.66 1.36 -20.06 -4.48 -5.26 -5.45 -5.45 -25.32 -6.04 l-20.64 -0.78 0 16.94 0 16.94 19.28 -0.78 c18.50 -0.58 19.67 -0.97 25.32 -6.23z"/>
  <path d="M1172.71 959.66 l0.58 -84.32 55.11 -0.58 54.92 -0.39 0 13.63 0 13.63 -40.89 0 -40.89 0 0 20.45 0 20.45 38.56 0.39 38.36 0.58 0.58 13.24 0.58 13.05 -39.14 0 -38.95 0 0 23.37 0 23.37 42.84 0 42.84 0 0 13.63 0 13.63 -57.45 0 -57.45 0 0.39 -84.13z"/>
  <path d="M1457.02 959.66 l0.58 -84.32 14.22 -0.58 14.02 -0.58 0 84.91 0 84.71 -14.61 0 -14.61 0 0.39 -84.13z"/>
  <path d="M1691.68 1042.43 c-0.78 -0.58 -1.36 -32.72 -1.36 -71.08 l0 -69.72 -24.34 0 -24.34 0 0 -13.63 0 -13.63 64.85 0.39 64.65 0.58 0 12.66 0 12.66 -24.34 0.58 c-16.36 0.39 -24.73 1.36 -25.71 2.92 -0.78 1.36 -1.56 33.30 -1.56 71.08 l0 68.55 -13.24 0 c-7.40 0 -14.02 -0.58 -14.61 -1.36z"/>
  <path d="M1793.92 959.66 l0.58 -84.32 55.31 -0.58 c30.38 -0.19 56.08 0.19 56.86 0.97 0.78 0.78 0.97 7.01 0.39 13.83 l-1.17 12.07 -41.48 0 -41.67 0 0 20.45 0 20.45 38.56 0.39 38.36 0.58 0 12.66 0 12.66 -38.36 0.58 -38.56 0.39 0 23.37 0 23.37 43.82 0 43.82 0 0 13.63 0 13.63 -58.42 0 -58.42 0 0.39 -84.13z"/>
  <path d="M1939.58 958.88 l0 -84.91 19.47 0.97 c10.71 0.39 19.86 1.17 20.25 1.56 0.39 0.39 18.11 28.24 39.34 61.93 l38.75 61.15 0.97 -62.12 0.97 -62.12 13.63 0 13.63 0 0.58 84.32 0.39 84.13 -18.31 0 -18.11 0 -10.52 -16.94 c-18.89 -31.16 -68.16 -107.69 -70.11 -108.66 -0.97 -0.78 -1.75 23.37 -1.75 62.12 l0 63.48 -14.61 0 -14.61 0 0 -84.91z"/>
  <path d="M2291.47 1012.83 c-1.17 -34.08 0.58 -136.32 2.34 -137.29 0.58 -0.39 7.01 -0.39 14.41 0.19 l13.05 1.17 -0.39 82.96 -0.58 82.96 -13.83 0.58 -13.83 0.58 -1.17 -31.16z"/>
  <path d="M2342.68 1042.04 c0 -0.78 6.04 -15.97 13.44 -33.49 21.23 -50.05 44.01 -104.57 50.24 -119.57 l5.65 -13.63 14.22 0 14.22 0 6.82 16.55 c3.70 9.15 19.47 46.15 34.86 82.37 15.38 36.22 28.04 66.79 28.04 67.77 0 1.17 -6.62 1.75 -15.97 1.36 l-15.77 -0.58 -7.98 -19.47 -7.98 -19.47 -36.81 0 -36.61 0 -7.98 20.06 -7.79 19.86 -15.38 0 c-8.37 0 -15.19 -0.78 -15.19 -1.75z m92.11 -87.24 c-3.70 -9.54 -7.21 -18.89 -7.98 -20.84 -0.58 -2.53 -3.31 1.95 -8.37 14.61 -4.09 10.13 -7.40 19.47 -7.40 20.84 -0.19 1.56 4.09 2.34 15.19 2.34 l15.38 0 -6.82 -16.94z"/>
  <path d="M1377.76 782.65 c-39.92 -5.26 -67.57 -32.52 -73.42 -71.86 -8.96 -59.98 42.06 -109.05 103.41 -99.51 14.61 2.14 33.69 9.93 42.84 17.33 l4.67 3.70 -8.57 11.10 c-4.67 6.04 -9.15 10.91 -9.74 10.91 -0.78 0 -2.34 -1.36 -3.89 -3.12 -1.36 -1.56 -7.01 -5.45 -12.27 -8.18 -8.57 -4.48 -12.27 -5.26 -27.46 -5.26 -15.77 0 -18.50 0.58 -27.85 5.65 -19.08 10.52 -28.04 25.90 -29.21 49.85 -1.36 27.65 8.76 47.32 29.41 57.84 19.86 9.93 45.18 7.40 61.15 -6.23 l8.18 -7.01 11.10 8.18 10.91 7.98 -7.21 7.40 c-16.75 17.14 -43.62 25.12 -72.05 21.23z"/>
  <path d="M2902.55 783.62 c-51.02 -7.79 -82.76 -50.24 -74.97 -101.07 7.40 -49.07 53.75 -80.04 106.52 -71.27 35.05 6.04 61.34 29.21 69.72 61.54 11.68 45.76 -13.44 92.69 -57.45 106.33 -11.68 3.51 -34.08 5.84 -43.82 4.48z m32.13 -38.17 c28.04 -11.88 40.70 -47.71 25.90 -73.81 -11.10 -20.06 -34.08 -31.74 -53.16 -27.07 -27.85 6.62 -47.52 36.03 -41.09 61.34 5.84 23.37 20.45 38.56 42.06 43.82 7.40 1.75 15.19 0.58 26.29 -4.28z"/>
  <path d="M1127.53 780.31 c0 -0.97 6.04 -15.77 13.44 -33.11 15.97 -37.39 34.27 -81.40 47.13 -112.36 l9.15 -22.39 13.44 -0.58 13.24 -0.58 14.02 32.72 c7.59 17.92 23.56 55.50 35.44 83.54 11.88 27.85 21.62 51.22 21.62 51.99 0 0.78 -7.21 1.36 -16.16 1.36 l-16.16 0 -7.79 -18.89 -7.59 -19.08 -37 0 -36.81 0 -7.21 18.50 -7.01 18.50 -15.97 0.97 c-8.57 0.58 -15.77 0.19 -15.77 -0.58z m98.54 -70.88 c-5.06 -13.44 -15.58 -39.53 -15.97 -38.95 -0.19 0.19 -3.70 8.76 -7.59 18.89 -3.89 10.13 -7.59 19.67 -8.18 21.03 -0.78 1.75 3.12 2.34 15.97 2.34 15.38 0 16.94 -0.39 15.77 -3.31z"/>
  <path d="M1519.92 780.12 c-17.53 -5.65 -28.24 -14.61 -36.03 -30.18 -6.04 -11.88 -7.98 -37.39 -7.40 -91.72 l0.58 -45.57 13.63 0 13.63 0 0.97 58.23 c0.97 56.08 1.17 58.81 5.45 67.57 5.06 10.13 9.74 13.83 21.81 17.14 17.33 4.67 35.64 -1.95 43.62 -15.58 3.89 -6.43 4.09 -10.71 5.06 -67.18 l0.97 -60.37 14.22 -0.58 14.02 -0.58 0 56.47 c0 70.49 -2.14 81.79 -17.92 97.76 -11.29 11.29 -25.12 16.36 -46.35 16.75 -11.29 0.39 -21.62 -0.58 -26.29 -2.14z"/>
  <path d="M1785.15 781.67 c-0.78 -0.78 -1.36 -32.91 -1.36 -71.27 l0 -69.72 -23.17 0 c-12.85 0 -24.54 -0.58 -26.29 -1.17 -2.34 -0.97 -3.12 -4.09 -3.12 -13.63 l0 -12.46 64.26 0 c35.44 0 64.85 -0.19 65.82 -0.39 0.78 -0.39 1.56 5.84 1.95 13.63 l0.58 14.02 -25.51 0 -25.32 0 0 70.11 0 70.11 -9.15 0 c-5.26 0 -11.10 0.58 -13.24 1.17 -2.14 0.58 -4.67 0.39 -5.45 -0.39z"/>
  <path d="M2630.51 778.36 c-15.38 -5.26 -32.33 -16.55 -39.53 -25.90 -2.73 -3.70 -7.79 -12.46 -11.29 -19.86 -5.84 -12.27 -6.23 -14.22 -6.23 -35.44 0 -21.23 0.39 -23.17 6.23 -35.64 13.05 -27.46 38.17 -45.57 69.33 -50.24 24.34 -3.70 56.08 2.92 70.49 14.61 5.45 4.28 5.45 4.67 2.53 9.15 -1.75 2.53 -5.84 7.79 -8.96 11.49 -5.45 6.43 -6.04 6.62 -9.54 3.51 -13.63 -12.27 -46.93 -16.55 -65.04 -8.18 -12.46 5.84 -22.59 15.38 -28.63 26.87 -4.28 8.57 -5.06 12.46 -5.26 27.46 0 20.06 3.51 30.18 15.38 43.43 11.29 12.46 23.56 16.75 46.93 16.55 10.71 -0.19 22.20 -0.97 25.32 -1.95 l5.84 -1.75 0.58 -19.86 0.58 -19.67 -18.11 -0.58 -18.11 -0.58 -0.58 -12.07 -0.58 -12.27 33.30 0 33.11 0 0 41.87 0 41.67 -15.97 5.26 c-13.44 4.28 -20.64 5.26 -42.45 6.04 -23.76 0.58 -27.46 0.39 -39.34 -3.89z"/>
  <path d="M3163.50 781.48 l-15.58 -0.78 -20.25 -32.52 c-11.29 -17.92 -28.24 -45.18 -37.78 -60.76 -9.54 -15.58 -18.69 -29.60 -20.06 -31.16 -2.34 -2.34 -2.73 6.62 -2.73 60.95 l0 63.68 -15.58 0 -15.58 0 0.39 -84.13 0.58 -84.32 19.67 -0.58 19.86 -0.58 5.26 9.35 c3.12 5.06 19.86 31.94 37.39 59.59 17.53 27.65 32.33 51.41 33.11 52.97 3.51 9.54 4.48 -3.31 4.48 -59.39 l0 -62.32 14.61 0 14.61 0 -0.39 85.10 c-0.58 74.19 -0.97 85.29 -3.51 85.29 -1.56 0.19 -9.93 -0.19 -18.50 -0.39z"/>
  <path d="M1020.42 697.16 l0 -83.74 53.55 0 53.55 0 0 12.66 0 12.66 -38.95 0 -38.95 0 0 23.37 0 23.37 37 0 37 0 0 12.66 0 12.66 -37 0 -37 0 0 35.05 0 35.05 -14.61 0 -14.61 0 0 -83.74z"/>
  <path d="M1645.92 696.77 l0.58 -84.32 14.61 0 14.61 0 0.58 71.66 0.39 71.47 36.03 0 36.03 0 0 12.66 0 12.66 -51.61 0 -51.61 0 0.39 -84.13z"/>
  <path d="M1854.48 778.56 c1.95 -5.26 54.72 -132.03 61.73 -148.58 l7.40 -17.53 14.02 0 14.02 0 6.43 15.58 c6.62 16.36 36.03 85.49 54.33 128.14 l10.52 24.73 -16.75 0 -16.94 0 -7.40 -19.47 -7.40 -19.47 -37.39 0.39 -37.39 0.58 -7.59 19.08 -7.79 18.89 -15.38 0 c-11.49 0 -15.19 -0.58 -14.41 -2.34z m91.92 -86.27 c-4.48 -11.29 -8.76 -21.03 -9.15 -21.62 -0.58 -0.58 -2.53 2.73 -4.09 7.40 -1.56 4.67 -5.26 14.22 -7.98 21.62 l-5.06 13.05 17.33 0 17.14 0 -8.18 -20.45z"/>
  <path d="M2040.84 697.16 l0 -83.74 37.97 0 c41.48 0 52.58 1.56 70.30 9.93 48.68 22.98 58.62 95.23 18.31 133.01 -20.84 19.47 -39.14 24.54 -89.97 24.54 l-36.61 0 0 -83.74z m77.89 47.52 c26.29 -7.79 42.26 -39.34 33.30 -65.82 -3.31 -9.35 -14.22 -21.62 -23.76 -26.68 -8.57 -4.28 -30.96 -8.18 -43.04 -7.21 l-8.37 0.58 -0.58 49.66 c-0.19 27.26 0 50.83 0.58 52.38 1.36 3.31 26.29 1.75 41.87 -2.92z"/>
  <path d="M2284.26 696.77 l0 -84.32 36.42 0.39 c41.67 0.58 52.97 2.34 65.24 10.13 27.07 17.14 24.93 61.54 -3.51 76.34 -5.65 2.73 -11.10 5.45 -12.66 6.04 -1.75 0.58 3.89 12.07 18.31 37.39 11.49 20.06 20.84 36.81 20.84 37.39 0 0.58 -7.59 0.58 -16.94 0.39 l-16.94 -0.58 -18.69 -35.05 -18.69 -35.05 -12.07 -0.58 -12.07 -0.58 0 36.22 0 36.03 -14.61 0 -14.61 0 0 -84.13z m69.52 -19.28 c13.63 -5.06 18.31 -16.75 9.74 -24.73 -6.23 -5.84 -15.19 -8.18 -30.96 -8.18 l-13.24 0 0 17.14 c0 9.54 0.58 17.92 1.56 18.69 1.75 1.95 25.71 -0.19 32.91 -2.92z"/>
  <path d="M2436.16 697.16 l0 -83.74 53.55 0 c29.41 0 54.14 -0.19 55.11 -0.39 0.78 -0.39 1.56 5.26 1.95 12.46 l0.58 13.24 -41.48 0.39 -41.28 0.58 -0.19 20.45 0 20.45 39.53 0.58 39.34 0.39 0 12.66 0 12.66 -38.95 0 -38.95 0 0 24.34 0 24.34 43.82 0 43.82 0 0 12.66 0 12.66 -58.42 0 -58.42 0 0 -83.74z"/>
  <path d="M2765.65 696.77 l0.58 -84.32 15.19 -0.58 14.99 -0.58 0 84.91 0 84.71 -15.58 0 -15.58 0 0.39 -84.13z"/>
  <path d="M3207.12 776.42 c0.97 -2.53 10.13 -24.73 20.25 -49.27 10.13 -24.54 24.93 -60.37 32.91 -79.65 l14.61 -35.05 14.61 -0.58 14.61 -0.58 3.51 9.35 c1.95 5.06 17.92 43.04 35.44 84.13 17.33 41.09 31.74 74.97 31.74 75.36 0 0.39 -7.21 0.78 -16.16 0.78 l-16.16 0 -7.79 -18.69 -7.59 -18.69 -37.58 0 c-20.64 0 -37.78 0.19 -38.17 0.58 -0.39 0.39 -3.70 8.76 -7.40 18.31 l-6.62 17.53 -15.97 0.58 -15.97 0.58 1.75 -4.67z m91.53 -82.57 c-4.09 -10.52 -7.59 -20.25 -7.59 -21.42 0 -6.62 -3.70 -0.58 -10.91 18.89 l-8.18 21.42 17.14 0 17.14 0 -7.59 -18.89z"/>
  <path d="M3394.26 696.18 l0 -84.71 14.61 0 14.61 0 0.39 71.66 0.58 71.47 36.61 0.58 36.42 0.39 0 12.66 0 12.66 -51.61 0 -51.61 0 0 -84.71z"/>
  <path d="M1602.68 476.91 c-21.42 -4.28 -37 -16.55 -46.54 -36.81 -4.48 -9.74 -5.06 -13.05 -5.06 -34.08 0 -21.81 0.39 -24.15 5.65 -34.66 2.92 -6.23 8.57 -14.41 12.07 -18.11 14.80 -14.61 39.92 -22.20 61.54 -18.31 22.78 4.28 37.39 14.80 47.71 35.05 5.26 10.13 5.45 12.07 5.45 36.03 0 21.81 -0.58 26.48 -4.28 34.47 -9.15 19.67 -25.90 32.33 -48.29 36.42 -12.85 2.34 -15.97 2.34 -28.24 0z m25.90 -32.13 c8.96 -4.48 12.85 -8.57 17.33 -16.94 8.18 -15.97 5.84 -38.56 -5.45 -51.80 -14.02 -16.75 -38.75 -13.44 -50.44 6.62 -12.66 21.42 -5.26 51.02 14.99 61.15 10.13 4.87 15.19 5.06 23.56 0.97z"/>
  <path d="M1872.39 476.52 c-21.62 -5.65 -34.27 -16.36 -43.62 -36.42 -6.62 -14.41 -8.18 -43.04 -3.12 -58.81 6.23 -19.08 16.16 -31.16 33.11 -40.31 8.96 -4.67 11.68 -5.06 32.13 -5.06 20.45 0 23.17 0.39 32.33 5.26 12.07 6.43 21.23 16.36 27.85 30.77 7.21 15.58 8.18 42.84 2.14 62.51 -3.51 11.88 -5.84 15.58 -15.19 24.93 -7.40 7.40 -14.41 12.07 -20.84 14.41 -13.24 4.48 -32.91 5.65 -44.79 2.73z m31.16 -33.11 c27.07 -15.38 26.48 -60.95 -0.97 -74.97 -29.02 -14.99 -57.64 23.95 -42.06 57.06 9.35 20.06 26.48 27.26 43.04 17.92z"/>
  <path d="M3045.88 477.11 c-36.22 -7.59 -58.23 -44.59 -50.83 -85.49 6.62 -36.61 30.77 -57.25 67.18 -57.25 34.08 0 57.84 19.28 65.04 52.77 6.23 29.41 -3.51 63.09 -22.39 77.51 -14.02 10.71 -40.51 16.36 -59.01 12.46z m32.13 -35.25 c8.96 -5.45 17.14 -22.20 17.14 -35.05 0 -19.47 -13.83 -38.95 -29.79 -41.87 -9.35 -1.75 -22.59 5.26 -30.18 16.16 -10.13 14.41 -9.15 39.92 1.95 53.16 11.68 13.83 26.48 16.55 40.89 7.59z"/>
  <path d="M1053.53 419.07 c0 -51.41 -0.39 -58.62 -3.12 -59.59 -1.75 -0.58 -11.29 -1.17 -21.42 -1.17 l-18.31 0 0 -10.71 0 -10.71 56.08 0.39 55.89 0.58 0.58 10.32 0.58 10.13 -21.42 0 c-15.77 0 -21.81 0.58 -22.01 2.53 -0.19 1.17 -0.39 27.85 -0.39 58.81 l-0.19 56.47 -13.05 0.58 -13.24 0.58 0 -58.23z"/>
  <path d="M1141.16 407 l0 -70.11 51.02 0.39 51.02 0.58 0.58 10.13 0.58 10.32 -38.56 0.39 -38.36 0.58 0 15.58 0 15.58 34.66 0.58 34.47 0.39 0 10.71 c0 8.96 -0.58 10.71 -4.28 11.88 -2.34 0.58 -17.92 0.97 -34.47 0.58 l-30.38 -0.78 0 19.47 0 19.47 39.53 0.58 39.53 0.39 -0.58 11.29 -0.58 11.10 -51.99 0.58 -52.19 0.39 0 -70.11z"/>
  <path d="M1306.29 474.38 c-16.75 -6.43 -25.51 -15.19 -34.27 -33.69 -4.87 -10.32 -5.26 -13.24 -5.26 -34.66 0 -21.62 0.39 -24.34 5.45 -35.25 10.71 -22.98 31.55 -36.42 56.67 -36.61 25.32 0 42.65 9.35 52.77 28.82 5.65 11.10 5.65 10.91 -10.52 14.99 -8.57 2.14 -10.71 2.14 -11.49 0.19 -1.56 -4.67 -10.52 -14.22 -16.16 -16.94 -6.82 -3.70 -19.47 -3.70 -27.65 -0.19 -8.57 3.51 -18.31 14.99 -21.03 24.93 -1.17 4.67 -1.75 15.77 -1.36 25.12 0.58 13.63 1.75 18.31 6.04 25.51 14.22 24.54 48.49 21.62 59.20 -4.67 1.56 -4.09 3.89 -7.40 4.87 -7.40 4.87 0 22.98 6.23 22.98 7.98 0 4.09 -10.52 22.59 -16.36 28.63 -10.32 11.10 -19.47 14.61 -39.14 15.38 -11.68 0.39 -19.86 -0.39 -24.73 -2.14z"/>
  <path d="M1413.79 407 l0 -70.11 14.41 0 c11.68 0 14.61 0.58 15.58 3.31 3.51 8.76 54.53 89.97 56.08 88.99 0.97 -0.58 1.56 -20.06 1.56 -44.21 0 -23.76 -0.19 -44.40 0 -45.57 0 -1.75 3.70 -2.53 11.68 -2.53 l11.68 0 0 70.11 0 70.30 -13.05 -0.58 -13.05 -0.58 -29.41 -46.74 -29.21 -46.74 -0.58 47.32 -0.39 47.13 -12.66 0 -12.66 0 0 -70.11z"/>
  <path d="M1709.79 407 l0 -70.11 12.66 0 12.66 0 0.39 58.03 0.58 57.84 35.64 0.58 35.64 0.39 -0.58 11.29 -0.58 11.10 -48.10 0.58 -48.29 0.39 0 -70.11z"/>
  <path d="M2020.39 473.41 c-5.45 -1.95 -11.68 -4.48 -13.83 -5.65 -7.01 -3.70 -18.50 -17.92 -23.95 -29.41 -4.48 -9.54 -5.06 -13.24 -5.06 -31.35 0 -18.31 0.58 -21.62 5.45 -32.33 6.62 -14.02 20.25 -28.24 32.52 -33.69 24.93 -11.10 59.98 -7.40 75.75 7.59 4.48 4.48 15.77 21.03 15.77 23.37 0 0.78 -5.06 2.53 -11.10 3.89 -6.23 1.36 -12.46 2.92 -13.63 3.31 -1.36 0.58 -3.31 -1.17 -4.28 -3.51 -4.09 -10.71 -15.58 -17.33 -29.79 -17.33 -29.79 0.19 -48.68 26.48 -42.65 59.59 2.73 14.61 10.32 25.71 21.62 31.55 11.10 5.84 31.16 5.26 45.37 -0.97 l9.15 -4.28 0 -9.74 0 -9.93 -15.58 0 -15.58 0 0 -11.68 0 -11.88 28.82 0.58 28.63 0.58 0 29.21 0 29.21 -9.35 4.28 c-25.32 12.07 -58.62 15.77 -78.28 8.57z"/>
  <path d="M2133.54 471.07 c-0.58 -3.31 -1.17 -34.86 -1.17 -70.11 l0 -64.07 13.63 0 13.63 0 0 70.11 0 70.11 -12.46 0 c-12.27 0 -12.46 0 -13.63 -6.04z"/>
  <path d="M2224.87 473.60 c-26.29 -9.15 -41.87 -34.27 -41.87 -67.77 0 -42.45 25.90 -71.08 64.26 -71.27 16.16 -0.19 26.48 2.73 36.81 10.13 8.76 6.43 20.06 22.39 19.28 27.07 -0.58 3.31 -23.56 10.71 -24.54 7.98 -2.14 -5.84 -10.13 -14.99 -15.97 -17.92 -14.22 -7.21 -32.13 -3.31 -42.26 9.15 -8.18 9.74 -11.10 21.23 -9.93 39.53 1.36 23.95 12.07 39.14 30.18 42.45 14.61 2.73 33.69 -8.96 36.61 -22.59 0.78 -3.12 1.95 -6.23 2.73 -6.62 1.56 -0.97 22.59 5.06 24.54 7.01 2.14 2.14 -9.54 23.76 -16.75 30.96 -14.22 14.22 -41.67 19.28 -63.09 11.88z"/>
  <path d="M2319.32 474.77 c0 -1.17 11.88 -31.94 26.29 -68.16 14.41 -36.22 26.29 -66.79 26.29 -67.96 0 -1.17 5.65 -1.75 14.80 -1.36 l14.99 0.58 9.15 22.39 c5.06 12.27 17.53 42.84 27.85 67.77 10.52 25.12 18.89 46.35 18.89 47.32 0 1.17 -6.04 1.75 -14.02 1.36 l-13.83 -0.58 -6.62 -15.77 -6.82 -15.77 -27.26 -1.17 c-16.75 -0.78 -28.43 -0.58 -29.79 0.58 -1.17 0.97 -4.67 8.96 -7.59 17.53 l-5.45 15.58 -13.44 0 c-8.96 0 -13.44 -0.78 -13.44 -2.34z m73.03 -72.83 c-2.73 -7.21 -4.87 -13.44 -5.06 -14.22 0 -1.17 -5.26 12.85 -8.37 22.78 -1.36 4.09 -0.97 4.28 8.37 4.28 l9.93 0 -4.87 -12.85z"/>
  <path d="M2519.70 409.92 c-0.19 -37 -0.39 -68.35 -0.58 -69.52 -0.19 -1.75 4.09 -2.73 14.41 -2.92 l14.61 -0.58 25.32 43.23 c14.02 23.56 26.87 44.79 28.63 47.13 3.12 3.89 3.31 1.75 3.51 -43.04 l0 -47.32 11.68 0 11.68 0 0 70.11 0 70.30 -13.05 -0.58 -12.85 -0.58 -12.66 -20.45 c-6.82 -11.29 -19.47 -32.13 -28.04 -46.15 -8.57 -14.22 -16.36 -25.90 -17.53 -25.90 -1.17 0 -1.56 18.11 -1.36 46.35 l0.39 46.15 -12.07 0.58 -11.88 0.58 -0.19 -67.38z"/>
  <path d="M2650.37 474.96 c0 -1.17 6.82 -19.28 15.19 -40.51 8.37 -21.03 20.45 -51.61 26.87 -67.77 l11.49 -29.79 14.22 0 c12.85 0 14.22 0.39 15.97 4.48 14.80 35.05 54.53 132.42 54.53 133.78 0 1.17 -6.04 1.95 -14.22 1.95 l-14.02 0 -5.65 -14.99 c-3.12 -8.37 -6.23 -15.77 -6.82 -16.36 -0.58 -0.78 -14.22 -1.75 -29.99 -2.53 -22.20 -0.97 -29.02 -0.58 -29.60 1.17 -0.39 1.36 -3.12 9.35 -6.04 17.72 l-5.26 14.99 -13.24 0 c-8.57 0 -13.44 -0.78 -13.44 -2.14z m73.61 -71.27 c-2.34 -6.23 -4.87 -12.07 -5.65 -12.85 -0.78 -0.97 -2.92 2.92 -4.67 8.76 -1.95 5.65 -3.89 11.49 -4.48 12.85 -0.58 1.56 1.95 2.34 9.15 2.34 l9.74 0 -4.09 -11.10z"/>
  <path d="M2845.11 475.35 c-17.72 -5.84 -30.96 -17.14 -38.17 -32.52 -17.92 -38.17 -5.45 -84.71 27.26 -101.46 13.24 -6.82 38.56 -8.57 53.36 -3.70 11.68 3.89 23.37 14.61 29.02 26.48 2.34 4.87 3.89 8.96 3.70 9.15 -0.19 0.19 -5.65 2.14 -12.27 4.09 l-11.88 3.70 -4.67 -6.82 c-6.62 -10.52 -15.97 -15.97 -26.68 -15.97 -25.51 0.19 -41.28 21.81 -38.75 53.16 2.53 30.18 23.95 48.29 47.13 39.53 10.13 -3.89 16.16 -10.13 19.67 -20.06 2.92 -8.18 3.31 -8.18 19.08 -3.31 10.32 3.31 10.32 4.09 3.12 18.50 -9.93 19.86 -25.51 29.41 -49.46 30.18 -8.57 0.39 -17.72 0 -20.45 -0.97z"/>
  <path d="M2945.78 475.94 c-0.78 -0.78 -1.36 -32.33 -1.36 -70.30 l0 -68.74 13.63 0 13.63 0 -0.39 69.72 -0.58 69.52 -11.68 0.58 c-6.62 0.39 -12.46 0 -13.24 -0.78z"/>
  <path d="M3153.96 466.98 c-1.56 -13.44 -1.56 -109.44 0 -121.13 l1.36 -8.96 13.24 0 c11.68 0 13.63 0.58 15.97 4.48 1.56 2.34 14.02 23.37 27.65 46.74 13.63 23.17 25.51 42.26 26.48 42.26 0.97 0 1.75 -20.06 1.75 -46.74 l0 -46.74 11.68 0 11.68 0 0 70.11 0 70.11 -13.63 0 -13.44 0 -27.85 -46.74 c-15.38 -25.71 -28.43 -46.74 -29.21 -46.74 -0.97 0 -1.56 21.03 -1.56 46.74 l0 46.74 -11.49 0 -11.29 0 -1.36 -10.13z"/>
  <path d="M3283.26 474.96 c0 -1.17 7.40 -20.84 16.36 -43.43 8.96 -22.59 21.03 -53.16 26.68 -67.96 l10.52 -26.68 14.22 0.39 14.41 0.58 8.37 20.45 c4.48 11.29 17.14 42.26 28.04 68.74 10.71 26.68 19.67 48.88 19.67 49.27 0 0.39 -6.43 0.78 -14.22 0.78 l-14.41 0 -6.62 -16.75 -6.62 -16.94 -28.24 0 c-32.13 -0.19 -28.63 -2.14 -37.39 21.03 l-4.48 11.68 -13.24 0.58 c-9.15 0.39 -13.05 -0.19 -13.05 -1.75z m72.44 -74 l-4.87 -13.83 -4.67 12.46 c-2.34 6.62 -4.48 12.85 -4.48 13.83 0 0.78 4.28 1.36 9.54 1.36 l9.35 0 -4.87 -13.83z"/>
  <path d="M3438.27 468.15 c-0.58 -5.06 -1.17 -36.61 -1.17 -70.11 l0 -61.15 13.63 0 13.63 0 0.39 58.03 0.58 57.84 34.66 0.58 34.47 0.39 0 11.68 0 11.68 -47.52 0 -47.32 0 -1.36 -8.96z"/>
  <path d="M1879.79 318.01 c-6.43 -1.17 -5.65 -3.51 4.48 -14.22 8.57 -9.15 9.74 -9.74 18.50 -9.74 5.06 0 9.93 0.97 10.71 2.14 0.58 1.17 -3.51 6.82 -9.15 12.66 -10.52 10.52 -12.66 11.49 -24.54 9.15z"/>
  <path d="M1050.80 225.89 c-11.88 -4.67 -19.28 -11.68 -25.12 -23.17 -4.09 -8.57 -4.28 -11.68 -4.87 -61.93 l-0.58 -53.16 13.63 0 13.63 0 0.58 52.58 0.58 52.58 6.23 6.23 c5.65 5.65 7.79 6.43 19.47 7.01 10.71 0.39 14.41 -0.19 19.67 -3.31 10.32 -6.62 10.91 -10.13 11.29 -64.46 l0.58 -49.66 12.85 -0.58 12.85 -0.58 -0.58 55.11 c-0.58 51.99 -0.78 55.50 -4.87 62.90 -9.15 17.33 -20.25 22.98 -46.35 23.76 -15.77 0.58 -21.23 -0.19 -29.02 -3.31z"/>
  <path d="M1792.94 227.06 c-17.53 -5.06 -29.02 -15.97 -33.69 -32.13 -3.70 -12.27 -2.73 -13.63 10.52 -14.02 4.48 -0.19 9.15 -0.39 10.32 -0.58 1.17 -0.19 3.31 3.12 4.67 7.21 3.31 9.35 6.43 13.05 14.02 16.36 7.59 3.12 24.54 3.31 30.38 0.39 8.18 -4.28 13.05 -10.13 13.05 -15.77 0 -11.88 -5.45 -15.58 -34.08 -22.98 -28.43 -7.40 -41.87 -17.92 -44.79 -34.86 -4.67 -27.26 19.86 -46.93 55.50 -44.40 22.20 1.36 35.05 9.15 41.87 25.12 5.06 12.27 4.09 14.41 -6.04 15.97 -14.61 1.95 -16.16 1.56 -17.53 -3.70 -0.58 -2.73 -3.89 -7.01 -7.01 -9.74 -4.87 -4.09 -7.79 -4.87 -18.50 -4.87 -11.29 0 -13.05 0.58 -18.31 5.65 -11.10 11.10 -5.84 17.72 19.67 24.54 33.49 9.15 43.23 14.02 51.41 24.93 3.31 4.48 4.09 8.37 4.09 20.84 0 13.83 -0.58 15.97 -5.84 23.76 -8.96 12.66 -23.56 19.28 -44.01 20.25 -10.32 0.39 -19.86 -0.39 -25.71 -1.95z"/>
  <path d="M1162.58 157.74 l0 -70.11 14.22 0.19 14.02 0 27.26 45.76 c14.99 25.32 27.85 46.35 28.82 46.74 0.78 0.58 1.36 -20.06 1.36 -45.76 l0 -46.93 12.66 0 12.66 0 0 70.11 0 70.11 -13.44 0 -13.63 0 -16.75 -27.65 c-9.35 -15.38 -22.39 -36.61 -29.02 -47.13 l-11.88 -19.28 -1.36 10.52 c-0.58 5.84 -1.17 26.87 -1.36 47.13 l-0.19 36.42 -11.68 0 -11.68 0 0 -70.11z"/>
  <path d="M1303.57 216.94 c-0.97 -7.98 0 -125.61 0.97 -128.72 0.19 -0.39 5.84 -0.58 12.85 -0.58 l12.66 0 0 70.11 0 70.11 -12.46 0 -12.66 0 -1.36 -10.91z"/>
  <path d="M1392.17 222.58 c-2.53 -6.43 -25.12 -69.33 -38.95 -108.08 l-9.35 -26.87 14.02 0 14.22 0 18.11 53.75 c11.10 32.33 18.89 52.58 19.86 51.02 0.78 -1.36 8.96 -25.51 18.31 -53.55 l16.75 -51.22 13.83 0 c10.13 0 13.44 0.58 12.85 2.53 -0.58 1.17 -11.68 32.72 -24.93 70.11 l-23.95 67.57 -14.41 0 c-13.83 0 -14.41 -0.19 -16.36 -5.26z"/>
  <path d="M1489.74 157.74 l0 -70.11 51.61 0 51.61 0 0 10.71 0 10.71 -38.36 0.39 -38.56 0.58 0 15.58 0 15.58 35.64 0.58 35.64 0.39 -0.58 11.29 -0.58 11.10 -35.05 0 -35.05 0 -0.58 20.06 -0.58 19.86 40.12 0 39.92 0 0 11.68 0 11.68 -52.58 0 -52.58 0 0 -70.11z"/>
  <path d="M1620.21 157.74 l0 -70.11 39.53 0 c22.39 0 42.65 0.97 47.13 2.14 20.84 5.65 31.94 25.32 26.29 46.15 -2.73 10.71 -13.63 22.78 -22.98 25.90 -3.89 1.17 -7.79 2.53 -8.37 2.92 -0.78 0.39 1.56 3.70 5.06 7.40 6.04 6.43 37.97 52.38 37.97 54.53 0 0.58 -7.40 1.17 -16.55 1.17 l-16.55 0 -15.77 -23.76 c-22.78 -34.27 -23.17 -34.66 -38.17 -34.66 l-12.27 0 0 29.21 0 29.21 -12.66 0 -12.66 0 0 -70.11z m73.81 -22.59 c7.40 -6.04 7.59 -8.37 0.97 -14.61 -4.48 -4.28 -6.62 -4.67 -23.76 -4.67 l-18.89 0 -0.58 9.54 c-0.97 14.80 -0.78 14.80 18.89 14.80 15.97 0 17.92 -0.39 23.37 -5.06z"/>
  <path d="M1894.79 157.74 l0 -70.11 12.66 0 12.66 0 0.39 59.39 c0.19 32.72 0.39 64.07 0.58 69.72 l0 10.13 -13.05 0.58 -13.24 0.58 0 -70.30z"/>
  <path d="M1948.73 220.64 c-0.78 -4.09 -1.36 -35.64 -1.36 -70.11 l0 -62.90 34.66 0 c40.51 0 50.83 2.14 62.90 13.05 15.19 13.63 22.59 37 20.64 64.46 -1.95 28.24 -12.46 46.54 -32.13 56.28 -10.71 5.26 -12.27 5.45 -47.32 6.04 l-36.22 0.78 -1.17 -7.59z m66.99 -26.48 c20.25 -13.44 21.62 -55.50 2.14 -71.86 -6.23 -5.26 -21.23 -8.57 -31.74 -7.01 l-4.67 0.58 -0.58 38.95 c-0.19 21.42 0 39.92 0.39 41.28 0.78 1.75 5.45 2.53 14.41 2.53 10.71 0 14.80 -0.97 20.06 -4.48z"/>
  <path d="M2077.84 226.09 c0 -0.97 8.37 -22.98 18.69 -49.07 10.32 -26.09 22.20 -57.06 26.68 -68.55 l8.18 -21.03 14.61 0.58 14.61 0.58 27.65 69.13 c15.38 37.97 27.85 69.33 27.85 69.72 0 0.19 -6.62 0.39 -14.80 0 l-14.80 -0.58 -6.04 -16.55 -6.23 -16.55 -29.02 0 -29.02 0 -6.04 17.14 -6.04 16.94 -13.05 0 c-7.40 0 -13.24 -0.78 -13.24 -1.75z m73.03 -73.22 c-2.73 -7.01 -4.87 -13.44 -5.06 -14.22 0 -1.17 -5.06 12.07 -8.37 22.59 -1.36 4.09 -0.97 4.28 8.37 4.28 l9.74 0 -4.67 -12.66z"/>
  <path d="M2231.68 157.93 l0 -70.30 35.05 0 c30.77 0 36.22 0.58 45.76 4.09 14.80 5.45 22.59 12.85 29.41 27.46 5.45 11.68 5.65 13.63 5.65 38.56 -0.19 22.59 -0.78 27.65 -4.28 35.44 -6.04 12.85 -16.55 23.76 -28.43 29.02 -9.15 4.09 -13.44 4.67 -46.54 5.26 l-36.61 0.78 0 -70.30z m62.90 37.97 c8.37 -3.51 16.36 -13.05 19.08 -23.17 3.12 -11.49 0.97 -30.96 -4.48 -40.89 -6.04 -10.91 -14.41 -15.38 -30.96 -16.55 l-13.44 -0.97 0 42.26 0 42.06 11.68 0 c6.43 0 14.61 -1.17 18.11 -2.73z"/>
 </g>
 <g fill="#ffffff">
  <path d="M2404.03 965.51 c2.53 -6.82 7.98 -21.23 12.27 -32.33 4.09 -10.91 7.98 -20.45 8.57 -21.03 0.58 -0.39 6.62 12.85 13.24 29.79 6.62 16.94 12.46 31.94 13.05 33.30 0.78 1.75 -5.06 2.34 -25.32 2.34 l-26.48 0 4.67 -12.07z"/>
  <path d="M1049.63 924.22 l0 -22.59 23.95 0 c27.26 0 31.94 1.56 37.19 12.27 4.67 9.54 2.92 18.31 -4.87 25.90 -5.84 5.65 -6.23 5.65 -31.16 6.23 l-25.12 0.78 0 -22.59z"/>
  <path d="M2902.55 755.77 c-17.53 -4.87 -31.16 -16.16 -38.17 -31.94 -6.43 -14.02 -6.62 -40.89 -0.58 -54.14 19.28 -41.67 80.23 -43.82 102.82 -3.70 5.65 9.93 6.04 12.07 6.04 29.21 0 15.19 -0.78 20.25 -4.48 28.43 -5.65 12.27 -15.97 22.59 -28.04 28.04 -10.13 4.48 -28.82 6.43 -37.58 4.09z"/>
  <path d="M2071.03 753.44 c-0.58 -1.56 -0.78 -27.65 -0.58 -58.23 l0.58 -55.50 14.41 -0.58 c18.11 -0.78 39.14 2.34 48.68 7.21 9.54 4.87 20.45 17.14 23.76 26.68 4.48 12.46 3.51 37 -1.95 48.88 -6.04 13.44 -18.50 24.73 -31.74 28.82 -14.80 4.48 -51.80 6.43 -53.16 2.73z"/>
  <path d="M1184.58 715.27 c3.12 -11.10 24.15 -62.12 25.51 -62.51 1.56 -0.58 26.48 59.59 26.48 64.07 0 0.97 -11.88 1.75 -26.48 1.75 -24.34 0 -26.48 -0.19 -25.51 -3.31z"/>
  <path d="M1911.73 717.22 c-0.58 -1.17 17.14 -50.24 24.54 -67.77 0.58 -0.97 1.56 -0.19 2.34 1.95 1.56 4.28 23.95 60.76 25.71 64.85 0.78 1.75 -5.06 2.34 -25.32 2.34 -14.61 0 -26.87 -0.58 -27.26 -1.36z"/>
  <path d="M3263.79 716.24 c0 -3.31 24.15 -67.77 25.32 -67.77 0.58 0 4.67 10.32 9.35 22.98 4.67 12.46 10.52 28.24 13.24 35.05 l4.67 12.07 -26.29 0 c-19.67 0 -26.29 -0.58 -26.29 -2.34z"/>
  <path d="M2315.03 686.25 c-0.97 -0.78 -1.56 -11.88 -1.56 -24.54 l0 -22.98 19.08 0 c31.94 0 42.26 5.65 42.26 23.37 0 10.71 -3.89 16.36 -14.61 20.84 -7.40 3.31 -43.04 5.84 -45.18 3.31z"/>
  <path d="M1599.18 449.65 c-15.38 -7.59 -22.78 -24.54 -21.42 -48.49 1.56 -25.71 13.44 -39.92 35.25 -42.26 19.67 -1.95 33.49 6.23 40.12 23.95 6.82 18.11 5.06 41.67 -4.28 55.50 -9.93 14.80 -32.13 19.86 -49.66 11.29z"/>
  <path d="M1872.39 450.43 c-15.58 -8.18 -22.39 -21.62 -22.39 -44.59 0 -29.02 13.24 -45.76 37.78 -47.13 24.73 -1.36 39.92 14.02 41.67 42.06 1.36 24.34 -5.06 40.12 -20.06 48.49 -9.54 5.45 -28.04 6.04 -37 1.17z"/>
  <path d="M3044.71 450.43 c-13.63 -7.21 -19.08 -14.99 -22.20 -32.72 -4.28 -23.95 3.70 -45.37 20.25 -55.11 6.43 -3.70 10.13 -4.28 20.84 -3.89 11.10 0.58 14.22 1.56 20.45 6.62 11.68 9.35 17.14 22.01 17.14 40.70 0 13.44 -0.78 17.14 -5.84 27.26 -4.67 9.15 -7.59 12.46 -14.41 15.97 -10.32 5.26 -27.26 5.84 -36.22 1.17z"/>
  <path d="M2368 419.07 c0 -2.14 17.14 -49.46 18.50 -50.63 0.97 -0.97 2.14 1.75 11.88 28.43 3.70 9.93 6.62 19.47 6.62 20.84 0 2.34 -3.70 2.92 -18.50 2.92 -10.13 0 -18.50 -0.78 -18.50 -1.56z"/>
  <path d="M2699.05 419.46 c0 -4.28 18.31 -51.41 19.47 -50.05 1.95 2.34 17.53 44.98 17.53 48.29 0 2.34 -3.51 2.92 -18.50 2.92 -10.13 0 -18.50 -0.58 -18.50 -1.17z"/>
  <path d="M3331.95 418.88 c0 -4.67 18.11 -50.83 19.47 -49.46 1.95 2.14 17.53 45.76 17.53 48.88 0 1.75 -5.06 2.34 -18.50 2.34 -10.13 0 -18.50 -0.78 -18.50 -1.75z"/>
  <path d="M1975.41 201.94 c-0.39 -1.36 -0.58 -22.59 -0.39 -47.13 l0.58 -44.79 10.71 -0.58 c18.89 -1.17 30.57 1.17 37.97 7.59 9.54 8.57 13.63 20.64 13.63 41.67 0 14.80 -0.78 19.08 -4.87 27.26 -7.59 15.19 -14.22 18.50 -37.39 18.50 -13.83 0 -19.47 -0.78 -20.25 -2.53z"/>
  <path d="M2258.95 156.57 l0 -47.91 19.08 0.78 c22.59 0.78 30.18 4.28 37.19 16.94 3.70 6.62 4.87 12.27 5.65 26.29 0.97 20.64 -1.36 31.55 -8.76 40.31 -7.59 8.96 -15.38 11.49 -35.64 11.49 l-17.53 0 0 -47.91z"/>
  <path d="M2126.53 169.81 c0 -2.14 17.14 -49.46 18.50 -50.63 0.39 -0.58 1.75 1.56 2.92 4.48 9.15 24.15 17.53 46.54 17.53 47.13 0 0.39 -8.76 0.58 -19.47 0.58 -10.71 0 -19.47 -0.78 -19.47 -1.56z"/>
  <path d="M1646.31 143.52 c-0.58 -1.56 -0.78 -9.54 -0.39 -18.11 l0.58 -15.38 24.73 0 c23.37 0 24.93 0.19 29.60 4.67 7.59 7.21 7.21 19.47 -0.97 26.29 -5.65 4.87 -7.01 5.06 -29.21 5.06 -17.72 0 -23.56 -0.58 -24.34 -2.53z"/>
 </g>
</svg>