<?xml version="1.0" encoding="utf-8"?>
<!DOCTYPE svg PUBLIC "-//W3C//DTD SVG 1.0//EN" "http://www.w3.org/TR/2001/REC-SVG-20010904/DTD/svg10.dtd">
<svg version="1.0" xmlns="http://www.w3.org/2000/svg" width="4000px" height="4000px" viewBox="0 0 4000 4000" preserveAspectRatio="xMidYMid meet">
 <g fill="#a3a6aa">
  <path d="M655.80 3027.60 c0 -68.60 -0.20 -186.20 -0.40 -261.60 l-0.40 -137 -7.40 -0.60 c-5.60 -0.40 -7.60 -1.60 -7.60 -4 0 -2.60 4.60 -4.80 18.60 -9.20 10 -3 21.20 -6.80 24.80 -8.40 3.40 -1.60 7.40 -2.80 8.80 -2.80 5 0 76.80 -18.40 78.80 -20.20 1 -1 3.20 -1.80 5 -1.80 5 0 38.40 -9.40 81 -23 22 -7 45.40 -14.20 52 -16 6.60 -1.80 15.20 -4.60 19 -6.20 3.80 -1.40 12 -3.60 18 -4.60 21.40 -3.60 35.20 -6.80 44.20 -10.40 5 -2 12.60 -4.60 17 -5.60 12.60 -3 52.20 -13.40 72.80 -19 25.60 -7 40.60 -11 55 -14.60 6.60 -1.60 15.20 -4.20 19 -5.60 10.80 -3.80 19.60 -6.20 36 -10 8.20 -1.80 16.80 -4.20 19 -5.20 2.20 -1 9 -3.20 15 -4.60 6 -1.40 18.20 -4.60 27 -7.20 8.80 -2.40 21.40 -5.80 28 -7.40 6.60 -1.60 13.60 -3.80 15.40 -4.80 2 -1 5 -1.80 6.60 -1.80 1.60 0 4.60 -0.80 6.60 -2 5.40 -3 59.60 -19 81.40 -24 10.80 -2.40 23 -2.40 23 0 0 1.20 -0.80 2 -2 2 -1.20 0 -2 6.40 -2 15 0 12 0.60 15 3 15 1.60 0 3 1.40 3 3 0 1.80 -1.80 3 -4.80 3 -2.80 0 -5.40 0.80 -6 1.80 -0.60 0.80 -4.60 2.20 -9 3 -4.20 0.60 -14.40 3.80 -22.40 7.20 -8.20 3.20 -17.60 6 -21 6 -5.40 0 -22 6 -33.20 12.20 -2 1 -5.20 1.80 -7.40 1.80 -4.60 0 -28.80 7.20 -37.60 11.20 -3.40 1.60 -8.60 2.80 -11.60 2.80 -2.80 0 -10 2.20 -15.80 4.80 -6 2.80 -14.20 5.60 -18.40 6.20 -4.40 0.80 -16.60 4.40 -27.40 8.20 -10.80 3.80 -21.60 6.80 -24 6.80 -6 0 -27.40 6.60 -27.40 8.40 0 0.80 -3.40 1.60 -7.60 1.60 -4 0 -16.40 2.40 -27.40 5.20 -11 2.80 -24.20 6 -29.40 6.80 -9.60 1.80 -28 7.20 -34 10.20 -2 1 -6.40 1.80 -10 1.80 -3.60 0 -13.20 2.20 -21.20 5 -8.20 2.80 -16.80 5 -19.20 5 -4.60 0 -28.80 7.60 -32.20 10 -1 0.80 -6.40 2.20 -11.80 3 -5.60 0.80 -15.40 3.80 -22 7 -6.80 3 -13.80 6 -15.60 6.60 -2 0.80 -3.60 2.20 -3.60 3.40 0 1 -1 2 -2.20 2 -4 0 -17.80 15.80 -17.80 20.60 0 13.20 10.40 29.40 18.80 29.40 5.80 0 31.40 -6 36.20 -8.60 2.20 -1.20 7.20 -2.80 11 -3.60 9.40 -2 30.20 -7.60 34 -9.20 3.40 -1.40 18.20 -5.20 41 -10.40 30.60 -7.20 44 -10.80 49.40 -13.40 2.80 -1.60 6.60 -2.80 8.20 -2.80 1.60 0 6.80 -1.80 11.60 -4 4.80 -2.20 12.20 -4 16.40 -4 4 0 7.40 -0.80 7.40 -2 0 -1 1.20 -2 2.60 -2 3.20 0 34.80 -9.80 42.80 -13.20 3.40 -1.60 7.80 -2.80 9.60 -2.80 1.80 0 9.80 -2.20 17.80 -5 19 -6.60 44.40 -13 51.40 -13 3 0 6.20 -0.80 6.80 -2 0.60 -1 3 -2 5 -2 2.20 0 9.60 -1.80 16.40 -3.80 20.40 -6.20 58 -16 66.60 -17.20 4.40 -0.80 9.80 -2 12 -3 9.20 -4 23.60 -8 29 -8 3.20 0 6.40 -0.80 7 -2 1.40 -2.40 17 -2.80 17 -0.40 0 0.80 -1 2.60 -2.20 3.80 -1.60 1.60 -2.40 95 -3.20 318.40 l-1.20 316.20 -374.80 0 -374.60 0 -0.20 -124.40z"/>
  <path d="M1511.60 2822.60 l-0.60 -329.60 -5.40 -0.60 c-13.20 -1.60 -2.40 -12.40 12.40 -12.40 2.80 0 7 -1.40 9.20 -3 2 -1.60 5.80 -3 8.20 -3 2.40 0 9 -1.80 14.60 -4 5.60 -2.20 12.40 -4 15.20 -4 2.60 0 6.40 -0.80 8.40 -1.80 4.80 -2.40 35.40 -11.40 48.40 -14.40 6 -1.20 14.40 -4 18.40 -6 4.20 -2.20 10.40 -3.80 14.20 -3.80 3.60 0 7.40 -0.80 8.60 -1.80 2.20 -2 29.20 -10.20 33.80 -10.20 1.80 0 6.20 -1.40 9.60 -3 6.40 -2.80 27.60 -8.80 66.40 -18.60 11 -2.80 21.80 -5.60 24 -6.40 24.60 -9.40 50.60 -12.40 49.40 -5.80 -0.60 4.80 41.20 5.80 244.20 5.80 l175.40 0 0 376 0 376 -377 0 -377 0 -0.40 -329.40z"/>
  <path d="M634 2564 c0 -1.20 4.20 -4 9.60 -6.60 l9.40 -4.40 1.20 -32 c0.80 -17.60 1.40 -48 1.60 -67.40 0.20 -36.40 0.20 -36.80 -7.20 -35.80 -1.40 0.20 -2.60 -1.40 -2.60 -3.40 0 -5 21.40 -18.40 29.60 -18.40 3.60 0 9.20 2.60 14.60 6.60 21 16 39.60 24.20 59.40 26.60 12.40 1.40 50.40 -2.20 56.20 -5.20 1.80 -1 6.80 -2.60 11.20 -3.80 20.60 -5 29.80 -8.40 45.40 -16.20 9 -4.60 19 -10.20 22 -12.20 6 -4.40 18 -5.40 14 -1.40 -7.60 7.60 -8 7.60 151.60 7.60 152.60 0 154 0 154 4 0 3.40 -1.40 4 -8 4 -4.40 0 -8 1 -8 2 0 1.20 -3.20 2 -7 2 -4 0 -16.80 3 -28.60 6.80 -31.60 10 -56 17.40 -68 20.20 -5.80 1.40 -13.60 4.60 -17.60 6.80 -3.80 2.40 -9.40 4.20 -12.20 4.20 -8.60 0 -66.60 17.80 -66.60 20.40 0 0.80 -2.60 1.60 -5.80 1.60 -6.60 0 -19 3.60 -88.20 26 -6 2 -16.40 4.80 -23 6 -6.60 1.40 -16 3.60 -21 5.20 -14.40 4.40 -73.40 18.80 -77.20 18.80 -1.80 0 -6 1.20 -9.40 2.80 -5.80 2.60 -38.20 10.80 -71.40 18 -16.40 3.60 -26.80 7.60 -31.40 11.60 -7.20 6.60 -26.60 10.60 -26.60 5.60z"/>
  <path d="M2996.40 2424.60 c0.60 -7.20 1 -7.60 7.60 -8.20 6.80 -0.60 7 -0.40 7 7 0 7.40 -0.20 7.60 -7.60 8.20 l-7.60 0.60 0.60 -7.60z"/>
  <path d="M1498 2421.80 c0 -1 3.20 -3.40 7 -5 6.20 -2.40 7 -3.80 7 -9.80 l0 -7 19 0 c17.60 0 19 0.20 19 4 0 2.20 -1.40 4 -3 4 -1.80 0 -5.20 1.20 -7.60 2.80 -2.40 1.60 -9.60 3.40 -15.80 4.20 -9.60 1 -11.60 2 -11.60 5.20 0 3 -1.40 3.80 -7 3.80 -3.80 0 -7 -1 -7 -2.20z"/>
  <path d="M582 2402.80 c0 -1.80 8.20 -8.80 10.40 -8.80 0.80 0 1.60 2.20 1.60 5 0 4.20 -1 5 -6 5 -3.20 0 -6 -0.60 -6 -1.20z"/>
  <path d="M784 2376 c0 -3.60 1.40 -4 13 -4 11.60 0 13 0.40 13 4 0 3.60 -1.40 4 -13 4 -11.60 0 -13 -0.40 -13 -4z"/>
  <path d="M2948 2356.60 c0 -6.80 2.40 -12.60 5.20 -12.60 2 0 2.80 2.60 2.80 8 0 6.60 -0.60 8 -4 8 -2.40 0 -4 -1.40 -4 -3.40z"/>
  <path d="M1536 2309.20 c0 -1.60 3.80 -3.60 8.80 -5 12 -3 13.20 -2.80 13.20 1.60 0 2.60 -2 4 -6.20 5 -10.20 2 -15.80 1.40 -15.80 -1.60z"/>
  <path d="M3054.80 2302.80 c-1.80 -7.40 0.20 -22.40 7 -48.80 13.40 -52.40 29.20 -93.80 57.40 -150.40 25.60 -51.40 24.60 -52.80 25.20 36.80 0.40 57.60 1.20 71.80 3 69.60 1.40 -1.60 4.80 -5.60 7.40 -9 l5 -6 0.20 7.60 c0 5.20 -0.80 7.40 -3 7.40 -1.60 0 -3 1.80 -3 3.80 0 2.20 -0.80 4.20 -1.60 4.60 -0.80 0.40 -4.20 4.20 -7.40 8.60 -25.80 35.20 -62.80 75.40 -72.40 79.20 -2.60 1 -7.40 1.80 -10.60 1.80 -4.60 0 -6.20 -1 -7.20 -5.20z"/>
  <path d="M683.40 2301.80 c1.60 -5.80 -2.40 -7.80 -15.80 -7.80 l-11.60 0 -0.20 -13.40 c0 -7.60 0 -21.60 0.20 -31.20 0.20 -16.40 0 -17.80 -3.80 -18.80 -2.40 -0.60 -4.20 -2.40 -4.20 -3.80 0 -2.20 3.40 -2.80 14.60 -2.80 13.20 0 15 0.60 20.80 5.60 8 7.40 11.60 14.60 14.60 29.20 4.20 20 -2.40 47.20 -11.40 47.20 -3.40 0 -4 -0.80 -3.20 -4.20z"/>
  <path d="M914 2304.20 c0 -1 1.40 -2.20 3 -3 1.60 -0.60 3 -2 3 -3.20 0 -1.40 -22.40 -2 -67 -2 -43.40 0 -67 0.80 -67 2 0 1.20 -0.80 2 -2 2 -2.80 0 -2.40 -8.60 0.80 -17.40 4.80 -13 5.40 -20.80 2.20 -30.80 -3.80 -11.20 -8 -15.60 -11.40 -12.20 -1.40 1.40 -8 2.40 -15 2.40 -11.60 0 -12.60 -0.40 -15.20 -5.40 -1.60 -3.20 -3.40 -9 -4.20 -13.40 -2.20 -11.40 -11 -29 -18.60 -36.60 -13.60 -13.60 -32 -19 -55.60 -16.40 -19 2.20 -23 2.20 -23 -0.20 0 -1 2.60 -3.20 6 -5 l6 -3 0 -309.40 c0 -170 0.20 -309.40 0.40 -309.80 0.40 -0.20 169.40 -0.80 375.60 -1 l375 -0.60 0.60 258.40 c0.40 268.20 0.20 263.80 8 256 1.80 -1.80 2.40 -1.20 2.40 3.20 0 4.60 -4.40 10 -22.40 28 -36.80 36.40 -56 52.60 -113.60 96 -44.40 33.60 -60.20 46.80 -67.20 56 -11 14.60 -98 67.20 -111.20 67.20 -6 0 -7.60 -2.80 -2.60 -4.80 1.60 -0.60 3 -2 3 -3.20 0 -1.20 -17 -2 -50.20 -2 -49.20 0 -50.20 0 -49.20 4 0.80 3.20 0 4 -3.60 4 -3.40 0 -5.20 -2 -7.80 -8.60 -8.40 -22 1.40 -62.40 26.40 -109.40 18.20 -34 21.60 -36 61.60 -38.20 39.60 -2 45.60 -5.60 47.40 -28.20 0.80 -11.40 2.40 -15.80 10.20 -29 5 -8.40 9.20 -17.40 9.20 -19.60 0 -6.80 -16.80 -19 -26 -19 -2.20 0 -12 3.80 -21.40 8.20 -14.40 6.80 -20.40 11.40 -35.60 26.60 -10 10 -22.60 21.60 -28 25.80 -32.40 25.20 -61.80 60.40 -78.60 94.40 -14 28.20 -26.40 69.60 -26.40 88 0 3.40 -1 7.20 -2.40 8.60 -2.80 2.80 -15.60 3.20 -15.60 0.60z"/>
  <path d="M1936 2304.20 c0 -1 1.40 -2.20 3 -3 6.80 -2.60 2.40 -5.20 -9 -5.20 -11.40 0 -12 -0.20 -12 -5 0 -3.40 1 -5 3.60 -5 2 0 4.40 -0.80 5.60 -2 1 -1 7.80 -2.60 14.80 -3.40 7 -0.60 15 -2.40 18 -4 2.80 -1.40 7 -2.60 9.60 -2.60 2.40 0 6 -0.80 8 -2 2.80 -1.40 42 -9 70.40 -13.40 3.80 -0.60 8 -1.80 9 -2.80 3.20 -2.40 35.60 -9.20 52 -11 7.60 -0.80 16.80 -2.60 20.60 -4.20 3.60 -1.40 13.60 -3.60 22 -4.40 19.80 -2.40 42.60 -5.80 55.40 -8.60 5.60 -1 21 -2.40 34.60 -3 l24.40 -1.20 0 7.40 c0 6.40 -0.60 7.20 -4.80 7.20 -2.80 0 -5.60 1 -6.20 2 -0.60 1.20 -5.60 2 -10.80 2 -5.20 0 -14 1.20 -19.40 2.80 -5.40 1.60 -16.80 4 -25.60 5 -8.60 1.20 -18.40 3.60 -22 5 -3.40 1.60 -13.20 3.20 -21.80 3.60 -8.60 0.40 -16.20 1.60 -17 3 -0.80 1.20 -5 2.60 -9.40 3.20 -4.40 0.80 -14.20 2.20 -22 3.20 -7.60 1.20 -17.60 3 -22 4.20 -4.40 1.20 -13.40 3 -20 4 -16.20 2.20 -31.60 6 -33.80 8.20 -1.20 1 -5.80 1.80 -10.60 1.80 -4.80 0 -12 1.40 -16 3 -3.80 1.60 -9.20 3 -11.60 3 -2.40 0 -5.60 1.40 -7 3 -1.80 2.20 -5.80 3 -13.20 2.80 -10.20 -0.40 -22.80 3 -22.80 6.40 0 1 -3.20 1.80 -7 1.80 -3.80 0 -7 -0.80 -7 -1.80z"/>
  <path d="M2960 2301.40 l0 -4.80 -46.40 -1.20 c-25.60 -0.80 -154.20 -1.40 -285.60 -1.40 l-239.20 0 0.80 -7.20 c0.80 -5.80 0.20 -7.20 -3.40 -8.20 -4.60 -1.20 -5.60 -5.20 -1.60 -8 3.80 -3 18.20 -6.60 26.60 -6.60 4.40 -0.20 11.40 -1.40 15.80 -3 4.40 -1.60 13.80 -3.60 21 -4.20 7.20 -0.80 14.60 -2.20 16.40 -3.20 2 -1 12.60 -2.20 23.80 -2.60 11.20 -0.60 21.60 -2 23 -3.20 2 -1.60 8.60 -1.80 22 -0.80 15.40 1.20 19.60 0.80 22.40 -1.60 2.40 -2 10.20 -3.20 27.40 -3.80 19 -0.80 27.20 -2.20 39.20 -6.40 8.20 -2.80 16.80 -5.20 19 -5.20 2 0 6 -1.40 8.80 -3 2.80 -1.60 7.60 -4 10.80 -5.20 l5.80 -2.40 -4.40 -3.80 c-2.60 -2 -6.20 -3.60 -8 -3.60 -1.80 0 -5.40 -1.20 -8.20 -2.60 -2.80 -1.40 -11.80 -3.80 -20 -5.20 -8.20 -1.40 -17.20 -3 -20 -3.60 -9.80 -2.40 -71.20 -2.80 -84 -0.80 -7.20 1.20 -29.20 4 -49 6.20 -31.40 3.60 -48.20 6 -81.80 11.40 l-7.60 1.20 3 -4.80 c2.80 -4.20 3 -15 2.80 -80.80 l-0.40 -76 -4.40 -0.60 c-5.20 -0.80 -6.60 -8.40 -1.40 -8.40 8.60 0 69.20 -34.60 81.80 -46.60 1.40 -1.40 6 -5 10.20 -8.40 12.80 -10 34.80 -33 51.20 -53.40 8.60 -10.60 18 -21.20 21 -23.60 10 -7.80 42.80 -40.40 52.80 -52.40 5.20 -6.40 12 -15.80 15 -21.20 13.20 -23.20 14.20 -24.40 22.60 -24.40 l7.60 0 1.20 20.60 c2 37.40 15 61.20 44.20 81.20 18.40 12.80 27.20 15 59.20 15.20 25.40 0 30.80 -0.60 43 -4.80 7.80 -2.60 19.40 -6.40 26 -8.60 28.80 -9.20 84.40 -35.20 119 -55.20 18.60 -10.80 48.20 -32.80 57.80 -43.20 3.60 -3.80 6.80 -5.20 12.40 -5.20 7 0 8.20 0.80 14.60 10.80 22.60 35.20 50 47.20 98.80 42.80 13.60 -1.20 25.20 -1.40 26 -0.60 0.80 0.80 0.20 2 -1 2.40 -3.40 1.20 -3.80 66.60 -0.60 66.60 1.20 0 2.60 -1.40 3.20 -3 2 -5 4.80 -3.40 4.80 2.60 0 8 -30.60 65 -70.20 130.40 -55 91 -103.80 188 -114.20 227 -1.80 6.40 -3.40 9 -6 9 -2.40 0 -3.60 -1.60 -3.60 -4.60z"/>
  <path d="M1561.20 2299.80 c2.40 -4 -4 -5.80 -21.60 -5.80 l-17.60 0 -0.40 -59.40 -0.60 -59.60 -4.40 0.20 c-3.60 0 -4.60 -1 -4.60 -4.60 0 -2.60 0.60 -4.60 1.60 -4.60 0.80 0 4.20 -2.60 7.40 -5.60 3.40 -3 14.60 -12.60 25 -21.40 10.40 -8.80 19.40 -16.40 20 -17 3.20 -3.40 43.80 -37.80 48 -40.60 3 -2 8.60 -3.40 14.40 -3.40 l9.60 0 0 11 c0 12.60 -1.60 16.40 -18.20 42.20 -18 27.80 -21 38.80 -14 52.60 13 25.20 40.80 30.80 84.20 17 12.40 -4 28 -9.80 34.60 -13 6.60 -3.20 12.60 -5.80 13.40 -5.80 0.80 0 10.60 -5 21.80 -11 21.40 -11.40 43.60 -26.60 70.80 -48.40 18 -14.40 25.40 -16 34.40 -7.80 10.40 9.60 35.20 19.20 57 22.20 5 0.60 17.20 0.20 27 -0.80 39.20 -4.40 54 -6.60 55.80 -8.40 1.20 -1 3.60 -1.80 5.60 -1.80 10.40 0 73.60 -24.20 97.60 -37.40 36.60 -20 77.20 -51.80 89.40 -70 4.40 -6.60 17.60 -6.60 19.40 0 1.60 6.40 15.40 27.20 23 34.60 8.60 8.40 22 14.80 34 16.20 10.40 1.20 13.80 5.20 6.20 7.20 -3.80 1 -4 2.80 -4 48.20 0 40.60 0.40 47.20 3 47.20 1.60 0 3 1.40 3 3.20 0 2.80 -1.60 3.20 -11 2.20 -6 -0.60 -11 -0.40 -11 0.60 0 0.80 -12.40 1.80 -27.80 2.40 -19 0.40 -28.60 1.40 -30.80 3.40 -2 1.60 -10.60 2.80 -23.60 3.20 -11.60 0.40 -21 1.80 -21.80 3 -0.80 1.20 -7 1.80 -15.20 1.60 -13.40 -0.40 -42.80 3.80 -44.80 6.40 -0.60 0.80 -9 2 -19 2.60 -9.80 0.80 -18.20 2.20 -18.60 3.40 -0.40 1 -5.20 2 -10.60 2 -11.20 0 -38.40 4.20 -39.80 6.20 -0.60 0.80 -10.80 2.20 -22.80 3.40 -12 1.20 -22.40 3 -23 4.20 -0.60 1 -8 2.40 -16.20 3.20 -16.60 1.40 -51.40 7.20 -79 13.20 -9.80 2.20 -30.20 6 -45.20 8.80 -15.20 2.60 -32.60 6.20 -39 7.80 -6.60 1.60 -15.80 3.40 -20.80 4.20 -12.40 1.80 -38.80 9.40 -39.60 11.40 -0.40 0.80 -6.40 1.60 -13.20 1.60 -6.80 0 -13.20 0.80 -14.40 1.80 -1 1 -10.20 3.20 -20.40 5 -10.20 1.60 -20 3.80 -22 4.80 -1.80 1 -9 3 -15.80 4.60 -7 1.40 -12.60 3.40 -12.60 4.20 0 0.80 -4 1.60 -9 1.60 -4.80 0 -15.80 2.20 -24.20 5 -16 5.20 -32.20 6.80 -29.60 2.80z"/>
  <path d="M1200 2292.40 c0 -2 6 -8 14 -14 7.60 -6 22.60 -18.40 33.20 -27.60 10.60 -9.40 21 -17.80 23.20 -19 4 -2.20 45.20 -33.60 68.40 -52.20 8.80 -7.20 13.80 -9.60 18.60 -9.60 6 0 6.60 0.60 6.60 6.20 0 8.40 -10.20 29.60 -29.60 61.60 -10.20 16.60 -16.40 29 -16.40 32.40 0 3.40 2.40 8.40 6 12.40 12 13.80 13.60 13.40 -59 13.40 -60.80 0 -65 -0.20 -65 -3.60z"/>
  <path d="M1352 2292 c0 -2 3.60 -4.60 9.60 -6.60 5.20 -2 16.20 -8 24.40 -13.40 9.80 -6.40 17.20 -10 21 -10 3.40 0 5 0.80 3.80 1.60 -1.20 0.80 -2.80 7.60 -3.20 15 -0.60 7.40 -1.40 14 -1.80 14.20 -0.40 0.40 -12.80 1.20 -27.20 1.60 -23.40 0.60 -26.60 0.40 -26.60 -2.40z"/>
  <path d="M1671 2158 c-5.20 -5.80 -3 -22.80 6 -45 16 -40 18.40 -58 9.80 -76 -11.40 -24.20 -31 -27.80 -64.20 -12.20 -26.40 12.60 -48.40 28.40 -86.40 62.60 -4 3.60 -9 6.60 -11.20 6.60 -3.80 0 -4 -1.20 -3.40 -24 0.60 -20.80 0.40 -24 -2.40 -24 -1.80 0 -3.20 1 -3.20 2 0 1.20 -0.80 2 -2 2 -3.20 0 -2.40 -9.60 1.20 -13.40 4.20 -4.80 19.40 -25.80 33.40 -46 6.20 -9 16 -23 22 -31 5.80 -8 15 -20.80 20.20 -28.60 5.20 -7.60 13.80 -20.20 19.40 -28 5.40 -7.60 12.40 -17.60 15.40 -22 3.20 -4.40 9.20 -13 13.40 -19 56.60 -79.80 98.80 -143.80 112.60 -171 23.40 -46.40 18.80 -63 -20.60 -72 -12.40 -3 -13.80 -3 -18.60 0.20 -10.40 6.80 -16.60 15.60 -29.20 40.40 -7 14 -18.40 35 -25.20 46.40 -6.80 11.60 -14 23.80 -16 27 -11.80 20.80 -66.60 111.20 -77 127 -6.60 10.40 -17.60 27.40 -24 37.40 -8.60 13.20 -13.20 18.60 -16 18.60 -4 0 -4 -1.20 -3.40 -187 l0.40 -187 314.60 0 c172.80 0 342 -0.60 376 -1.40 l61.40 -1.20 0 36 c0 55.40 2 90.60 5.40 90.60 4.40 0 3 7.60 -1.80 10.20 -9 4.60 -13.60 10.40 -13.60 16.80 0 8 7.80 19.80 13.60 20.60 5 0.80 5.80 3.40 1.40 5.20 -2.60 0.80 -3 7.60 -3 42.80 0 23 0.60 42.40 1.40 43 0.60 0.80 2.40 0.40 4 -0.80 2 -1.80 2.60 -1.20 2.40 3.40 0 3.60 -4.60 12.80 -11.80 23.80 -15.80 24 -32.60 53.40 -38.80 67.40 -6.40 14.40 -14.20 42.20 -17.40 61.20 -2.40 14.20 -2.60 14.60 -11.60 20.20 -5.20 3 -17 11.40 -26.20 18.60 -33.20 25.20 -63 42.20 -90 51.60 -7.20 2.40 -14.80 5.20 -17 6 -6.80 3 -38.60 9.60 -76 16 -15.80 2.60 -46.20 2.60 -59 -0.20 -14.20 -3 -22 -11.20 -22 -23 0 -7.80 1 -10 8.60 -17.40 4.60 -4.60 15.60 -12.60 24.40 -17.80 63.60 -36.60 101.20 -88.80 93 -129.20 -2.80 -13.80 -10.80 -29 -18.60 -35.60 -13.60 -11.40 -43.40 -13.80 -67.20 -5.20 -29.40 10.60 -63.80 47.40 -95.20 101.60 -23.80 41.40 -31 65.80 -27.20 94.40 2.60 20.20 2.80 34.40 0.60 37.60 -0.80 1 -10.40 9.20 -21.40 18 -11 8.60 -20.40 16.40 -21 17 -3.60 4.40 -38.40 25.80 -55 33.80 -26.40 13 -35.80 16 -49.20 16 -8.60 0 -12 -1 -14.80 -4z"/>
  <path d="M1448 2147 c0 -5.60 0.80 -7 4 -7 2.40 0 4 1.40 4 3.20 0 2.20 1.20 3 4 2.20 3.20 -0.80 4 0 4 3.80 0 4.20 -0.80 4.80 -8 4.80 -7.80 0 -8 -0.20 -8 -7z"/>
  <path d="M3251.40 2058.20 c0.60 -2.20 2.80 -5.40 4.80 -7.40 3.60 -3.40 3.80 -3.20 3.80 3.80 0 6.40 -0.60 7.40 -4.80 7.40 -3.80 0 -4.60 -0.80 -3.80 -3.80z"/>
  <path d="M2318 2024 c0 -3.60 1.40 -4 14.80 -4 8.20 0 15.60 -0.80 16.20 -2 2.40 -3.80 9 -2.20 9 2 0 3.20 -1.40 4 -6 4 -3.20 0 -6 1 -6 2 0 1.20 -6 2 -14 2 -12.60 0 -14 -0.40 -14 -4z"/>
  <path d="M2383.60 2001.80 l6.40 -6 0 -121.20 c0 -120 0 -121 -4 -120 -10 2.60 -1 -16.80 27.60 -59.40 16.40 -24.20 31.20 -38.20 50.60 -47.60 8.20 -4.20 47.60 -18.20 87.80 -31.60 40.20 -13.20 74.80 -24.80 77 -25.80 5.40 -2 39.60 -13.80 51 -17.20 11.60 -3.60 25.80 -8.60 31 -11 2.20 -1 7.20 -2.60 11 -3.80 8.60 -2.40 23.60 -7.60 29 -10.20 2.20 -1 11 -4.20 19.60 -7 8.40 -3 17.80 -6.60 21 -8.20 6.20 -3.20 16.40 -3.80 16.40 -0.80 0 1.20 -0.80 2 -2 2 -1 0 -2 1.20 -2 2.60 0 4 50.60 5.40 205.40 5.40 l132.60 0 0 9.80 c0 10.60 2.40 14 7 10.20 2.60 -2 3 -1.60 3 3.20 0 4.60 -4 9.60 -20.20 25.80 -18.60 18.40 -40.20 43.80 -51.80 61 -2.60 3.80 -5.40 7.40 -6 8 -1.20 1.20 -6.60 9 -25.20 36 -15.40 22.60 -23 37.60 -30.80 60.80 -3.40 10 -6 14.20 -9.80 16.20 -3 1.40 -13 9.60 -22.20 18 -25.20 22.80 -53.40 40.60 -85 53.20 -48.60 19.40 -113.20 30.40 -140.20 24 -12.60 -3 -23.60 -13.20 -31 -28.80 -7.20 -15.40 -8.80 -28.80 -6 -52 4.20 -36.20 13 -55.60 39 -86.20 7.40 -8.80 14.80 -18.40 16.40 -21.60 4.80 -9.40 4 -20.60 -2 -28.60 -6.80 -8.80 -11.80 -11.40 -21.40 -11.40 -14 0.20 -27.20 9.40 -44.80 31.60 -10.60 13 -30 32 -51 49.40 -19.80 16.60 -18 15 -31.20 30.40 -12.60 14.80 -23 31.80 -35.60 58 -15.40 32.20 -40.80 64.40 -71 90 -10.60 9 -14.20 13.20 -14.20 17 0 6.20 -11.20 17.40 -36 36.40 -18.40 14 -52.80 37.40 -69 46.80 -5.40 3 -10.20 6.40 -10.60 7.20 -0.40 0.80 -4 1.60 -8 1.60 l-7.40 0 6.60 -6.20z"/>
  <path d="M1892.60 1994.40 c1.60 -14.60 10.80 -40.80 17.60 -51 8.20 -12.60 23 -27.40 34.60 -35 13 -8.40 27.40 -9 32.40 -1.40 4.60 7 3 25.20 -3.20 37.80 -5.80 11.40 -29.80 34.40 -51.80 49.20 -11.60 7.80 -16.40 10 -22.80 10 l-8 0 1.20 -9.60z"/>
  <path d="M3298 1992.40 c0 -2.20 7 -10.40 8.80 -10.40 0.60 0 1.20 2.80 1.20 6 0 5 -0.80 6 -5 6 -2.80 0 -5 -0.80 -5 -1.60z"/>
  <path d="M3130.60 1789.60 c-6.40 -3 -12.60 -17.20 -15 -34 -2.60 -18.80 -0.80 -56 3.40 -67.60 4.80 -13.60 16.60 -30 21.80 -30 l4.20 0 -0.60 64 c-0.40 56.40 -0.20 64 2.60 64 1.60 0 3 1.40 3 3 0 3.60 -12.40 4 -19.40 0.60z"/>
  <path d="M2332 1706 c0 -4 -1 -6 -3 -6 -1.60 0 -3 -1.40 -3 -3 0 -2 2.20 -3 7 -3 7 0 7 0 7 9 0 7.60 -0.60 9 -4 9 -3.20 0 -4 -1.40 -4 -6z"/>
  <path d="M3238 1693.60 c0 -6 2.60 -11.60 5.20 -11.60 1.80 0 2.80 2.40 2.80 7 0 5.60 -0.80 7 -4 7 -2.20 0 -4 -1.20 -4 -2.40z"/>
  <path d="M3515 1672 c2 -2.20 5.20 -4 7.40 -4 2.20 0 3.60 1.40 3.60 4 0 3.20 -1.40 4 -7.40 4 -7 0 -7.20 0 -3.60 -4z"/>
  <path d="M2468 1598.60 c0 -5.20 3 -12.80 9 -23.60 5 -8.80 12.20 -22 16.40 -29.40 4.80 -9 8.60 -13.60 11 -13.60 2.20 0 3.60 1.40 3.60 4 0 4 1.40 4 64 4 60.80 0 64 0.20 64 3.60 0 2.40 -2.40 4.60 -6.40 6 -3.60 1.20 -10.20 3.40 -14.60 5.20 -4.40 1.60 -13.80 5.20 -21 7.80 -7.20 2.60 -35.80 13.60 -63.80 24.20 -27.80 10.60 -53.20 19.20 -56.40 19.20 -5.40 0 -5.80 -0.60 -5.80 -7.40z"/>
  <path d="M2390 1567.20 l0 -24.60 16.40 -1.20 c9 -0.60 16.80 -2 17.20 -3.20 1.40 -4.20 4.40 -2.20 4.40 2.80 0 7.40 -29.40 51 -34.20 51 -3.60 0 -3.80 -2 -3.80 -24.80z"/>
  <path d="M2658 1534.80 c0 -0.60 1.20 -2.40 2.80 -4 4.20 -4.20 9.20 -3.40 9.20 1.20 0 3.20 -1.40 4 -6 4 -3.20 0 -6 -0.60 -6 -1.20z"/>
  <path d="M3223 1504 c2 -2.20 5.20 -4 7.40 -4 2.20 0 3.60 1.40 3.60 4 0 3.20 -1.40 4 -7.40 4 -7 0 -7.20 0 -3.60 -4z"/>
  <path d="M2458 1488.40 c0 -2.20 7 -10.40 8.80 -10.40 0.60 0 1.20 2.80 1.20 6 0 5 -0.80 6 -5 6 -2.80 0 -5 -0.80 -5 -1.60z"/>
  <path d="M2487.40 1443.20 c1.40 -6.60 -3.60 -7.20 -54.60 -7.20 l-42.80 0 0 -376 0 -376 376 0 376 0 0 315.60 c0 173.80 0.60 328 1.40 343 1 24.80 1.60 27.40 5 27.40 2.20 0 3.60 1.40 3.60 3.80 0 2.80 -2 4 -7.60 5 -4.40 0.60 -12.60 2.60 -18.60 4.40 -6 1.80 -16.60 4.80 -23.80 7 -7.20 2 -23.40 6.80 -36 10.60 -12.60 3.80 -35.20 10.80 -50 15.20 -32.80 10 -59.60 18.60 -81.20 26.20 -16 5.80 -26.80 7.40 -26.80 4 0 -1 1.40 -2.20 3 -3 1.60 -0.60 3 -2.40 3 -4.20 0 -2.60 -17.20 -3 -155.40 -2.80 -85.60 0.20 -164.80 0.80 -176.20 1.60 -19.60 1.20 -20.40 1 -20.40 -3 0 -4.40 10.40 -21.60 41.80 -68.60 29.60 -44.60 36.80 -60.40 32 -70.80 -2.60 -6 -4.20 -5.60 -19.80 4.40 -26 16.40 -74.80 74.60 -111.40 132.60 -7 11.20 -10.80 15.40 -13.80 15.60 -3.40 0 -4 -1 -3.40 -4.80z m461.60 -126.40 c15.80 -9.40 29 -20.40 31 -25.60 1.20 -3.60 0.40 -4.80 -5.80 -8.20 -12 -6.60 -16.20 -10 -20 -17.40 -11.80 -23.40 -28.80 -29 -42.60 -14.20 -6.60 7.20 -23.60 32.60 -23.80 36 -0.20 1.40 -0.40 3.60 -0.60 4.60 -0.20 2.60 42.60 31.80 47 32 1.60 0 8.40 -3.20 14.80 -7.20z"/>
  <path d="M655.60 1249.60 c-0.40 -102.60 -0.40 -271.80 0 -376 l0.60 -189.60 374.60 0 c311 0 375 0.40 375.80 2.60 0.60 1.60 0.60 170.80 0 376 l-1.20 373.40 -374.60 0 -374.60 0 -0.60 -186.40z"/>
  <path d="M1522 1060 l0 -376 376 0 376 0 0 376 0 376 -376 0 -376 0 0 -376z"/>
  <path d="M3112 1432.20 c0 -4.40 12.40 -8.20 26.20 -8.20 6.80 0 8 0.60 6.20 2.40 -1.40 1.40 -2.40 4 -2.40 6 0 3.20 -1.80 3.60 -15 3.60 -13.40 0 -15 -0.40 -15 -3.80z"/>
  <path d="M3160 1370.80 c0 -2.40 6.80 -6.60 10.60 -6.80 2 0 3.40 1.40 3.40 4 0 3.20 -1.40 4 -7 4 -3.80 0 -7 -0.60 -7 -1.20z"/>
 </g>
 <g fill="#000000">
  <path d="M478 2505.80 c-21.60 -6.20 -31.20 -11.20 -40.60 -20.80 -5.40 -5.40 -11.80 -14 -14.40 -19 -6.20 -12.20 -17 -44.40 -17 -50.40 0 -11.20 14.40 -46.40 28.20 -68.60 8.40 -13.60 34.60 -52 38.80 -56.80 2.40 -2.80 9.40 -11 15.40 -18.20 6 -7.20 19.40 -20.60 29.80 -29.60 10.40 -9.20 24 -21.40 30.40 -27 13.80 -12.20 31 -24 43.40 -29.80 5 -2.20 13.40 -6.20 18.80 -8.80 5.40 -2.60 16.60 -6.20 24.80 -7.80 8.40 -1.80 15.80 -3.60 16.60 -4.20 0.80 -0.40 9.60 -1.20 19.40 -1.80 26.20 -1.20 43.40 4.20 57 17.80 7.60 7.40 16.40 25 18.60 36.40 2.40 13.80 6 18.80 13.40 18.80 3.60 0 7.60 -1 8.80 -2.20 2.80 -2.80 13.80 -3 17.40 0 5.80 5 9.80 21.80 8.40 36 -1.20 10.60 -3.80 18 -14.60 39.20 -7.20 14.20 -14.20 27.80 -15.80 30 -1.60 2.20 -2.80 7.80 -2.80 12.60 0 12.80 7.60 19.40 23.80 21 6.80 0.80 16.40 0.80 21.60 0 24 -3.20 59.80 -24.40 85.20 -50.40 8.60 -8.80 19.40 -18 24 -20.60 6.60 -3.60 8.60 -6 9 -10.60 3.20 -36.80 21 -85.60 42.80 -118 14.60 -21.40 41.40 -49.80 62.60 -66.40 5.40 -4.20 18 -15.80 28 -25.80 15.20 -15.20 21.20 -19.80 35.60 -26.60 20.20 -9.60 32.40 -10.80 45.40 -4 20 10.40 20.60 20 3.60 48.40 -6.60 11.20 -8.20 15.60 -9 27 -1.80 22.60 -7.80 26.20 -47.40 28.20 -32.80 1.80 -40.40 4.40 -49 17 -16 23.40 -34.80 66.40 -39.40 90.20 -3 14.80 -3 18.20 -0.60 25.40 4 12 9.80 19.80 18.80 25.20 7.20 4 10 4.40 27 3.80 15 -0.60 23 -2 37.60 -7.20 36.20 -12.60 115.20 -59.40 127.20 -75.40 7 -9.20 22.80 -22.40 67.20 -56 58.80 -44.40 76 -58.80 117.20 -99.80 43.80 -43.20 87.80 -101 141.80 -185.40 6.40 -10.20 17.40 -27.20 24 -37.60 10.40 -15.80 65.20 -106.20 77 -127 2 -3.20 9.20 -15.40 16 -27 6.80 -11.40 18.40 -32.40 25.40 -46.60 13.40 -26.80 24.20 -40.20 34.40 -42.80 7.60 -1.80 31.80 2.80 43.20 8.40 13.20 6.40 17.20 13.40 17.40 29.60 0 20.80 -10 43.80 -39.40 90.40 -13.80 22 -59.40 88.60 -88 129 -4.20 6 -10.20 14.60 -13.40 19 -3 4.40 -10 14.40 -15.40 22 -5.60 7.80 -14.20 20.40 -19.40 28 -5.20 7.80 -14.40 20.60 -20.20 28.60 -6 8 -15.80 22 -22 31 -16.60 24 -29.40 41.20 -38.40 51.40 -4.40 5 -10.80 13 -14.40 18 -3.40 5 -11 14.80 -16.60 22 -5.80 7.20 -13.20 17.60 -16.60 23.20 -5.20 8.80 -7.60 14.60 -13.60 34.40 -0.60 1.20 0 2.40 1 2.40 2.20 0 35 -29 62.20 -54.80 31 -29.60 49 -44.60 70.40 -58.60 51.60 -33.80 89.40 -35 104.40 -3.20 9.80 20.40 7.40 42.60 -9 85.20 -10.60 27.80 -11.20 30.80 -7 35.40 6.60 7.20 18.20 4.60 52 -12 17.40 -8.40 49.60 -28.40 56.20 -34.80 1.20 -1.20 10.80 -9 21.40 -17.20 10.60 -8.20 19.80 -16.80 20.60 -19.20 0.60 -2.40 0.20 -11.20 -1 -19.60 -5.60 -39.80 0.40 -64.20 27 -110.20 31 -53.80 65.40 -90.60 95 -101.40 24.80 -9.20 65.40 -6.40 79.20 5.20 14.80 12.40 23.20 41.60 19.20 67.20 -6 38.60 -40.60 79 -93.60 109.60 -16.60 9.60 -33 24.20 -33 29.20 0 1.60 2.60 5.60 6 8.80 9.60 9.80 35 13 63 8.40 37.40 -6.40 69.20 -13 76 -16 2.20 -0.80 9.80 -3.60 17 -6 27 -9.40 56.80 -26.40 90 -51.60 9.20 -7.20 21 -15.60 26.20 -18.60 9 -5.60 9.20 -6 11.60 -20.20 8.20 -50 20.40 -75.40 76.60 -159 9.20 -13.80 35.60 -59.80 35.60 -62 0 -0.60 2.20 -5.80 4.80 -11.40 2.80 -5.80 5.60 -12.80 6.20 -15.80 1.20 -4.60 0.80 -5.40 -2.80 -5.40 -2.40 0 -5.80 1 -7.80 2 -4 2.40 -34 13.40 -44.80 16.60 -9 2.60 -12.60 0.20 -18.20 -12.40 -2.80 -6.40 -3.40 -11 -2.60 -17.20 2 -12.20 6.60 -15.80 36.20 -28.60 7.80 -3.40 18 -7.80 23 -10 5 -2 17.40 -7.40 27.80 -11.60 17.80 -7.40 19.40 -8.40 28.40 -20.80 5.40 -7.20 11.80 -17 14.20 -22 2.40 -5 10.80 -18.40 18.40 -29.80 7.60 -11.40 13.80 -22 13.80 -23.40 0 -1.40 0.60 -2.20 1.40 -1.80 1.80 1 7 -5.20 14.60 -17.60 3.40 -5.80 6.80 -10.80 7.40 -11.40 1.20 -1.20 42.80 -63.80 57.20 -86.20 48.40 -75.80 94.60 -127 127.40 -141.40 8.40 -3.60 11 -3 14.60 4 4.60 8.80 2.60 24.40 -4.80 40.20 -3.20 6.80 -16.60 28.60 -29.60 48.40 -13.20 19.80 -27 41 -30.80 47 -3.60 6 -8.20 12.40 -10.20 14 -1.80 1.60 -5.20 6.20 -7.20 10 -2 3.80 -7 12.20 -11.20 18.60 -4 6.20 -7.40 12 -7.40 12.60 0 0.60 -4 7.40 -9 15 -5 7.60 -9 14.40 -9 15 0 0.80 -2.60 5 -5.80 9.80 -3.20 4.80 -6.40 10.80 -7.20 13.40 -0.80 2.40 -6 12.80 -11.60 22.60 -17.20 30.80 -23.80 43.20 -23 44 0.20 0.20 24 -8.40 52.60 -19.40 28.60 -11 54.20 -20.60 57 -21.60 2.80 -0.80 11.40 -4 19 -7 7.80 -3 18.60 -6.80 24 -8.40 11 -3.40 28.60 -9.80 38 -13.60 3.40 -1.40 8.20 -3.20 11 -4 2.80 -0.60 6.80 -2 9 -2.80 10.40 -4.20 27 -10.40 37 -14 6 -2 22.80 -8 37 -13 38.80 -13.80 98.40 -34.40 129.60 -44.60 17.20 -5.60 27 -9.80 26 -11 -0.60 -1.20 -0.20 -1.60 1 -0.80 1.20 0.60 8.20 -0.80 15.80 -3.60 21.60 -7.40 49.40 -16.40 78.60 -25.20 14.80 -4.40 37.40 -11.40 50 -15.20 12.60 -3.80 29.40 -8.80 37 -11 7.80 -2.20 16.80 -4.80 20 -5.80 3.40 -1 15.40 -4 27 -6.80 11.60 -2.60 26.40 -6.40 33 -8.20 21.80 -6 65.80 -17.20 79 -20.20 7.20 -1.40 14.40 -3.20 16 -4 1.60 -0.60 8.80 -2.40 16 -3.80 7.20 -1.60 32.80 -7.40 57 -12.80 52.80 -11.80 95.80 -20.60 135 -27.40 24.20 -4.20 33.80 -5 58 -4.40 24.80 0.60 31.40 1.60 46.60 6.40 9.60 3 17.40 6.20 17.40 7 0 2 -22.80 13.20 -34 16.80 -18 5.60 -25.40 7.20 -45 9.40 -27.40 3 -60.80 9.20 -93 17.20 -43.20 10.60 -47.40 11.80 -94 25.40 -15.20 4.40 -38.60 11 -76 21.60 -7.20 1.80 -18 5 -24 6.80 -13 3.80 -30.20 8.40 -63 17 -13 3.40 -26.20 7.40 -29 9 -5 2.60 -18.60 6.20 -46 12 -18.40 3.80 -29 6.80 -89 25.40 -21.80 6.60 -73.60 23.80 -78 25.60 -2.20 1 -10.80 4 -19 6.80 -8.20 2.80 -22.60 7.80 -32 11.20 -9.40 3.40 -26 9.20 -37 13 -32 11 -40 14.40 -40 17.20 0 1.40 -1.20 2.80 -2.80 3.40 -1.60 0.60 -2.20 0 -1.40 -1.40 1.60 -2.60 -1.20 -3 -4 -0.40 -1 1 -9 4.20 -17.80 7 -8.80 3 -17.80 6.20 -20 7.20 -5.40 2.60 -20.40 7.80 -29 10.20 -3.80 1.20 -8.80 2.80 -11 3.80 -5.20 2.40 -19.40 7.40 -31 11 -11.40 3.40 -45.60 15.20 -51 17.20 -2.20 1 -36.80 12.60 -77 25.80 -40.20 13.40 -79.60 27.40 -87.80 31.60 -8.20 4 -20 11.80 -26.20 17.60 -10.80 10.20 -33.20 41.60 -49 69.40 -4.40 7.40 -8.40 13.40 -9.20 13.40 -1.40 0 -16.20 28 -33.40 63 -6.80 14.20 -28.80 58.20 -31.80 64 -1.20 2.20 -3.60 7 -5.40 10.60 -10.60 20.20 -17.20 33.60 -17.20 35.60 0 1 -1.80 5.80 -4 10.40 -4.60 9.40 -7.40 38.20 -5.20 53.20 1.20 7 3.20 11 9 16.80 11.60 11.40 12.80 12 26.40 13.40 18 1.80 39.40 -5.80 67.20 -23.80 6.80 -4.60 20.80 -13.60 31 -20.20 23.80 -15.20 57.80 -40.80 70.20 -52.80 7 -6.60 9.40 -10.40 8.80 -13.60 -0.60 -3.20 2.60 -7 14.20 -16.80 31 -26.60 56 -58.40 71.60 -90.80 12.60 -26.20 23 -43.20 35.60 -58 13.20 -15.40 11.40 -13.80 31.20 -30.40 21 -17.40 40.40 -36.40 51 -49.40 17.80 -22.40 28.80 -30 46.20 -32.20 13.40 -1.80 24 2.20 31.60 11.60 5.60 7 6.20 9 6 21 -0.20 16.20 -2.40 20.80 -20 41.60 -25.20 29.40 -34.60 49.60 -38.60 82 -2.40 19.60 -1.20 29.20 5.60 43.80 16.20 35 42.60 39 120.20 18 50.60 -13.80 88.80 -34 124 -66 9.20 -8.40 19.20 -16.60 22.20 -18 3.80 -2 6.40 -6.20 9.80 -16.20 9.40 -28 20.60 -48 47 -84 3.20 -4.60 7.80 -11 10 -14 25.40 -35.60 42.40 -54.80 82 -92.40 29.80 -28.20 36.40 -33.40 61.80 -49.80 18.20 -11.80 22.80 -12.60 39 -6.60 17 6.20 25.40 16.20 32 38 11 36 14.20 56.60 14.20 88.60 0 26.80 1.40 28 17.20 13.40 18.20 -16.40 34.80 -26.80 59.60 -36.80 4.20 -1.80 9.40 -3.20 11.40 -3.20 10.60 0 13.60 35.20 5 59.60 -6.80 19.80 -12.80 30.20 -52.20 89.60 -19.80 29.80 -41.80 63.40 -49 74.60 -7.20 11.40 -17.20 27.40 -22.40 35.40 -5.40 8.20 -9.60 15.40 -9.60 15.80 0 0.60 -5.60 9.40 -12.60 19.60 -7 10 -16.80 25 -21.60 33 -4.80 8 -14.40 23.80 -21.20 35 -6.80 11.20 -16.40 27.60 -21.40 36.40 -5.20 8.80 -11.60 20 -14.60 25 -12 20.40 -19 33.20 -20 37 -0.80 2.20 -10 21.60 -20.60 43 -16.60 33.40 -23.80 50 -43 100 -6.40 16.40 -18.40 61.20 -22.20 82.60 -1 6.40 -0.80 7.20 2.20 6.20 1.80 -0.80 4 -0.20 4.80 1 3 4.60 43.60 -39.40 71.20 -76.80 3.20 -4.40 6.80 -8.80 8 -10 3 -2.60 23 -30.60 23 -32 0 -1.40 8.40 -13.60 10.20 -15 0.80 -0.60 4.60 -6.40 8.40 -13 3.80 -6.60 9 -14.20 11.40 -17 2.40 -2.80 6 -8.20 8.20 -12.20 2 -4.20 4.80 -8.60 6.20 -10 1.60 -1.60 7.60 -10 13.40 -18.80 6 -8.80 11.60 -16.20 12.60 -16.60 0.80 -0.40 1.60 -1.60 1.60 -2.60 0 -2 6.80 -12.20 28.40 -42.40 5.60 -8 14.20 -20 19 -26.80 4.80 -7 12.80 -18.60 18 -26 24.80 -36 46.60 -69 46.60 -70.80 0 -1 0.80 -1.80 1.60 -1.80 1 0 3.80 -3.80 6.40 -8.40 2.60 -4.80 7.20 -12.20 10 -16.60 3 -4.40 7.40 -11.20 9.40 -15 4.20 -7.40 14.40 -24.20 21.60 -36 2.40 -3.80 10.40 -17.40 18 -30 27.20 -46 56 -91.20 65.60 -103.40 15.40 -20 29.60 -28.60 46.40 -28.60 10.20 0 11.20 0.40 13.20 5.60 3 7.80 -0.40 18.20 -13.60 39.40 -11.80 19.40 -13.60 22 -31.20 45.20 -6.20 8.40 -11.40 16 -11.40 17 0 1 -2.60 5 -6 8.80 -3.20 3.80 -5.80 7.80 -6 8.60 0 0.80 -3.60 7 -8 13.40 -4.40 6.40 -8 12.20 -8 12.80 0 0.60 -2.80 5.80 -6.20 11.60 -3.60 5.80 -9.20 15.60 -12.40 21.60 -3.40 6 -8.20 14.60 -10.80 19 -2.60 4.40 -6.40 11.60 -8.60 16 -9.40 19.20 -39 66.20 -86.60 138 -48.60 73.20 -57.60 87 -67.80 103 -17.40 27.40 -23 36.40 -29.60 47.20 -6.60 10.60 -16.20 26 -21 32.80 -1 1.80 -3.80 6.20 -6 9.80 -2.20 3.60 -5.40 8.20 -7 10.20 -1.60 2.20 -5 6.80 -7.60 10.40 -10 14.40 -41.80 56.20 -47.80 62.60 -2 2.20 -11.60 13 -21.40 24 -43.80 48.80 -79.80 78.40 -109.80 90.20 -8.20 3.20 -9.40 4.60 -8.80 8.40 0.60 3 -0.20 4.40 -2.40 4.40 -2 0 -4.20 0.80 -5.40 2 -2.40 2.40 -31.20 5 -35.80 3.20 -2.60 -1 -3 -1.80 -1.20 -3.80 1.60 -2.20 1 -3.80 -2.60 -7.20 -2.60 -2.40 -6.80 -10 -9.40 -16.80 -6.60 -17.20 -6.60 -52 0 -79.40 15.80 -65.60 54.60 -147.40 125.20 -264 23.60 -39 37.80 -63.80 61 -108 11.40 -21.40 25.40 -47.20 31.40 -57.40 6 -10.20 10.60 -20 10.20 -22 -1 -5.20 -10.80 -5.60 -32.20 -0.80 -52.60 11.60 -93 5 -116.80 -19 -4.80 -5 -12 -14 -15.80 -20 -3.80 -5.80 -7.60 -10.80 -8.60 -10.80 -0.80 0 -3.60 2.40 -6.40 5.20 -9.60 10.40 -39.20 32.40 -57.80 43.20 -34.60 20 -90.20 46 -119 55.20 -6.60 2.20 -18.20 6 -26 8.60 -12.60 4.40 -17.40 4.80 -49 4.80 -38.60 -0.20 -45.80 -1.80 -65.20 -15.20 -29.20 -20 -42.20 -43.80 -44.20 -81.20 -0.60 -11.40 -2 -20.60 -2.80 -20.60 -1.80 0 -7.60 8.60 -16.60 24.40 -3 5.40 -9.80 14.80 -15 21.20 -10 12 -42.80 44.60 -52.80 52.40 -3 2.40 -12.40 13 -21 23.60 -16.40 20.40 -38.40 43.40 -51.20 53.40 -4.20 3.40 -8.80 7 -10.20 8.40 -1.20 1.20 -11.80 8.60 -23.20 16.20 -33 22.20 -50.60 29.60 -106.80 44.60 -26.20 7 -64.60 9.80 -80 6 -19 -4.80 -37 -21.40 -47.60 -44.20 -2.40 -5 -4.60 -9.40 -5 -9.80 -0.20 -0.60 -3.40 2.60 -7 6.80 -18.40 22.40 -51.40 48 -87.40 67.60 -24 13.20 -87.20 37.40 -97.60 37.40 -2 0 -4.40 0.80 -5.60 1.80 -1.80 1.80 -17.20 4 -56.80 8.40 -31.40 3.60 -56.20 0 -79.40 -11.40 -5.80 -2.80 -12.80 -7.40 -15.60 -10 -6 -5.60 -5.40 -5.80 -24 9.20 -25.40 20.20 -48.20 35.80 -69.20 47 -11.20 6 -21 11 -21.80 11 -0.80 0 -6.80 2.60 -13.40 5.80 -6.60 3.20 -22.20 9 -34.60 13 -19.80 6.20 -25.20 7.20 -42.80 7.20 -24.20 0 -33 -2.20 -42.40 -10.40 -9.80 -8.60 -15 -19.60 -15 -32.20 -0.20 -14 4 -24.80 18 -46.20 14.80 -23 18.20 -29.80 18.20 -36.20 0 -6 -4.80 -6.60 -12 -1.60 -4.20 2.80 -44.80 37.20 -48 40.60 -0.60 0.60 -9.60 8.20 -20 17 -28.60 24.20 -30 25.40 -30 28.80 0 2.40 -0.40 2.60 -1.60 0.60 -1.80 -2.60 -15.80 7.20 -33.20 23 -15.60 14.40 -40.40 35.80 -56 48.60 -8.60 7.20 -18.20 15.40 -21 18.20 -8.40 8.20 -29.80 21.80 -42.40 27 -9 3.60 -15.40 4.80 -27.60 4.80 -15.40 0 -16 -0.20 -21.80 -6.80 -7.20 -8.40 -9.40 -16.40 -6.60 -26.20 1 -4 9.60 -20 19 -35.60 9.40 -15.60 19.40 -33.60 22.20 -40.20 l5.20 -11.80 -8.80 6.80 c-5 3.80 -22.20 17.20 -38.60 29.80 -16.20 12.60 -32.40 24.60 -35.60 26.80 -3.40 2 -12.80 9.80 -21.20 17.20 -21 18.80 -48.40 40 -51.60 40 -1.60 0 -6.20 2.40 -10.20 5.60 -4 3 -11.20 7.60 -16.20 10.20 -5 2.60 -10.40 5.80 -12 7.20 -1.60 1.40 -5.60 3.80 -9 5.40 -3.20 1.60 -17.20 8.80 -31 15.80 -22.40 11.60 -32.80 16 -61 26.40 -4.40 1.60 -19.60 4.60 -33.60 6.40 -24 3.20 -26.40 3.20 -38.80 0.20 -14.20 -3.60 -26 -9 -35.80 -16.40 -3.40 -2.60 -7.20 -4.80 -8.40 -4.80 -1.20 0 -8.60 6.60 -16.80 14.60 -8 8 -18.20 16.80 -22.60 19.40 -4.40 2.60 -11.20 7.20 -15 10.20 -3.80 3 -14.60 9.20 -23.60 13.80 -15.60 7.80 -24.80 11.20 -45.40 16.20 -4.40 1.20 -9.40 2.80 -11.20 3.80 -6 3.20 -44.60 6.60 -61.80 5.40 -24.40 -1.60 -42.40 -9 -65.80 -26.80 l-8.80 -6.60 -6.20 4 c-3.40 2.40 -10.60 6.40 -16.20 9.40 -11.60 6 -32 21.40 -45 33.80 -12 11.80 -36.20 28.80 -52 36.80 -7.20 3.60 -15.20 7.60 -18 9 -8.20 4 -32.20 10.60 -43 11.80 -5.40 0.60 -13.20 0.20 -17 -1z m72.40 -84.60 c34 -17.20 94.60 -68.60 123.60 -105.40 15 -19 21 -36.80 17.60 -52.80 -2.80 -13 -6.60 -20.20 -14.20 -27.40 -5.60 -5 -7.80 -5.60 -19.40 -5.60 -21.60 0 -37.80 7.60 -67.80 31.80 -16.20 13.20 -25.40 22.40 -51.60 52.80 -9.20 10.60 -31.80 46.40 -36.20 57.20 -5.80 14 -6.20 40.80 -0.80 47.60 8.40 10.80 29.20 11.60 48.80 1.80z m1365.40 -433 c18.60 -12.60 43.20 -34.80 49.40 -44.40 2.60 -4.20 5.80 -11.60 7.20 -16.60 2 -7.60 1.80 -9.60 -1 -14 -2 -2.80 -5.20 -5.20 -7.20 -5.20 -9.20 0 -35.80 22.80 -48.20 41.60 -7.60 11.40 -19.80 48.40 -16 48.40 0.80 0 8 -4.40 15.80 -9.80z m1253.40 -208.20 c22.20 -11 34.80 -24 53.20 -54.80 14 -23.40 18.20 -36.40 17.20 -52.20 -0.60 -11 -1.60 -13.80 -6.60 -19.20 -9.20 -9.60 -20.80 -13.80 -38.80 -13.80 -17.60 0 -25.20 2.20 -37.40 10.40 -10 6.60 -25.80 28 -31 41.80 -10.80 28.40 -4.20 84.20 10.80 91.40 8.20 4 20.20 2.60 32.60 -3.60z"/>
  <path d="M2903 1315 c-12 -8.20 -22.80 -16.20 -23.80 -17.80 -4 -6 11 -35.40 26.40 -51.80 5.40 -5.60 17.80 -10.20 26 -9.80 10.60 0.80 22 9.80 27.20 21.60 3.60 8 11.60 15.60 21.80 20 7.80 3.60 7.80 3.80 6.80 12.80 -0.80 7.60 -2.40 10.20 -10.20 17.20 -15.80 13.80 -32.80 22.80 -43.20 22.80 -7.80 -0.20 -11.80 -2.20 -31 -15z"/>
 </g>
 <g fill="#77a8c9">
  <path d="M2720 3317.80 c-42 -7.20 -77.20 -30 -99.20 -63.80 -5.20 -8.20 -16 -31.60 -26 -56.60 -9.40 -23.20 -18.20 -45.20 -19.80 -48.80 -1.60 -3.40 -3 -6.80 -3 -7.60 0 -0.80 -1.40 -4.60 -3.20 -8.60 -4.60 -10.60 -5.40 -12.20 -18.40 -45.40 -6.60 -16.40 -14.80 -36.80 -18 -45 -3.40 -8.20 -9.40 -23.60 -13.60 -34 -4 -10.40 -8.80 -22.60 -10.60 -27 -5.20 -12 -8.80 -21 -22.20 -55 -6.80 -17 -13.40 -33.60 -14.80 -37 -1.40 -3.20 -7.40 -18.20 -13.20 -33 -5.80 -14.80 -12.80 -31.60 -15.20 -37.20 -2.60 -5.60 -4.80 -11.40 -4.80 -13 0 -1.60 -1.20 -4.60 -2.80 -6.80 -2.40 -3.60 -4.20 -9.60 -9.20 -32 -2.40 -11 -2.40 -40.20 0.20 -50 1.20 -4.40 3 -12 4.20 -16.80 1.20 -4.80 3.80 -11.60 5.80 -15 2 -3.40 3.80 -7.40 3.80 -9 0 -8.20 38.60 -52.20 45.80 -52.20 1 0 3.20 -1.40 4.80 -3 3.60 -3.60 15.60 -8.80 59 -26.20 18.40 -7.40 34.20 -14.20 35.20 -15 1.20 -1 3.60 -1.80 5.60 -1.80 2.20 0 6.60 -1.60 10.20 -3.40 3.60 -1.80 10.40 -5 15.40 -6.80 13.20 -4.80 30.20 -11.60 37 -14.60 3.40 -1.60 13.60 -5.60 23 -9.20 9.40 -3.40 18.80 -7.40 21 -8.80 2.20 -1.40 6.20 -3 9 -3.80 4.20 -0.80 16.20 -5.40 35 -13.20 5.60 -2.40 23.20 -9.60 41 -16.60 15.20 -6 19 -7.60 50.20 -20.40 9.60 -4 23 -9.40 30 -12 14.80 -5.40 48 -18.60 56.80 -22.40 15.80 -7 25.80 -10.80 28.40 -10.80 1.40 0 3.20 -1.40 3.80 -3 0.80 -1.80 3.80 -3 7.60 -3 3.60 0 7.20 -0.60 7.80 -1.20 0.60 -0.80 7.20 -1.60 14.60 -2 7.40 -0.20 14.20 -1.40 15.40 -2.60 3 -3 8 -2.80 6.40 0.40 -0.80 1.20 0 0.80 1.60 -1 3.40 -4.40 5.40 -4.60 5.40 -0.60 0 1.80 1.80 3 4.60 3 15.80 0.20 55.60 15 70.40 26.40 6.80 5.20 26 24.20 32.20 31.60 5 6.40 20.80 38.20 20.80 42.20 0 1.60 0.80 3.80 1.60 4.80 1 1.20 3.80 7.40 6.20 14 7.60 20.20 9.20 23.80 14.80 37 1.60 3.80 5.40 13.40 8.40 21 6.40 16.80 16.20 40.80 21.40 52.40 2 4.80 3.60 9.60 3.60 10.80 0 1.20 1.80 5.60 3.80 9.60 2 4 7.80 17.60 12.80 30.20 23.80 61.20 32 81.60 34.60 87.40 1.60 3.40 2.80 7 2.80 8 0 0.80 1.40 4.40 3.20 7.60 1.80 3.40 6.80 15.40 11.20 27 4.40 11.60 8.60 22 9.60 23 0.80 1.20 2 4.60 2.80 8 0.80 3.20 3.60 10.80 6.40 16.60 2.60 5.80 4.80 11.40 4.80 12.60 0 1.20 1.80 5.60 3.80 9.60 9.80 18.60 23 56.20 26 74.40 5.80 34.60 -2.80 71.40 -24 102.80 -11.60 17.40 -20.80 26.80 -35.40 36.60 -15 9.80 -22.20 13.20 -67.40 31.20 -70.80 28 -84 33.40 -90 36.20 -3.20 1.40 -15.80 6.40 -28 11 -12 4.60 -22.80 9.20 -24 10.20 -1 1 -3.20 1.80 -4.80 1.80 -1.80 0 -11.20 3.40 -21.20 7.80 -9.80 4.20 -30.20 12.40 -45 18.20 -14.80 5.80 -30.80 12.20 -35.40 14.20 -4.60 2.20 -9 3.80 -9.80 3.80 -0.60 0 -6.40 2.20 -12.60 4.80 -6.20 2.60 -16.20 6.80 -22.20 9 -6 2.40 -12.80 5.20 -15 6 -2.20 1 -12.60 5.20 -23 9.20 -10.40 4.20 -23.80 9.60 -29.60 12.20 -5.80 2.60 -11.40 4.80 -12.60 4.80 -1 0 -5.40 1.80 -9.60 3.80 -21.80 11.20 -63.60 18 -86.20 14z"/>
 </g>
 <g fill="#df8642">
  <path d="M897.20 2646 c-4 -4.40 -7.20 -9.20 -7.40 -10.60 0 -1.20 -0.80 -6.80 -1.60 -12.40 -1 -5.80 -1 -12 0.20 -14.80 2 -5.40 14.20 -18.20 17.20 -18.20 1.20 0 2.40 -1.40 3.20 -3 0.60 -1.60 2.20 -3 3.40 -3 1.40 0 7.40 -2.40 13.60 -5.40 10.80 -5 21 -8.40 29.20 -9.60 2.20 -0.20 5.40 -1 7 -1.80 10 -4 27.20 -9.20 31.20 -9.20 2.40 0 11 -2.20 19.20 -5 8 -2.80 17.60 -5 21.20 -5 3.60 0 8 -0.80 10 -1.80 6 -3 24.60 -8.40 34 -10.20 5.20 -0.80 20 -4.40 32.80 -7.80 13 -3.40 25 -5.60 26.80 -4.80 1.80 0.60 3.80 0.40 4.60 -0.80 1.60 -2.40 21.20 -8.60 27.40 -8.60 2.40 0 13.40 -3 24.20 -6.80 10.80 -3.80 23 -7.40 27.40 -8.20 4.20 -0.60 12.40 -3.40 18.40 -6.20 5.80 -2.60 13 -4.80 15.80 -4.80 3 0 8.20 -1.20 11.60 -2.80 8.80 -4 33 -11.20 37.60 -11.20 2.20 0 5.40 -0.80 7.40 -1.80 11.20 -6.20 27.80 -12.20 33.20 -12.20 3.40 0 12.80 -2.60 20.60 -6 8 -3.20 18 -6.40 22 -7.20 4.20 -0.80 8.60 -2 9.60 -2.80 1.20 -1 8.40 -2 16 -2.60 7.80 -0.40 18.80 -2.20 24.60 -4 20.20 -6.40 29.60 -9.20 50 -15 12.80 -3.60 22.20 -7.60 24.60 -10.20 2.40 -2.60 6.40 -4.20 10.40 -4.20 3.60 0 8.40 -1.40 11 -3 2.40 -1.80 11.80 -4 20.80 -5.20 9.20 -1 23 -3.60 30.60 -5.60 13.40 -3.60 77.40 -21.40 98 -27.20 5.60 -1.60 14 -4 19 -5.20 5 -1.20 10.80 -2.80 13 -3.60 4.20 -1.80 25.20 -7.40 37 -10 3.80 -1 21.40 -5.40 39 -10 17.60 -4.80 41 -10.80 52 -13.40 22 -5.40 44.20 -11 67 -16.80 8.20 -2.20 18.40 -4.40 22.40 -5.20 4.20 -0.60 9.40 -2.80 11.80 -5 6.20 -5.40 17.20 -8.40 25.80 -7 5.40 0.80 8.20 0.40 10 -1.80 1.40 -1.60 4.60 -3 7 -3 2.40 0 7.80 -1.40 11.60 -3 4 -1.60 11.20 -3 16.20 -3 5 0 9.40 -0.80 10 -1.80 0.80 -1 5 -2.40 9.80 -3.20 4.60 -0.80 9.80 -2.20 11.40 -3 1.60 -0.80 8 -2 14 -2.80 6 -0.60 14.60 -2 19 -3.20 4.40 -1.20 14.40 -3 22 -4.20 7.80 -1 17.60 -2.40 22 -3.20 4.40 -0.60 8.60 -2 9.40 -3.20 0.80 -1.40 8.40 -2.60 17 -3 8.60 -0.40 18.40 -2 21.80 -3.60 3.40 -1.40 12.40 -3.80 20 -4.80 7.60 -1.20 15.60 -2.60 17.80 -2.80 2.20 -0.40 7.60 -1.80 12 -3 4.40 -1.20 12 -2.20 17.20 -2.20 5 0 9.80 -0.80 11 -1.80 1 -1 4 -2.20 6.80 -2.80 2.80 -0.40 0.80 -1 -4.60 -1.20 -5.40 0 -9.20 -1 -8.60 -2 1.20 -1.80 13.40 -3.80 57.20 -9.20 13.80 -1.80 29.40 -4.60 34.80 -6.20 11.60 -3.20 21.20 -3.60 21.20 -0.80 0 1.20 -0.80 2 -2 2 -1 0 -2 1.40 -2 3.20 0 2.60 1.40 3 5.80 2.20 3 -0.60 10.40 -1.80 16.40 -2.60 6 -0.80 12.20 -2.60 14 -4 3.40 -3.20 24.80 -6.60 78.80 -12.80 19.80 -2.20 41.40 -5 48 -6.20 19 -3.20 85 -3.60 91.20 -0.60 3 1.40 5.80 2.20 6.40 1.60 1.40 -1.60 30.40 4.80 38.80 8.40 3.40 1.60 7.60 2.80 9.20 2.80 4.20 0 19.80 11.80 19 14.40 -0.40 1.20 -4.40 3.60 -9 5.40 -4.40 1.80 -9.40 4.40 -11 5.60 -1.60 1.40 -6 3.20 -9.80 3.80 -8.20 1.40 -32.40 9.40 -33.80 11 -0.60 0.60 -12.20 1.40 -26 1.60 -19.60 0.40 -25.60 1 -28.40 3.60 -3 2.60 -7 3 -23.40 2 -16.20 -0.80 -20.60 -0.40 -22.40 2 -1.80 2 -5.80 2.60 -13.60 2.40 -18.20 -1 -29.80 0 -32.60 2.80 -1.40 1.20 -8 2.60 -14.80 2.80 -6.60 0 -16.40 1.60 -21.60 3.40 -5.20 1.80 -12.60 3.20 -16.60 3.20 -7.80 0 -22.40 3.60 -25.40 6.40 -1.20 0.80 -5.80 1.60 -10.20 1.60 -4.60 0 -16.80 1.80 -27.20 4.20 -10.40 2.20 -22.80 5 -27.80 5.80 -5 1 -12.60 2.60 -17 3.60 -4.40 1.20 -11.20 2.60 -15 3.40 -7.80 1.40 -37.20 8.20 -48 11 -7.60 2 -9.20 2.20 -34 7 -9.40 1.80 -23 5 -30.20 7.20 -7.20 2 -15.60 3.80 -18.60 3.80 -3 0 -12.80 1.80 -21.80 3.80 -9 2 -21.80 4.80 -28.40 6.20 -6.60 1.40 -14.60 3.20 -18 4 -3.20 0.80 -12.80 2.60 -21 4 -17.40 2.80 -50.60 9.60 -121 25.20 -27 5.80 -66.20 15.40 -78.80 19 -7 2.20 -15.40 3.80 -18.40 3.80 -3.40 0 -6.80 1.60 -8.60 4.20 -2 2.80 -4.20 3.80 -6.40 3 -3 -1.20 -25.40 4 -37.80 8.80 -2.20 0.80 -13 3.60 -24 6.40 -38.80 9.80 -60 15.80 -66.40 18.60 -3.40 1.60 -7.80 3 -9.60 3 -5 0 -31.60 8.20 -34.80 10.80 -1.40 1.20 -5.20 1.80 -8.20 1.60 -3.20 -0.40 -9.20 1.20 -13.80 3.40 -4.40 2.40 -9.40 4.20 -11.20 4.20 -1.60 0 -3 0.80 -3 1.60 0 0.80 -3.20 1.60 -7.20 1.80 -6.60 0.20 -37.60 9 -45.20 12.80 -2 1 -5.80 1.80 -8.60 1.80 -5.60 0 -21.40 5.80 -23.20 8.60 -0.80 1 -3.40 1.40 -6 0.80 -2.80 -0.60 -6.40 0 -8.60 1.80 -2.20 1.60 -6.60 2.80 -9.60 2.80 -3.20 0 -9 1.40 -13 3 -3.80 1.60 -9.60 3 -12.80 3 -3 0 -6 0.80 -6.60 1.60 -0.60 1 -6.20 2.80 -12.60 4.40 -19.40 4.40 -67.40 18.20 -69.40 20 -1 1 -2.80 1.20 -4.20 0.80 -1.40 -0.60 -3.20 -0.20 -4 1 -0.60 1.20 -3.80 2.20 -7 2.20 -5.40 0 -19.80 4 -29 8 -2.20 1 -7.60 2.20 -12 2.80 -12.60 2 -33 8 -33 9.80 0 0.80 -0.80 1.20 -1.80 0.40 -1 -0.60 -10.20 1.20 -20.60 4 -10.20 3 -21.20 5.80 -24.60 6.40 -3.20 0.60 -7.40 2.40 -9.20 3.80 -1.80 1.60 -4.60 2.40 -6.40 1.60 -3.60 -1.40 -30.20 5 -50.40 12.20 -7.60 2.60 -15.60 5 -17.60 5 -2.20 0 -6.60 1.20 -10 2.80 -7.80 3.40 -39.40 13.20 -42.60 13.20 -1.40 0 -3 1.40 -3.60 3.20 -0.80 2.40 -2.80 2.80 -7 1.80 -4 -0.80 -9 0 -15.40 2.80 -5 2.40 -10.60 4.20 -12.20 4.20 -1.60 0 -5.40 1.20 -8.20 2.80 -5.40 2.60 -18.80 6.20 -49.40 13.40 -30.80 7 -38 8.80 -40 10 -1 0.80 -7 2.40 -13 3.80 -6 1.40 -12.40 3.20 -14 4 -1.60 1 -6 2 -9.60 2.60 -3.60 0.60 -7.60 2 -9 3 -1.40 1.20 -6 2.60 -10.40 3.20 -4.40 0.80 -10.60 2 -14 3 -3.20 1 -10.60 2.40 -16.20 3 -10 1.20 -10.40 1 -17.60 -6.80z"/>
  <path d="M2037.80 2267 c8.60 -3.80 11.20 -3.80 7.40 0 -1.60 1.60 -5.40 3 -8.60 3 l-5.60 -0.20 6.80 -2.80z"/>
  <path d="M2222.60 2230.60 c1.80 -0.40 5 -0.40 7 0 1.80 0.60 0.20 1 -3.60 1 -3.80 0 -5.40 -0.40 -3.40 -1z"/>
 </g>
 <g fill="#758346">
  <path d="M606.60 2627.60 c-7 -7.80 -9.20 -13.80 -9.20 -27 -0.20 -9.60 0.80 -14 3.80 -18.20 5.40 -7 22.20 -17.20 37.40 -22.20 6.60 -2.40 13.80 -5.60 15.80 -7.60 4.80 -4.20 15 -8.20 31.60 -11.80 33.20 -7.20 65.60 -15.40 71.40 -18 3.40 -1.60 7.60 -2.80 9.40 -2.80 3.80 0 62.80 -14.40 77.20 -18.80 5 -1.60 14.40 -3.80 21 -5.20 6.60 -1.20 17 -4 23 -6 69.20 -22.40 81.60 -26 88.20 -26 3.20 0 5.80 -0.80 5.80 -1.60 0 -2.60 67.20 -23.20 70 -21.40 1 0.60 4.80 -0.80 8.80 -3.20 4 -2.20 11.80 -5.40 17.60 -6.80 11.80 -2.80 35.60 -10 67.60 -20 11.60 -3.60 24.20 -7 28 -7.40 3.80 -0.20 7.60 -1.20 8.20 -2.20 0.60 -0.80 5.80 -2 11.60 -2.60 5.80 -0.40 25.80 -5.40 44.80 -11 19 -5.40 40.80 -11.60 48.40 -13.80 7.80 -2 24 -6.40 36 -9.80 12.20 -3.60 28.40 -8 36 -10.20 7.80 -2 20.80 -5.60 29 -8 8.20 -2.40 18.20 -5 22 -6 9.60 -2.20 34 -8.80 52 -14 8.20 -2.40 20.80 -5.60 28 -7.20 7.20 -1.40 15.20 -3.60 18 -4.60 2.80 -1 15.80 -4.40 28.80 -7.60 17.60 -4 24 -6.40 24.80 -9 0.40 -1.80 2 -2.80 3.60 -2.20 1.40 0.60 11.80 -1.80 22.80 -5.40 12.40 -4 22 -6 25 -5.20 2.80 0.80 5 0.60 5 -0.40 0 -0.80 5.60 -2.80 12.60 -4.20 6.80 -1.60 14 -3.60 15.80 -4.60 2 -1 11.80 -3.20 22 -4.80 10.20 -1.80 19.80 -4.20 21 -5.20 1.40 -1.20 7.80 -2.20 14 -2.40 6.40 0 12 -0.60 12.60 -1.40 1.60 -1.60 29.80 -9.20 40 -10.80 5 -0.80 14.20 -2.60 20.80 -4.20 6.40 -1.60 23.80 -5.20 39 -7.80 15 -2.80 35.40 -6.60 45.20 -8.80 30.20 -6.60 76.80 -14.20 89.60 -15 3 0 5.40 -0.80 5.40 -1.40 0 -1.80 26 -6.60 27.40 -5 0.60 0.60 2.40 0.20 4 -1 1.40 -1.40 5.20 -1.80 8.60 -1 3.40 0.60 6 0.40 6 -0.40 0 -2 45.20 -9.20 47.80 -7.60 1.20 0.80 2.20 0.60 2.20 -0.40 0 -2.20 33 -7.20 35.80 -5.40 1.20 0.60 2.20 0.40 2.20 -0.60 0 -2.40 28.80 -7.20 45 -7.40 7.80 0 14.60 -0.80 15.40 -2 0.80 -1 7.80 -2 15.60 -2.20 7.80 -0.20 14.60 -0.80 15.40 -1.60 0.60 -0.60 3.40 -0.60 6 0 2.60 0.80 5.80 0.20 7.20 -1 3.60 -3 34.20 -6 47.20 -4.80 7.60 0.80 11 0.40 12.20 -1.60 1.40 -2.20 5.20 -2.20 21.40 0 10.80 1.20 27.40 3.20 37 4.40 9.60 1 24 4 32.20 6.80 18.20 5.80 37.40 14.60 37.40 16.80 0 1 -6.80 4.80 -15 8.40 -9.20 4 -15 7.80 -15.20 9.60 0 2 -0.60 2.20 -1 0.80 -0.80 -1.80 -3.40 -1.60 -10.40 0.40 -5.20 1.60 -18.20 4 -28.80 5.20 -10.80 1.40 -19.60 3.20 -19.60 4.20 0 1 -1.60 1.40 -3.40 0.80 -4.80 -1.40 -63.20 2 -75.60 4.60 -13 2.60 -36.20 6.20 -54.40 8.20 -16 1.80 -28.60 5.40 -28.60 8 0 0.80 -6 1.60 -13.40 1.60 -14 0.20 -50.20 7.20 -53.40 10.60 -1.20 1 -5 1.80 -8.40 1.80 -3.60 0 -7.80 1.40 -9.60 3 -1.80 1.80 -6 3 -9.60 2.80 -8.40 -0.60 -50 6.20 -52.40 8.40 -1.20 1 -4.20 1.80 -7 1.80 -3 0 -7.40 1.20 -10.20 2.60 -3 1.60 -11 3.40 -18 4 -7.20 0.80 -13.80 2.60 -15 4 -1 1.40 -3.60 2.20 -5.40 1.80 -2 -0.40 -3.60 0.20 -3.60 1.40 0 1.40 -5.40 2.20 -14.40 2.20 -9.20 0 -25.20 2.20 -42.60 6.20 -35.60 7.80 -56.40 12.20 -95 19.60 -27.80 5.40 -44.20 8.80 -107 22.20 -9.80 2 -29.20 6.60 -43 10 -13.80 3.40 -28.60 7 -33 8 -4.40 1 -15.20 3.60 -24 6 -35.40 9.40 -44.60 12 -59 16 -19 5.20 -38.80 10.60 -58.40 15.80 -8.40 2.40 -21.60 6.40 -29.20 9.20 -7.80 2.80 -18 6 -22.80 7 -20.40 4.40 -76.20 20.80 -82 24 -2 1.20 -5.40 2 -7.60 2 -2.20 0 -4.60 1.20 -5 2.60 -0.60 1.20 -4 2.40 -7.60 2.60 -3.40 0 -9.80 1.60 -13.80 3.60 -4 2 -8.20 3 -9.20 2.40 -1.20 -0.60 -10.80 1.60 -21.40 4.80 -10.80 3.40 -20.80 6 -22.40 6 -1.60 0 -5.80 1.20 -9.20 2.80 -3.60 1.60 -13.20 4.40 -21.40 6.20 -16.40 3.80 -25.40 6.20 -36 10 -3.80 1.40 -12.40 4 -19 5.60 -14 3.60 -28.80 7.60 -54 14.40 -9.80 2.60 -27 7 -38 9.80 -36.80 9.40 -55 15 -55 17 0 0.80 -3.40 1.60 -7.40 1.80 -4.20 0.20 -12.60 2 -18.60 3.80 -6 1.60 -14.60 3.40 -19 3.80 -4.40 0.40 -11.20 2 -15 3.60 -3.80 1.60 -12.40 4.40 -19 6.20 -6.60 1.80 -30 9 -52 16 -42.60 13.60 -76 23 -81 23 -1.80 0 -4 0.80 -5 1.80 -2 1.80 -73.80 20.20 -78.80 20.20 -1.40 0 -5.40 1.20 -8.80 2.80 -3.60 1.60 -13 4.80 -20.80 7 -8 2.40 -14.60 5 -14.60 5.80 0 0.80 -4 1.80 -8.80 2 -4.80 0.20 -11 1.20 -14 2.40 -9.40 3.60 -20 2.40 -24.60 -2.40z"/>
 </g>
 <g fill="#b6b9bd">
  <path d="M3062 2298 c0 -1 1.40 -2 3 -2 1.60 0 3 1 3 2 0 1.20 -1.40 2 -3 2 -1.60 0 -3 -0.80 -3 -2z"/>
 </g>
</svg>