<svg xmlns="http://www.w3.org/2000/svg" width="4000" height="4000" viewBox="0 0 4000 4000"><g fill="#a3a6aa"><path d="M655.8 3027.6c0-68.6-.2-186.2-.4-261.6l-.4-137-7.4-.6c-5.6-.4-7.6-1.6-7.6-4 0-2.6 4.6-4.8 18.6-9.2 10-3 21.2-6.8 24.8-8.4 3.4-1.6 7.4-2.8 8.8-2.8 5 0 76.8-18.4 78.8-20.2 1-1 3.2-1.8 5-1.8 5 0 38.4-9.4 81-23 22-7 45.4-14.2 52-16s15.2-4.6 19-6.2c3.8-1.4 12-3.6 18-4.6 21.4-3.6 35.2-6.8 44.2-10.4 5-2 12.6-4.6 17-5.6 12.6-3 52.2-13.4 72.8-19 25.6-7 40.6-11 55-14.6 6.6-1.6 15.2-4.2 19-5.6 10.8-3.8 19.6-6.2 36-10 8.2-1.8 16.8-4.2 19-5.2s9-3.2 15-4.6 18.2-4.6 27-7.2c8.8-2.4 21.4-5.8 28-7.4s13.6-3.8 15.4-4.8c2-1 5-1.8 6.6-1.8s4.6-.8 6.6-2c5.4-3 59.6-19 81.4-24 10.8-2.4 23-2.4 23 0 0 1.2-.8 2-2 2s-2 6.4-2 15c0 12 .6 15 3 15 1.6 0 3 1.4 3 3 0 1.8-1.8 3-4.8 3-2.8 0-5.4.8-6 1.8-.6.8-4.6 2.2-9 3-4.2.6-14.4 3.8-22.4 7.2-8.2 3.2-17.6 6-21 6-5.4 0-22 6-33.2 12.2-2 1-5.2 1.8-7.4 1.8-4.6 0-28.8 7.2-37.6 11.2-3.4 1.6-8.6 2.8-11.6 2.8-2.8 0-10 2.2-15.8 4.8-6 2.8-14.2 5.6-18.4 6.2-4.4.8-16.6 4.4-27.4 8.2s-21.6 6.8-24 6.8c-6 0-27.4 6.6-27.4 8.4 0 .8-3.4 1.6-7.6 1.6-4 0-16.4 2.4-27.4 5.2s-24.2 6-29.4 6.8c-9.6 1.8-28 7.2-34 10.2-2 1-6.4 1.8-10 1.8s-13.2 2.2-21.2 5c-8.2 2.8-16.8 5-19.2 5-4.6 0-28.8 7.6-32.2 10-1 .8-6.4 2.2-11.8 3-5.6.8-15.4 3.8-22 7-6.8 3-13.8 6-15.6 6.6-2 .8-3.6 2.2-3.6 3.4 0 1-1 2-2.2 2-4 0-17.8 15.8-17.8 20.6 0 13.2 10.4 29.4 18.8 29.4 5.8 0 31.4-6 36.2-8.6 2.2-1.2 7.2-2.8 11-3.6 9.4-2 30.2-7.6 34-9.2 3.4-1.4 18.2-5.2 41-10.4 30.6-7.2 44-10.8 49.4-13.4 2.8-1.6 6.6-2.8 8.2-2.8s6.8-1.8 11.6-4 12.2-4 16.4-4c4 0 7.4-.8 7.4-2 0-1 1.2-2 2.6-2 3.2 0 34.8-9.8 42.8-13.2 3.4-1.6 7.8-2.8 9.6-2.8s9.8-2.2 17.8-5c19-6.6 44.4-13 51.4-13 3 0 6.2-.8 6.8-2 .6-1 3-2 5-2 2.2 0 9.6-1.8 16.4-3.8 20.4-6.2 58-16 66.6-17.2 4.4-.8 9.8-2 12-3 9.2-4 23.6-8 29-8 3.2 0 6.4-.8 7-2 1.4-2.4 17-2.8 17-.4 0 .8-1 2.6-2.2 3.8-1.6 1.6-2.4 95-3.2 318.4l-1.2 316.2H656zm855.8-205-.6-329.6-5.4-.6c-13.2-1.6-2.4-12.4 12.4-12.4 2.8 0 7-1.4 9.2-3 2-1.6 5.8-3 8.2-3s9-1.8 14.6-4 12.4-4 15.2-4c2.6 0 6.4-.8 8.4-1.8 4.8-2.4 35.4-11.4 48.4-14.4 6-1.2 14.4-4 18.4-6 4.2-2.2 10.4-3.8 14.2-3.8 3.6 0 7.4-.8 8.6-1.8 2.2-2 29.2-10.2 33.8-10.2 1.8 0 6.2-1.4 9.6-3 6.4-2.8 27.6-8.8 66.4-18.6 11-2.8 21.8-5.6 24-6.4 24.6-9.4 50.6-12.4 49.4-5.8-.6 4.8 41.2 5.8 244.2 5.8H2266v752h-754zM634 2564c0-1.2 4.2-4 9.6-6.6l9.4-4.4 1.2-32c.8-17.6 1.4-48 1.6-67.4.2-36.4.2-36.8-7.2-35.8-1.4.2-2.6-1.4-2.6-3.4 0-5 21.4-18.4 29.6-18.4 3.6 0 9.2 2.6 14.6 6.6 21 16 39.6 24.2 59.4 26.6 12.4 1.4 50.4-2.2 56.2-5.2 1.8-1 6.8-2.6 11.2-3.8 20.6-5 29.8-8.4 45.4-16.2 9-4.6 19-10.2 22-12.2 6-4.4 18-5.4 14-1.4-7.6 7.6-8 7.6 151.6 7.6 152.6 0 154 0 154 4 0 3.4-1.4 4-8 4-4.4 0-8 1-8 2 0 1.2-3.2 2-7 2-4 0-16.8 3-28.6 6.8-31.6 10-56 17.4-68 20.2-5.8 1.4-13.6 4.6-17.6 6.8-3.8 2.4-9.4 4.2-12.2 4.2-8.6 0-66.6 17.8-66.6 20.4 0 .8-2.6 1.6-5.8 1.6-6.6 0-19 3.6-88.2 26-6 2-16.4 4.8-23 6-6.6 1.4-16 3.6-21 5.2-14.4 4.4-73.4 18.8-77.2 18.8-1.8 0-6 1.2-9.4 2.8-5.8 2.6-38.2 10.8-71.4 18-16.4 3.6-26.8 7.6-31.4 11.6-7.2 6.6-26.6 10.6-26.6 5.6m2362.4-139.4c.6-7.2 1-7.6 7.6-8.2 6.8-.6 7-.4 7 7s-.2 7.6-7.6 8.2l-7.6.6zm-1498.4-2.8c0-1 3.2-3.4 7-5 6.2-2.4 7-3.8 7-9.8v-7h19c17.6 0 19 .2 19 4 0 2.2-1.4 4-3 4-1.8 0-5.2 1.2-7.6 2.8s-9.6 3.4-15.8 4.2c-9.6 1-11.6 2-11.6 5.2 0 3-1.4 3.8-7 3.8-3.8 0-7-1-7-2.2m-916-19c0-1.8 8.2-8.8 10.4-8.8.8 0 1.6 2.2 1.6 5 0 4.2-1 5-6 5-3.2 0-6-.6-6-1.2m202-26.8c0-3.6 1.4-4 13-4s13 .4 13 4-1.4 4-13 4-13-.4-13-4m2164-19.4c0-6.8 2.4-12.6 5.2-12.6 2 0 2.8 2.6 2.8 8 0 6.6-.6 8-4 8-2.4 0-4-1.4-4-3.4m-1412-47.4c0-1.6 3.8-3.6 8.8-5 12-3 13.2-2.8 13.2 1.6 0 2.6-2 4-6.2 5-10.2 2-15.8 1.4-15.8-1.6m1518.8-6.4c-1.8-7.4.2-22.4 7-48.8 13.4-52.4 29.2-93.8 57.4-150.4 25.6-51.4 24.6-52.8 25.2 36.8.4 57.6 1.2 71.8 3 69.6 1.4-1.6 4.8-5.6 7.4-9l5-6 .2 7.6c0 5.2-.8 7.4-3 7.4-1.6 0-3 1.8-3 3.8 0 2.2-.8 4.2-1.6 4.6s-4.2 4.2-7.4 8.6c-25.8 35.2-62.8 75.4-72.4 79.2-2.6 1-7.4 1.8-10.6 1.8-4.6 0-6.2-1-7.2-5.2m-2371.4-1c1.6-5.8-2.4-7.8-15.8-7.8H656l-.2-13.4c0-7.6 0-21.6.2-31.2.2-16.4 0-17.8-3.8-18.8-2.4-.6-4.2-2.4-4.2-3.8 0-2.2 3.4-2.8 14.6-2.8 13.2 0 15 .6 20.8 5.6 8 7.4 11.6 14.6 14.6 29.2 4.2 20-2.4 47.2-11.4 47.2-3.4 0-4-.8-3.2-4.2m230.6 2.4c0-1 1.4-2.2 3-3 1.6-.6 3-2 3-3.2 0-1.4-22.4-2-67-2-43.4 0-67 .8-67 2s-.8 2-2 2c-2.8 0-2.4-8.6.8-17.4 4.8-13 5.4-20.8 2.2-30.8-3.8-11.2-8-15.6-11.4-12.2-1.4 1.4-8 2.4-15 2.4-11.6 0-12.6-.4-15.2-5.4-1.6-3.2-3.4-9-4.2-13.4-2.2-11.4-11-29-18.6-36.6-13.6-13.6-32-19-55.6-16.4-19 2.2-23 2.2-23-.2 0-1 2.6-3.2 6-5l6-3v-309.4c0-170 .2-309.4.4-309.8.4-.2 169.4-.8 375.6-1l375-.6.6 258.4c.4 268.2.2 263.8 8 256 1.8-1.8 2.4-1.2 2.4 3.2 0 4.6-4.4 10-22.4 28-36.8 36.4-56 52.6-113.6 96-44.4 33.6-60.2 46.8-67.2 56-11 14.6-98 67.2-111.2 67.2-6 0-7.6-2.8-2.6-4.8 1.6-.6 3-2 3-3.2s-17-2-50.2-2c-49.2 0-50.2 0-49.2 4 .8 3.2 0 4-3.6 4-3.4 0-5.2-2-7.8-8.6-8.4-22 1.4-62.4 26.4-109.4 18.2-34 21.6-36 61.6-38.2 39.6-2 45.6-5.6 47.4-28.2.8-11.4 2.4-15.8 10.2-29 5-8.4 9.2-17.4 9.2-19.6 0-6.8-16.8-19-26-19-2.2 0-12 3.8-21.4 8.2-14.4 6.8-20.4 11.4-35.6 26.6-10 10-22.6 21.6-28 25.8-32.4 25.2-61.8 60.4-78.6 94.4-14 28.2-26.4 69.6-26.4 88 0 3.4-1 7.2-2.4 8.6-2.8 2.8-15.6 3.2-15.6.6m1022 0c0-1 1.4-2.2 3-3 6.8-2.6 2.4-5.2-9-5.2s-12-.2-12-5c0-3.4 1-5 3.6-5 2 0 4.4-.8 5.6-2 1-1 7.8-2.6 14.8-3.4 7-.6 15-2.4 18-4 2.8-1.4 7-2.6 9.6-2.6 2.4 0 6-.8 8-2 2.8-1.4 42-9 70.4-13.4 3.8-.6 8-1.8 9-2.8 3.2-2.4 35.6-9.2 52-11 7.6-.8 16.8-2.6 20.6-4.2 3.6-1.4 13.6-3.6 22-4.4 19.8-2.4 42.6-5.8 55.4-8.6 5.6-1 21-2.4 34.6-3l24.4-1.2v7.4c0 6.4-.6 7.2-4.8 7.2-2.8 0-5.6 1-6.2 2-.6 1.2-5.6 2-10.8 2s-14 1.2-19.4 2.8-16.8 4-25.6 5c-8.6 1.2-18.4 3.6-22 5-3.4 1.6-13.2 3.2-21.8 3.6s-16.2 1.6-17 3c-.8 1.2-5 2.6-9.4 3.2-4.4.8-14.2 2.2-22 3.2-7.6 1.2-17.6 3-22 4.2s-13.4 3-20 4c-16.2 2.2-31.6 6-33.8 8.2-1.2 1-5.8 1.8-10.6 1.8s-12 1.4-16 3c-3.8 1.6-9.2 3-11.6 3s-5.6 1.4-7 3c-1.8 2.2-5.8 3-13.2 2.8-10.2-.4-22.8 3-22.8 6.4 0 1-3.2 1.8-7 1.8s-7-.8-7-1.8m1024-2.8v-4.8l-46.4-1.2c-25.6-.8-154.2-1.4-285.6-1.4h-239.2l.8-7.2c.8-5.8.2-7.2-3.4-8.2-4.6-1.2-5.6-5.2-1.6-8 3.8-3 18.2-6.6 26.6-6.6 4.4-.2 11.4-1.4 15.8-3s13.8-3.6 21-4.2c7.2-.8 14.6-2.2 16.4-3.2 2-1 12.6-2.2 23.8-2.6 11.2-.6 21.6-2 23-3.2 2-1.6 8.6-1.8 22-.8 15.4 1.2 19.6.8 22.4-1.6 2.4-2 10.2-3.2 27.4-3.8 19-.8 27.2-2.2 39.2-6.4 8.2-2.8 16.8-5.2 19-5.2 2 0 6-1.4 8.8-3s7.6-4 10.8-5.2l5.8-2.4-4.4-3.8c-2.6-2-6.2-3.6-8-3.6s-5.4-1.2-8.2-2.6-11.8-3.8-20-5.2-17.2-3-20-3.6c-9.8-2.4-71.2-2.8-84-.8-7.2 1.2-29.2 4-49 6.2-31.4 3.6-48.2 6-81.8 11.4l-7.6 1.2 3-4.8c2.8-4.2 3-15 2.8-80.8l-.4-76-4.4-.6c-5.2-.8-6.6-8.4-1.4-8.4 8.6 0 69.2-34.6 81.8-46.6 1.4-1.4 6-5 10.2-8.4 12.8-10 34.8-33 51.2-53.4 8.6-10.6 18-21.2 21-23.6 10-7.8 42.8-40.4 52.8-52.4 5.2-6.4 12-15.8 15-21.2 13.2-23.2 14.2-24.4 22.6-24.4h7.6l1.2 20.6c2 37.4 15 61.2 44.2 81.2 18.4 12.8 27.2 15 59.2 15.2 25.4 0 30.8-.6 43-4.8 7.8-2.6 19.4-6.4 26-8.6 28.8-9.2 84.4-35.2 119-55.2 18.6-10.8 48.2-32.8 57.8-43.2 3.6-3.8 6.8-5.2 12.4-5.2 7 0 8.2.8 14.6 10.8 22.6 35.2 50 47.2 98.8 42.8 13.6-1.2 25.2-1.4 26-.6s.2 2-1 2.4c-3.4 1.2-3.8 66.6-.6 66.6 1.2 0 2.6-1.4 3.2-3 2-5 4.8-3.4 4.8 2.6 0 8-30.6 65-70.2 130.4-55 91-103.8 188-114.2 227-1.8 6.4-3.4 9-6 9-2.4 0-3.6-1.6-3.6-4.6m-1398.8-1.6c2.4-4-4-5.8-21.6-5.8H1522l-.4-59.4-.6-59.6-4.4.2c-3.6 0-4.6-1-4.6-4.6 0-2.6.6-4.6 1.6-4.6.8 0 4.2-2.6 7.4-5.6 3.4-3 14.6-12.6 25-21.4s19.4-16.4 20-17c3.2-3.4 43.8-37.8 48-40.6 3-2 8.6-3.4 14.4-3.4h9.6v11c0 12.6-1.6 16.4-18.2 42.2-18 27.8-21 38.8-14 52.6 13 25.2 40.8 30.8 84.2 17 12.4-4 28-9.8 34.6-13s12.6-5.8 13.4-5.8 10.6-5 21.8-11c21.4-11.4 43.6-26.6 70.8-48.4 18-14.4 25.4-16 34.4-7.8 10.4 9.6 35.2 19.2 57 22.2 5 .6 17.2.2 27-.8 39.2-4.4 54-6.6 55.8-8.4 1.2-1 3.6-1.8 5.6-1.8 10.4 0 73.6-24.2 97.6-37.4 36.6-20 77.2-51.8 89.4-70 4.4-6.6 17.6-6.6 19.4 0 1.6 6.4 15.4 27.2 23 34.6 8.6 8.4 22 14.8 34 16.2 10.4 1.2 13.8 5.2 6.2 7.2-3.8 1-4 2.8-4 48.2 0 40.6.4 47.2 3 47.2 1.6 0 3 1.4 3 3.2 0 2.8-1.6 3.2-11 2.2-6-.6-11-.4-11 .6 0 .8-12.4 1.8-27.8 2.4-19 .4-28.6 1.4-30.8 3.4-2 1.6-10.6 2.8-23.6 3.2-11.6.4-21 1.8-21.8 3s-7 1.8-15.2 1.6c-13.4-.4-42.8 3.8-44.8 6.4-.6.8-9 2-19 2.6-9.8.8-18.2 2.2-18.6 3.4-.4 1-5.2 2-10.6 2-11.2 0-38.4 4.2-39.8 6.2-.6.8-10.8 2.2-22.8 3.4s-22.4 3-23 4.2c-.6 1-8 2.4-16.2 3.2-16.6 1.4-51.4 7.2-79 13.2-9.8 2.2-30.2 6-45.2 8.8-15.2 2.6-32.6 6.2-39 7.8-6.6 1.6-15.8 3.4-20.8 4.2-12.4 1.8-38.8 9.4-39.6 11.4-.4.8-6.4 1.6-13.2 1.6s-13.2.8-14.4 1.8c-1 1-10.2 3.2-20.4 5-10.2 1.6-20 3.8-22 4.8-1.8 1-9 3-15.8 4.6-7 1.4-12.6 3.4-12.6 4.2s-4 1.6-9 1.6c-4.8 0-15.8 2.2-24.2 5-16 5.2-32.2 6.8-29.6 2.8m-361.2-7.4c0-2 6-8 14-14 7.6-6 22.6-18.4 33.2-27.6 10.6-9.4 21-17.8 23.2-19 4-2.2 45.2-33.6 68.4-52.2 8.8-7.2 13.8-9.6 18.6-9.6 6 0 6.6.6 6.6 6.2 0 8.4-10.2 29.6-29.6 61.6-10.2 16.6-16.4 29-16.4 32.4s2.4 8.4 6 12.4c12 13.8 13.6 13.4-59 13.4-60.8 0-65-.2-65-3.6m152-.4c0-2 3.6-4.6 9.6-6.6 5.2-2 16.2-8 24.4-13.4 9.8-6.4 17.2-10 21-10 3.4 0 5 .8 3.8 1.6s-2.8 7.6-3.2 15c-.6 7.4-1.4 14-1.8 14.2-.4.4-12.8 1.2-27.2 1.6-23.4.6-26.6.4-26.6-2.4"/><path d="M1671 2158c-5.2-5.8-3-22.8 6-45 16-40 18.4-58 9.8-76-11.4-24.2-31-27.8-64.2-12.2-26.4 12.6-48.4 28.4-86.4 62.6-4 3.6-9 6.6-11.2 6.6-3.8 0-4-1.2-3.4-24 .6-20.8.4-24-2.4-24-1.8 0-3.2 1-3.2 2 0 1.2-.8 2-2 2-3.2 0-2.4-9.6 1.2-13.4 4.2-4.8 19.4-25.8 33.4-46 6.2-9 16-23 22-31 5.8-8 15-20.8 20.2-28.6 5.2-7.6 13.8-20.2 19.4-28 5.4-7.6 12.4-17.6 15.4-22 3.2-4.4 9.2-13 13.4-19 56.6-79.8 98.8-143.8 112.6-171 23.4-46.4 18.8-63-20.6-72-12.4-3-13.8-3-18.6.2-10.4 6.8-16.6 15.6-29.2 40.4-7 14-18.4 35-25.2 46.4-6.8 11.6-14 23.8-16 27-11.8 20.8-66.6 111.2-77 127-6.6 10.4-17.6 27.4-24 37.4-8.6 13.2-13.2 18.6-16 18.6-4 0-4-1.2-3.4-187l.4-187h314.6c172.8 0 342-.6 376-1.4l61.4-1.2v36c0 55.4 2 90.6 5.4 90.6 4.4 0 3 7.6-1.8 10.2-9 4.6-13.6 10.4-13.6 16.8 0 8 7.8 19.8 13.6 20.6 5 .8 5.8 3.4 1.4 5.2-2.6.8-3 7.6-3 42.8 0 23 .6 42.4 1.4 43 .6.8 2.4.4 4-.8 2-1.8 2.6-1.2 2.4 3.4 0 3.6-4.6 12.8-11.8 23.8-15.8 24-32.6 53.4-38.8 67.4-6.4 14.4-14.2 42.2-17.4 61.2-2.4 14.2-2.6 14.6-11.6 20.2-5.2 3-17 11.4-26.2 18.6-33.2 25.2-63 42.2-90 51.6-7.2 2.4-14.8 5.2-17 6-6.8 3-38.6 9.6-76 16-15.8 2.6-46.2 2.6-59-.2-14.2-3-22-11.2-22-23 0-7.8 1-10 8.6-17.4 4.6-4.6 15.6-12.6 24.4-17.8 63.6-36.6 101.2-88.8 93-129.2-2.8-13.8-10.8-29-18.6-35.6-13.6-11.4-43.4-13.8-67.2-5.2-29.4 10.6-63.8 47.4-95.2 101.6-23.8 41.4-31 65.8-27.2 94.4 2.6 20.2 2.8 34.4.6 37.6-.8 1-10.4 9.2-21.4 18-11 8.6-20.4 16.4-21 17-3.6 4.4-38.4 25.8-55 33.8-26.4 13-35.8 16-49.2 16-8.6 0-12-1-14.8-4m-223-11c0-5.6.8-7 4-7 2.4 0 4 1.4 4 3.2 0 2.2 1.2 3 4 2.2 3.2-.8 4 0 4 3.8 0 4.2-.8 4.8-8 4.8-7.8 0-8-.2-8-7m1803.4-88.8c.6-2.2 2.8-5.4 4.8-7.4 3.6-3.4 3.8-3.2 3.8 3.8 0 6.4-.6 7.4-4.8 7.4-3.8 0-4.6-.8-3.8-3.8M2318 2024c0-3.6 1.4-4 14.8-4 8.2 0 15.6-.8 16.2-2 2.4-3.8 9-2.2 9 2 0 3.2-1.4 4-6 4-3.2 0-6 1-6 2 0 1.2-6 2-14 2-12.6 0-14-.4-14-4m65.6-22.2 6.4-6v-121.2c0-120 0-121-4-120-10 2.6-1-16.8 27.6-59.4 16.4-24.2 31.2-38.2 50.6-47.6 8.2-4.2 47.6-18.2 87.8-31.6 40.2-13.2 74.8-24.8 77-25.8 5.4-2 39.6-13.8 51-17.2 11.6-3.6 25.8-8.6 31-11 2.2-1 7.2-2.6 11-3.8 8.6-2.4 23.6-7.6 29-10.2 2.2-1 11-4.2 19.6-7 8.4-3 17.8-6.6 21-8.2 6.2-3.2 16.4-3.8 16.4-.8 0 1.2-.8 2-2 2-1 0-2 1.2-2 2.6 0 4 50.6 5.4 205.4 5.4H3142v9.8c0 10.6 2.4 14 7 10.2 2.6-2 3-1.6 3 3.2 0 4.6-4 9.6-20.2 25.8-18.6 18.4-40.2 43.8-51.8 61-2.6 3.8-5.4 7.4-6 8-1.2 1.2-6.6 9-25.2 36-15.4 22.6-23 37.6-30.8 60.8-3.4 10-6 14.2-9.8 16.2-3 1.4-13 9.6-22.2 18-25.2 22.8-53.4 40.6-85 53.2-48.6 19.4-113.2 30.4-140.2 24-12.6-3-23.6-13.2-31-28.8-7.2-15.4-8.8-28.8-6-52 4.2-36.2 13-55.6 39-86.2 7.4-8.8 14.8-18.4 16.4-21.6 4.8-9.4 4-20.6-2-28.6-6.8-8.8-11.8-11.4-21.4-11.4-14 .2-27.2 9.4-44.8 31.6-10.6 13-30 32-51 49.4-19.8 16.6-18 15-31.2 30.4-12.6 14.8-23 31.8-35.6 58-15.4 32.2-40.8 64.4-71 90-10.6 9-14.2 13.2-14.2 17 0 6.2-11.2 17.4-36 36.4-18.4 14-52.8 37.4-69 46.8-5.4 3-10.2 6.4-10.6 7.2s-4 1.6-8 1.6h-7.4z"/><path d="M1892.6 1994.4c1.6-14.6 10.8-40.8 17.6-51 8.2-12.6 23-27.4 34.6-35 13-8.4 27.4-9 32.4-1.4 4.6 7 3 25.2-3.2 37.8-5.8 11.4-29.8 34.4-51.8 49.2-11.6 7.8-16.4 10-22.8 10h-8zm1405.4-2c0-2.2 7-10.4 8.8-10.4.6 0 1.2 2.8 1.2 6 0 5-.8 6-5 6-2.8 0-5-.8-5-1.6m-167.4-202.8c-6.4-3-12.6-17.2-15-34-2.6-18.8-.8-56 3.4-67.6 4.8-13.6 16.6-30 21.8-30h4.2l-.6 64c-.4 56.4-.2 64 2.6 64 1.6 0 3 1.4 3 3 0 3.6-12.4 4-19.4.6M2332 1706q0-6-3-6c-1.6 0-3-1.4-3-3 0-2 2.2-3 7-3 7 0 7 0 7 9 0 7.6-.6 9-4 9-3.2 0-4-1.4-4-6m906-12.4c0-6 2.6-11.6 5.2-11.6 1.8 0 2.8 2.4 2.8 7 0 5.6-.8 7-4 7-2.2 0-4-1.2-4-2.4m277-21.6c2-2.2 5.2-4 7.4-4s3.6 1.4 3.6 4c0 3.2-1.4 4-7.4 4-7 0-7.2 0-3.6-4m-1047-73.4c0-5.2 3-12.8 9-23.6 5-8.8 12.2-22 16.4-29.4 4.8-9 8.6-13.6 11-13.6 2.2 0 3.6 1.4 3.6 4 0 4 1.4 4 64 4 60.8 0 64 .2 64 3.6 0 2.4-2.4 4.6-6.4 6-3.6 1.2-10.2 3.4-14.6 5.2-4.4 1.6-13.8 5.2-21 7.8s-35.8 13.6-63.8 24.2c-27.8 10.6-53.2 19.2-56.4 19.2-5.4 0-5.8-.6-5.8-7.4m-78-31.4v-24.6l16.4-1.2c9-.6 16.8-2 17.2-3.2 1.4-4.2 4.4-2.2 4.4 2.8 0 7.4-29.4 51-34.2 51-3.6 0-3.8-2-3.8-24.8m268-32.4c0-.6 1.2-2.4 2.8-4 4.2-4.2 9.2-3.4 9.2 1.2 0 3.2-1.4 4-6 4-3.2 0-6-.6-6-1.2m565-30.8c2-2.2 5.2-4 7.4-4s3.6 1.4 3.6 4c0 3.2-1.4 4-7.4 4-7 0-7.2 0-3.6-4m-765-15.6c0-2.2 7-10.4 8.8-10.4.6 0 1.2 2.8 1.2 6 0 5-.8 6-5 6-2.8 0-5-.8-5-1.6m29.4-45.2c1.4-6.6-3.6-7.2-54.6-7.2H2390V684h752v315.6c0 173.8.6 328 1.4 343 1 24.8 1.6 27.4 5 27.4 2.2 0 3.6 1.4 3.6 3.8 0 2.8-2 4-7.6 5-4.4.6-12.6 2.6-18.6 4.4s-16.6 4.8-23.8 7c-7.2 2-23.4 6.8-36 10.6s-35.2 10.8-50 15.2c-32.8 10-59.6 18.6-81.2 26.2-16 5.8-26.8 7.4-26.8 4 0-1 1.4-2.2 3-3 1.6-.6 3-2.4 3-4.2 0-2.6-17.2-3-155.4-2.8-85.6.2-164.8.8-176.2 1.6-19.6 1.2-20.4 1-20.4-3 0-4.4 10.4-21.6 41.8-68.6 29.6-44.6 36.8-60.4 32-70.8-2.6-6-4.2-5.6-19.8 4.4-26 16.4-74.8 74.6-111.4 132.6-7 11.2-10.8 15.4-13.8 15.6-3.4 0-4-1-3.4-4.8m461.6-126.4c15.8-9.4 29-20.4 31-25.6 1.2-3.6.4-4.8-5.8-8.2-12-6.6-16.2-10-20-17.4-11.8-23.4-28.8-29-42.6-14.2-6.6 7.2-23.6 32.6-23.8 36-.2 1.4-.4 3.6-.6 4.6-.2 2.6 42.6 31.8 47 32 1.6 0 8.4-3.2 14.8-7.2m-2293.4-67.2c-.4-102.6-.4-271.8 0-376l.6-189.6h374.6c311 0 375 .4 375.8 2.6.6 1.6.6 170.8 0 376l-1.2 373.4H656.2zM1522 1060V684h752v752h-752zm1590 372.2c0-4.4 12.4-8.2 26.2-8.2 6.8 0 8 .6 6.2 2.4-1.4 1.4-2.4 4-2.4 6 0 3.2-1.8 3.6-15 3.6-13.4 0-15-.4-15-3.8m48-61.4c0-2.4 6.8-6.6 10.6-6.8 2 0 3.4 1.4 3.4 4 0 3.2-1.4 4-7 4-3.8 0-7-.6-7-1.2"/></g><path d="M478 2505.8c-21.6-6.2-31.2-11.2-40.6-20.8-5.4-5.4-11.8-14-14.4-19-6.2-12.2-17-44.4-17-50.4 0-11.2 14.4-46.4 28.2-68.6 8.4-13.6 34.6-52 38.8-56.8 2.4-2.8 9.4-11 15.4-18.2s19.4-20.6 29.8-29.6c10.4-9.2 24-21.4 30.4-27 13.8-12.2 31-24 43.4-29.8 5-2.2 13.4-6.2 18.8-8.8s16.6-6.2 24.8-7.8c8.4-1.8 15.8-3.6 16.6-4.2.8-.4 9.6-1.2 19.4-1.8 26.2-1.2 43.4 4.2 57 17.8 7.6 7.4 16.4 25 18.6 36.4 2.4 13.8 6 18.8 13.4 18.8 3.6 0 7.6-1 8.8-2.2 2.8-2.8 13.8-3 17.4 0 5.8 5 9.8 21.8 8.4 36-1.2 10.6-3.8 18-14.6 39.2-7.2 14.2-14.2 27.8-15.8 30s-2.8 7.8-2.8 12.6c0 12.8 7.6 19.4 23.8 21 6.8.8 16.4.8 21.6 0 24-3.2 59.8-24.4 85.2-50.4 8.6-8.8 19.4-18 24-20.6 6.6-3.6 8.6-6 9-10.6 3.2-36.8 21-85.6 42.8-118 14.6-21.4 41.4-49.8 62.6-66.4 5.4-4.2 18-15.8 28-25.8 15.2-15.2 21.2-19.8 35.6-26.6 20.2-9.6 32.4-10.8 45.4-4 20 10.4 20.6 20 3.6 48.4-6.6 11.2-8.2 15.6-9 27-1.8 22.6-7.8 26.2-47.4 28.2-32.8 1.8-40.4 4.4-49 17-16 23.4-34.8 66.4-39.4 90.2-3 14.8-3 18.2-.6 25.4 4 12 9.8 19.8 18.8 25.2 7.2 4 10 4.4 27 3.8 15-.6 23-2 37.6-7.2 36.2-12.6 115.2-59.4 127.2-75.4 7-9.2 22.8-22.4 67.2-56 58.8-44.4 76-58.8 117.2-99.8 43.8-43.2 87.8-101 141.8-185.4 6.4-10.2 17.4-27.2 24-37.6 10.4-15.8 65.2-106.2 77-127 2-3.2 9.2-15.4 16-27 6.8-11.4 18.4-32.4 25.4-46.6 13.4-26.8 24.2-40.2 34.4-42.8 7.6-1.8 31.8 2.8 43.2 8.4 13.2 6.4 17.2 13.4 17.4 29.6 0 20.8-10 43.8-39.4 90.4-13.8 22-59.4 88.6-88 129-4.2 6-10.2 14.6-13.4 19-3 4.4-10 14.4-15.4 22-5.6 7.8-14.2 20.4-19.4 28-5.2 7.8-14.4 20.6-20.2 28.6-6 8-15.8 22-22 31-16.6 24-29.4 41.2-38.4 51.4-4.4 5-10.8 13-14.4 18-3.4 5-11 14.8-16.6 22-5.8 7.2-13.2 17.6-16.6 23.2-5.2 8.8-7.6 14.6-13.6 34.4-.6 1.2 0 2.4 1 2.4 2.2 0 35-29 62.2-54.8 31-29.6 49-44.6 70.4-58.6 51.6-33.8 89.4-35 104.4-3.2 9.8 20.4 7.4 42.6-9 85.2-10.6 27.8-11.2 30.8-7 35.4 6.6 7.2 18.2 4.6 52-12 17.4-8.4 49.6-28.4 56.2-34.8 1.2-1.2 10.8-9 21.4-17.2s19.8-16.8 20.6-19.2c.6-2.4.2-11.2-1-19.6-5.6-39.8.4-64.2 27-110.2 31-53.8 65.4-90.6 95-101.4 24.8-9.2 65.4-6.4 79.2 5.2 14.8 12.4 23.2 41.6 19.2 67.2-6 38.6-40.6 79-93.6 109.6-16.6 9.6-33 24.2-33 29.2 0 1.6 2.6 5.6 6 8.8 9.6 9.8 35 13 63 8.4 37.4-6.4 69.2-13 76-16 2.2-.8 9.8-3.6 17-6 27-9.4 56.8-26.4 90-51.6 9.2-7.2 21-15.6 26.2-18.6 9-5.6 9.2-6 11.6-20.2 8.2-50 20.4-75.4 76.6-159 9.2-13.8 35.6-59.8 35.6-62 0-.6 2.2-5.8 4.8-11.4 2.8-5.8 5.6-12.8 6.2-15.8 1.2-4.6.8-5.4-2.8-5.4-2.4 0-5.8 1-7.8 2-4 2.4-34 13.4-44.8 16.6-9 2.6-12.6.2-18.2-12.4-2.8-6.4-3.4-11-2.6-17.2 2-12.2 6.6-15.8 36.2-28.6 7.8-3.4 18-7.8 23-10 5-2 17.4-7.4 27.8-11.6 17.8-7.4 19.4-8.4 28.4-20.8 5.4-7.2 11.8-17 14.2-22s10.8-18.4 18.4-29.8 13.8-22 13.8-23.4.6-2.2 1.4-1.8c1.8 1 7-5.2 14.6-17.6 3.4-5.8 6.8-10.8 7.4-11.4 1.2-1.2 42.8-63.8 57.2-86.2 48.4-75.8 94.6-127 127.4-141.4 8.4-3.6 11-3 14.6 4 4.6 8.8 2.6 24.4-4.8 40.2-3.2 6.8-16.6 28.6-29.6 48.4-13.2 19.8-27 41-30.8 47-3.6 6-8.2 12.4-10.2 14-1.8 1.6-5.2 6.2-7.2 10s-7 12.2-11.2 18.6c-4 6.2-7.4 12-7.4 12.6s-4 7.4-9 15-9 14.4-9 15c0 .8-2.6 5-5.8 9.8s-6.4 10.8-7.2 13.4c-.8 2.4-6 12.8-11.6 22.6-17.2 30.8-23.8 43.2-23 44 .2.2 24-8.4 52.6-19.4s54.2-20.6 57-21.6c2.8-.8 11.4-4 19-7 7.8-3 18.6-6.8 24-8.4 11-3.4 28.6-9.8 38-13.6 3.4-1.4 8.2-3.2 11-4 2.8-.6 6.8-2 9-2.8 10.4-4.2 27-10.4 37-14 6-2 22.8-8 37-13 38.8-13.8 98.4-34.4 129.6-44.6 17.2-5.6 27-9.8 26-11-.6-1.2-.2-1.6 1-.8 1.2.6 8.2-.8 15.8-3.6 21.6-7.4 49.4-16.4 78.6-25.2 14.8-4.4 37.4-11.4 50-15.2s29.4-8.8 37-11c7.8-2.2 16.8-4.8 20-5.8 3.4-1 15.4-4 27-6.8 11.6-2.6 26.4-6.4 33-8.2 21.8-6 65.8-17.2 79-20.2 7.2-1.4 14.4-3.2 16-4 1.6-.6 8.8-2.4 16-3.8 7.2-1.6 32.8-7.4 57-12.8 52.8-11.8 95.8-20.6 135-27.4 24.2-4.2 33.8-5 58-4.4 24.8.6 31.4 1.6 46.6 6.4 9.6 3 17.4 6.2 17.4 7 0 2-22.8 13.2-34 16.8-18 5.6-25.4 7.2-45 9.4-27.4 3-60.8 9.2-93 17.2-43.2 10.6-47.4 11.8-94 25.4-15.2 4.4-38.6 11-76 21.6-7.2 1.8-18 5-24 6.8-13 3.8-30.2 8.4-63 17-13 3.4-26.2 7.4-29 9-5 2.6-18.6 6.2-46 12-18.4 3.8-29 6.8-89 25.4-21.8 6.6-73.6 23.8-78 25.6-2.2 1-10.8 4-19 6.8s-22.6 7.8-32 11.2-26 9.2-37 13c-32 11-40 14.4-40 17.2 0 1.4-1.2 2.8-2.8 3.4s-2.2 0-1.4-1.4c1.6-2.6-1.2-3-4-.4-1 1-9 4.2-17.8 7-8.8 3-17.8 6.2-20 7.2-5.4 2.6-20.4 7.8-29 10.2-3.8 1.2-8.8 2.8-11 3.8-5.2 2.4-19.4 7.4-31 11-11.4 3.4-45.6 15.2-51 17.2-2.2 1-36.8 12.6-77 25.8-40.2 13.4-79.6 27.4-87.8 31.6-8.2 4-20 11.8-26.2 17.6-10.8 10.2-33.2 41.6-49 69.4-4.4 7.4-8.4 13.4-9.2 13.4-1.4 0-16.2 28-33.4 63-6.8 14.2-28.8 58.2-31.8 64-1.2 2.2-3.6 7-5.4 10.6-10.6 20.2-17.2 33.6-17.2 35.6 0 1-1.8 5.8-4 10.4-4.6 9.4-7.4 38.2-5.2 53.2 1.2 7 3.2 11 9 16.8 11.6 11.4 12.8 12 26.4 13.4 18 1.8 39.4-5.8 67.2-23.8 6.8-4.6 20.8-13.6 31-20.2 23.8-15.2 57.8-40.8 70.2-52.8 7-6.6 9.4-10.4 8.8-13.6s2.6-7 14.2-16.8c31-26.6 56-58.4 71.6-90.8 12.6-26.2 23-43.2 35.6-58 13.2-15.4 11.4-13.8 31.2-30.4 21-17.4 40.4-36.4 51-49.4 17.8-22.4 28.8-30 46.2-32.2 13.4-1.8 24 2.2 31.6 11.6 5.6 7 6.2 9 6 21-.2 16.2-2.4 20.8-20 41.6-25.2 29.4-34.6 49.6-38.6 82-2.4 19.6-1.2 29.2 5.6 43.8 16.2 35 42.6 39 120.2 18 50.6-13.8 88.8-34 124-66 9.2-8.4 19.2-16.6 22.2-18 3.8-2 6.4-6.2 9.8-16.2 9.4-28 20.6-48 47-84 3.2-4.6 7.8-11 10-14 25.4-35.6 42.4-54.8 82-92.4 29.8-28.2 36.4-33.4 61.8-49.8 18.2-11.8 22.8-12.6 39-6.6 17 6.2 25.4 16.2 32 38 11 36 14.2 56.6 14.2 88.6 0 26.8 1.4 28 17.2 13.4 18.2-16.4 34.8-26.8 59.6-36.8 4.2-1.8 9.4-3.2 11.4-3.2 10.6 0 13.6 35.2 5 59.6-6.8 19.8-12.8 30.2-52.2 89.6-19.8 29.8-41.8 63.4-49 74.6-7.2 11.4-17.2 27.4-22.4 35.4-5.4 8.2-9.6 15.4-9.6 15.8 0 .6-5.6 9.4-12.6 19.6-7 10-16.8 25-21.6 33s-14.4 23.8-21.2 35-16.4 27.6-21.4 36.4c-5.2 8.8-11.6 20-14.6 25-12 20.4-19 33.2-20 37-.8 2.2-10 21.6-20.6 43-16.6 33.4-23.8 50-43 100-6.4 16.4-18.4 61.2-22.2 82.6-1 6.4-.8 7.2 2.2 6.2 1.8-.8 4-.2 4.8 1 3 4.6 43.6-39.4 71.2-76.8 3.2-4.4 6.8-8.8 8-10 3-2.6 23-30.6 23-32s8.4-13.6 10.2-15c.8-.6 4.6-6.4 8.4-13s9-14.2 11.4-17 6-8.2 8.2-12.2c2-4.2 4.8-8.6 6.2-10 1.6-1.6 7.6-10 13.4-18.8 6-8.8 11.6-16.2 12.6-16.6.8-.4 1.6-1.6 1.6-2.6 0-2 6.8-12.2 28.4-42.4 5.6-8 14.2-20 19-26.8 4.8-7 12.8-18.6 18-26 24.8-36 46.6-69 46.6-70.8 0-1 .8-1.8 1.6-1.8 1 0 3.8-3.8 6.4-8.4 2.6-4.8 7.2-12.2 10-16.6 3-4.4 7.4-11.2 9.4-15 4.2-7.4 14.4-24.2 21.6-36 2.4-3.8 10.4-17.4 18-30 27.2-46 56-91.2 65.6-103.4 15.4-20 29.6-28.6 46.4-28.6 10.2 0 11.2.4 13.2 5.6 3 7.8-.4 18.2-13.6 39.4-11.8 19.4-13.6 22-31.2 45.2-6.2 8.4-11.4 16-11.4 17s-2.6 5-6 8.8c-3.2 3.8-5.8 7.8-6 8.6 0 .8-3.6 7-8 13.4s-8 12.2-8 12.8-2.8 5.8-6.2 11.6c-3.6 5.8-9.2 15.6-12.4 21.6-3.4 6-8.2 14.6-10.8 19s-6.4 11.6-8.6 16c-9.4 19.2-39 66.2-86.6 138-48.6 73.2-57.6 87-67.8 103-17.4 27.4-23 36.4-29.6 47.2-6.6 10.6-16.2 26-21 32.8-1 1.8-3.8 6.2-6 9.8s-5.4 8.2-7 10.2c-1.6 2.2-5 6.8-7.6 10.4-10 14.4-41.8 56.2-47.8 62.6-2 2.2-11.6 13-21.4 24-43.8 48.8-79.8 78.4-109.8 90.2-8.2 3.2-9.4 4.6-8.8 8.4.6 3-.2 4.4-2.4 4.4-2 0-4.2.8-5.4 2-2.4 2.4-31.2 5-35.8 3.2-2.6-1-3-1.8-1.2-3.8 1.6-2.2 1-3.8-2.6-7.2-2.6-2.4-6.8-10-9.4-16.8-6.6-17.2-6.6-52 0-79.4 15.8-65.6 54.6-147.4 125.2-264 23.6-39 37.8-63.8 61-108 11.4-21.4 25.4-47.2 31.4-57.4s10.6-20 10.2-22c-1-5.2-10.8-5.6-32.2-.8-52.6 11.6-93 5-116.8-19-4.8-5-12-14-15.8-20-3.8-5.8-7.6-10.8-8.6-10.8-.8 0-3.6 2.4-6.4 5.2-9.6 10.4-39.2 32.4-57.8 43.2-34.6 20-90.2 46-119 55.2-6.6 2.2-18.2 6-26 8.6-12.6 4.4-17.4 4.8-49 4.8-38.6-.2-45.8-1.8-65.2-15.2-29.2-20-42.2-43.8-44.2-81.2-.6-11.4-2-20.6-2.8-20.6-1.8 0-7.6 8.6-16.6 24.4-3 5.4-9.8 14.8-15 21.2-10 12-42.8 44.6-52.8 52.4-3 2.4-12.4 13-21 23.6-16.4 20.4-38.4 43.4-51.2 53.4-4.2 3.4-8.8 7-10.2 8.4-1.2 1.2-11.8 8.6-23.2 16.2-33 22.2-50.6 29.6-106.8 44.6-26.2 7-64.6 9.8-80 6-19-4.8-37-21.4-47.6-44.2-2.4-5-4.6-9.4-5-9.8-.2-.6-3.4 2.6-7 6.8-18.4 22.4-51.4 48-87.4 67.6-24 13.2-87.2 37.4-97.6 37.4-2 0-4.4.8-5.6 1.8-1.8 1.8-17.2 4-56.8 8.4-31.4 3.6-56.2 0-79.4-11.4-5.8-2.8-12.8-7.4-15.6-10-6-5.6-5.4-5.8-24 9.2-25.4 20.2-48.2 35.8-69.2 47-11.2 6-21 11-21.8 11s-6.8 2.6-13.4 5.8-22.2 9-34.6 13c-19.8 6.2-25.2 7.2-42.8 7.2-24.2 0-33-2.2-42.4-10.4-9.8-8.6-15-19.6-15-32.2-.2-14 4-24.8 18-46.2 14.8-23 18.2-29.8 18.2-36.2 0-6-4.8-6.6-12-1.6-4.2 2.8-44.8 37.2-48 40.6-.6.6-9.6 8.2-20 17-28.6 24.2-30 25.4-30 28.8 0 2.4-.4 2.6-1.6.6-1.8-2.6-15.8 7.2-33.2 23-15.6 14.4-40.4 35.8-56 48.6-8.6 7.2-18.2 15.4-21 18.2-8.4 8.2-29.8 21.8-42.4 27-9 3.6-15.4 4.8-27.6 4.8-15.4 0-16-.2-21.8-6.8-7.2-8.4-9.4-16.4-6.6-26.2 1-4 9.6-20 19-35.6s19.4-33.6 22.2-40.2l5.2-11.8-8.8 6.8c-5 3.8-22.2 17.2-38.6 29.8-16.2 12.6-32.4 24.6-35.6 26.8-3.4 2-12.8 9.8-21.2 17.2-21 18.8-48.4 40-51.6 40-1.6 0-6.2 2.4-10.2 5.6-4 3-11.2 7.6-16.2 10.2s-10.4 5.8-12 7.2-5.6 3.8-9 5.4c-3.2 1.6-17.2 8.8-31 15.8-22.4 11.6-32.8 16-61 26.4-4.4 1.6-19.6 4.6-33.6 6.4-24 3.2-26.4 3.2-38.8.2-14.2-3.6-26-9-35.8-16.4-3.4-2.6-7.2-4.8-8.4-4.8s-8.6 6.6-16.8 14.6c-8 8-18.2 16.8-22.6 19.4s-11.2 7.2-15 10.2-14.6 9.2-23.6 13.8c-15.6 7.8-24.8 11.2-45.4 16.2-4.4 1.2-9.4 2.8-11.2 3.8-6 3.2-44.6 6.6-61.8 5.4-24.4-1.6-42.4-9-65.8-26.8l-8.8-6.6-6.2 4c-3.4 2.4-10.6 6.4-16.2 9.4-11.6 6-32 21.4-45 33.8-12 11.8-36.2 28.8-52 36.8l-18 9c-8.2 4-32.2 10.6-43 11.8-5.4.6-13.2.2-17-1m72.4-84.6c34-17.2 94.6-68.6 123.6-105.4 15-19 21-36.8 17.6-52.8-2.8-13-6.6-20.2-14.2-27.4-5.6-5-7.8-5.6-19.4-5.6-21.6 0-37.8 7.6-67.8 31.8-16.2 13.2-25.4 22.4-51.6 52.8-9.2 10.6-31.8 46.4-36.2 57.2-5.8 14-6.2 40.8-.8 47.6 8.4 10.8 29.2 11.6 48.8 1.8m1365.4-433c18.6-12.6 43.2-34.8 49.4-44.4 2.6-4.2 5.8-11.6 7.2-16.6 2-7.6 1.8-9.6-1-14-2-2.8-5.2-5.2-7.2-5.2-9.2 0-35.8 22.8-48.2 41.6-7.6 11.4-19.8 48.4-16 48.4.8 0 8-4.4 15.8-9.8M3169.2 1780c22.2-11 34.8-24 53.2-54.8 14-23.4 18.2-36.4 17.2-52.2-.6-11-1.6-13.8-6.6-19.2-9.2-9.6-20.8-13.8-38.8-13.8-17.6 0-25.2 2.2-37.4 10.4-10 6.6-25.8 28-31 41.8-10.8 28.4-4.2 84.2 10.8 91.4 8.2 4 20.2 2.6 32.6-3.6"/><path d="M2903 1315c-12-8.2-22.8-16.2-23.8-17.8-4-6 11-35.4 26.4-51.8 5.4-5.6 17.8-10.2 26-9.8 10.6.8 22 9.8 27.2 21.6 3.6 8 11.6 15.6 21.8 20 7.8 3.6 7.8 3.8 6.8 12.8-.8 7.6-2.4 10.2-10.2 17.2-15.8 13.8-32.8 22.8-43.2 22.8-7.8-.2-11.8-2.2-31-15"/><path fill="#77a8c9" d="M2720 3317.8c-42-7.2-77.2-30-99.2-63.8-5.2-8.2-16-31.6-26-56.6-9.4-23.2-18.2-45.2-19.8-48.8-1.6-3.4-3-6.8-3-7.6s-1.4-4.6-3.2-8.6c-4.6-10.6-5.4-12.2-18.4-45.4-6.6-16.4-14.8-36.8-18-45-3.4-8.2-9.4-23.6-13.6-34-4-10.4-8.8-22.6-10.6-27-5.2-12-8.8-21-22.2-55-6.8-17-13.4-33.6-14.8-37-1.4-3.2-7.4-18.2-13.2-33s-12.8-31.6-15.2-37.2c-2.6-5.6-4.8-11.4-4.8-13s-1.2-4.6-2.8-6.8c-2.4-3.6-4.2-9.6-9.2-32-2.4-11-2.4-40.2.2-50 1.2-4.4 3-12 4.2-16.8s3.8-11.6 5.8-15 3.8-7.4 3.8-9c0-8.2 38.6-52.2 45.8-52.2 1 0 3.2-1.4 4.8-3 3.6-3.6 15.6-8.8 59-26.2 18.4-7.4 34.2-14.2 35.2-15 1.2-1 3.6-1.8 5.6-1.8 2.2 0 6.6-1.6 10.2-3.4s10.4-5 15.4-6.8c13.2-4.8 30.2-11.6 37-14.6 3.4-1.6 13.6-5.6 23-9.2 9.4-3.4 18.8-7.4 21-8.8s6.2-3 9-3.8c4.2-.8 16.2-5.4 35-13.2 5.6-2.4 23.2-9.6 41-16.6 15.2-6 19-7.6 50.2-20.4 9.6-4 23-9.4 30-12 14.8-5.4 48-18.6 56.8-22.4 15.8-7 25.8-10.8 28.4-10.8 1.4 0 3.2-1.4 3.8-3 .8-1.8 3.8-3 7.6-3 3.6 0 7.2-.6 7.8-1.2.6-.8 7.2-1.6 14.6-2 7.4-.2 14.2-1.4 15.4-2.6 3-3 8-2.8 6.4.4-.8 1.2 0 .8 1.6-1 3.4-4.4 5.4-4.6 5.4-.6 0 1.8 1.8 3 4.6 3 15.8.2 55.6 15 70.4 26.4 6.8 5.2 26 24.2 32.2 31.6 5 6.4 20.8 38.2 20.8 42.2 0 1.6.8 3.8 1.6 4.8 1 1.2 3.8 7.4 6.2 14 7.6 20.2 9.2 23.8 14.8 37 1.6 3.8 5.4 13.4 8.4 21 6.4 16.8 16.2 40.8 21.4 52.4 2 4.8 3.6 9.6 3.6 10.8s1.8 5.6 3.8 9.6 7.8 17.6 12.8 30.2c23.8 61.2 32 81.6 34.6 87.4 1.6 3.4 2.8 7 2.8 8 0 .8 1.4 4.4 3.2 7.6 1.8 3.4 6.8 15.4 11.2 27s8.6 22 9.6 23c.8 1.2 2 4.6 2.8 8 .8 3.2 3.6 10.8 6.4 16.6 2.6 5.8 4.8 11.4 4.8 12.6s1.8 5.6 3.8 9.6c9.8 18.6 23 56.2 26 74.4 5.8 34.6-2.8 71.4-24 102.8-11.6 17.4-20.8 26.8-35.4 36.6-15 9.8-22.2 13.2-67.4 31.2-70.8 28-84 33.4-90 36.2-3.2 1.4-15.8 6.4-28 11-12 4.6-22.8 9.2-24 10.2-1 1-3.2 1.8-4.8 1.8-1.8 0-11.2 3.4-21.2 7.8-9.8 4.2-30.2 12.4-45 18.2s-30.8 12.2-35.4 14.2c-4.6 2.2-9 3.8-9.8 3.8-.6 0-6.4 2.2-12.6 4.8s-16.2 6.8-22.2 9c-6 2.4-12.8 5.2-15 6-2.2 1-12.6 5.2-23 9.2-10.4 4.2-23.8 9.6-29.6 12.2s-11.4 4.8-12.6 4.8c-1 0-5.4 1.8-9.6 3.8-21.8 11.2-63.6 18-86.2 14"/><g fill="#df8642"><path d="M897.2 2646c-4-4.4-7.2-9.2-7.4-10.6 0-1.2-.8-6.8-1.6-12.4-1-5.8-1-12 .2-14.8 2-5.4 14.2-18.2 17.2-18.2 1.2 0 2.4-1.4 3.2-3 .6-1.6 2.2-3 3.4-3 1.4 0 7.4-2.4 13.6-5.4 10.8-5 21-8.4 29.2-9.6 2.2-.2 5.4-1 7-1.8 10-4 27.2-9.2 31.2-9.2 2.4 0 11-2.2 19.2-5 8-2.8 17.6-5 21.2-5s8-.8 10-1.8c6-3 24.6-8.4 34-10.2 5.2-.8 20-4.4 32.8-7.8 13-3.4 25-5.6 26.8-4.8 1.8.6 3.8.4 4.6-.8 1.6-2.4 21.2-8.6 27.4-8.6 2.4 0 13.4-3 24.2-6.8s23-7.4 27.4-8.2c4.2-.6 12.4-3.4 18.4-6.2 5.8-2.6 13-4.8 15.8-4.8 3 0 8.2-1.2 11.6-2.8 8.8-4 33-11.2 37.6-11.2 2.2 0 5.4-.8 7.4-1.8 11.2-6.2 27.8-12.2 33.2-12.2 3.4 0 12.8-2.6 20.6-6 8-3.2 18-6.4 22-7.2 4.2-.8 8.6-2 9.6-2.8 1.2-1 8.4-2 16-2.6 7.8-.4 18.8-2.2 24.6-4 20.2-6.4 29.6-9.2 50-15 12.8-3.6 22.2-7.6 24.6-10.2s6.4-4.2 10.4-4.2c3.6 0 8.4-1.4 11-3 2.4-1.8 11.8-4 20.8-5.2 9.2-1 23-3.6 30.6-5.6 13.4-3.6 77.4-21.4 98-27.2 5.6-1.6 14-4 19-5.2s10.8-2.8 13-3.6c4.2-1.8 25.2-7.4 37-10 3.8-1 21.4-5.4 39-10 17.6-4.8 41-10.8 52-13.4 22-5.4 44.2-11 67-16.8 8.2-2.2 18.4-4.4 22.4-5.2 4.2-.6 9.4-2.8 11.8-5 6.2-5.4 17.2-8.4 25.8-7 5.4.8 8.2.4 10-1.8 1.4-1.6 4.6-3 7-3s7.8-1.4 11.6-3c4-1.6 11.2-3 16.2-3s9.4-.8 10-1.8c.8-1 5-2.4 9.8-3.2 4.6-.8 9.8-2.2 11.4-3s8-2 14-2.8c6-.6 14.6-2 19-3.2s14.4-3 22-4.2c7.8-1 17.6-2.4 22-3.2 4.4-.6 8.6-2 9.4-3.2.8-1.4 8.4-2.6 17-3s18.4-2 21.8-3.6c3.4-1.4 12.4-3.8 20-4.8 7.6-1.2 15.6-2.6 17.8-2.8 2.2-.4 7.6-1.8 12-3s12-2.2 17.2-2.2c5 0 9.8-.8 11-1.8 1-1 4-2.2 6.8-2.8 2.8-.4.8-1-4.6-1.2-5.4 0-9.2-1-8.6-2 1.2-1.8 13.4-3.8 57.2-9.2 13.8-1.8 29.4-4.6 34.8-6.2 11.6-3.2 21.2-3.6 21.2-.8 0 1.2-.8 2-2 2-1 0-2 1.4-2 3.2 0 2.6 1.4 3 5.8 2.2 3-.6 10.4-1.8 16.4-2.6s12.2-2.6 14-4c3.4-3.2 24.8-6.6 78.8-12.8 19.8-2.2 41.4-5 48-6.2 19-3.2 85-3.6 91.2-.6 3 1.4 5.8 2.2 6.4 1.6 1.4-1.6 30.4 4.8 38.8 8.4 3.4 1.6 7.6 2.8 9.2 2.8 4.2 0 19.8 11.8 19 14.4-.4 1.2-4.4 3.6-9 5.4-4.4 1.8-9.4 4.4-11 5.6-1.6 1.4-6 3.2-9.8 3.8-8.2 1.4-32.4 9.4-33.8 11-.6.6-12.2 1.4-26 1.6-19.6.4-25.6 1-28.4 3.6-3 2.6-7 3-23.4 2-16.2-.8-20.6-.4-22.4 2-1.8 2-5.8 2.6-13.6 2.4-18.2-1-29.8 0-32.6 2.8-1.4 1.2-8 2.6-14.8 2.8-6.6 0-16.4 1.6-21.6 3.4s-12.6 3.2-16.6 3.2c-7.8 0-22.4 3.6-25.4 6.4-1.2.8-5.8 1.6-10.2 1.6-4.6 0-16.8 1.8-27.2 4.2-10.4 2.2-22.8 5-27.8 5.8-5 1-12.6 2.6-17 3.6-4.4 1.2-11.2 2.6-15 3.4-7.8 1.4-37.2 8.2-48 11-7.6 2-9.2 2.2-34 7-9.4 1.8-23 5-30.2 7.2-7.2 2-15.6 3.8-18.6 3.8s-12.8 1.8-21.8 3.8-21.8 4.8-28.4 6.2-14.6 3.2-18 4c-3.2.8-12.8 2.6-21 4-17.4 2.8-50.6 9.6-121 25.2-27 5.8-66.2 15.4-78.8 19-7 2.2-15.4 3.8-18.4 3.8-3.4 0-6.8 1.6-8.6 4.2-2 2.8-4.2 3.8-6.4 3-3-1.2-25.4 4-37.8 8.8-2.2.8-13 3.6-24 6.4-38.8 9.8-60 15.8-66.4 18.6-3.4 1.6-7.8 3-9.6 3-5 0-31.6 8.2-34.8 10.8-1.4 1.2-5.2 1.8-8.2 1.6-3.2-.4-9.2 1.2-13.8 3.4-4.4 2.4-9.4 4.2-11.2 4.2-1.6 0-3 .8-3 1.6s-3.2 1.6-7.2 1.8c-6.6.2-37.6 9-45.2 12.8-2 1-5.8 1.8-8.6 1.8-5.6 0-21.4 5.8-23.2 8.6-.8 1-3.4 1.4-6 .8-2.8-.6-6.4 0-8.6 1.8-2.2 1.6-6.6 2.8-9.6 2.8-3.2 0-9 1.4-13 3-3.8 1.6-9.6 3-12.8 3-3 0-6 .8-6.6 1.6-.6 1-6.2 2.8-12.6 4.4-19.4 4.4-67.4 18.2-69.4 20-1 1-2.8 1.2-4.2.8-1.4-.6-3.2-.2-4 1-.6 1.2-3.8 2.2-7 2.2-5.4 0-19.8 4-29 8-2.2 1-7.6 2.2-12 2.8-12.6 2-33 8-33 9.8 0 .8-.8 1.2-1.8.4-1-.6-10.2 1.2-20.6 4-10.2 3-21.2 5.8-24.6 6.4-3.2.6-7.4 2.4-9.2 3.8-1.8 1.6-4.6 2.4-6.4 1.6-3.6-1.4-30.2 5-50.4 12.2-7.6 2.6-15.6 5-17.6 5-2.2 0-6.6 1.2-10 2.8-7.8 3.4-39.4 13.2-42.6 13.2-1.4 0-3 1.4-3.6 3.2-.8 2.4-2.8 2.8-7 1.8-4-.8-9 0-15.4 2.8-5 2.4-10.6 4.2-12.2 4.2s-5.4 1.2-8.2 2.8c-5.4 2.6-18.8 6.2-49.4 13.4-30.8 7-38 8.8-40 10-1 .8-7 2.4-13 3.8s-12.4 3.2-14 4c-1.6 1-6 2-9.6 2.6s-7.6 2-9 3c-1.4 1.2-6 2.6-10.4 3.2-4.4.8-10.6 2-14 3-3.2 1-10.6 2.4-16.2 3-10 1.2-10.4 1-17.6-6.8m1140.6-379c8.6-3.8 11.2-3.8 7.4 0-1.6 1.6-5.4 3-8.6 3l-5.6-.2z"/><path d="M2222.6 2230.6c1.8-.4 5-.4 7 0 1.8.6.2 1-3.6 1s-5.4-.4-3.4-1"/></g><path fill="#758346" d="M606.6 2627.6c-7-7.8-9.2-13.8-9.2-27-.2-9.6.8-14 3.8-18.2 5.4-7 22.2-17.2 37.4-22.2 6.6-2.4 13.8-5.6 15.8-7.6 4.8-4.2 15-8.2 31.6-11.8 33.2-7.2 65.6-15.4 71.4-18 3.4-1.6 7.6-2.8 9.4-2.8 3.8 0 62.8-14.4 77.2-18.8 5-1.6 14.4-3.8 21-5.2 6.6-1.2 17-4 23-6 69.2-22.4 81.6-26 88.2-26 3.2 0 5.8-.8 5.8-1.6 0-2.6 67.2-23.2 70-21.4 1 .6 4.8-.8 8.8-3.2 4-2.2 11.8-5.4 17.6-6.8 11.8-2.8 35.6-10 67.6-20 11.6-3.6 24.2-7 28-7.4 3.8-.2 7.6-1.2 8.2-2.2.6-.8 5.8-2 11.6-2.6 5.8-.4 25.8-5.4 44.8-11 19-5.4 40.8-11.6 48.4-13.8 7.8-2 24-6.4 36-9.8 12.2-3.6 28.4-8 36-10.2 7.8-2 20.8-5.6 29-8s18.2-5 22-6c9.6-2.2 34-8.8 52-14 8.2-2.4 20.8-5.6 28-7.2 7.2-1.4 15.2-3.6 18-4.6s15.8-4.4 28.8-7.6c17.6-4 24-6.4 24.8-9 .4-1.8 2-2.8 3.6-2.2 1.4.6 11.8-1.8 22.8-5.4 12.4-4 22-6 25-5.2 2.8.8 5 .6 5-.4 0-.8 5.6-2.8 12.6-4.2 6.8-1.6 14-3.6 15.8-4.6 2-1 11.8-3.2 22-4.8 10.2-1.8 19.8-4.2 21-5.2 1.4-1.2 7.8-2.2 14-2.4 6.4 0 12-.6 12.6-1.4 1.6-1.6 29.8-9.2 40-10.8 5-.8 14.2-2.6 20.8-4.2 6.4-1.6 23.8-5.2 39-7.8 15-2.8 35.4-6.6 45.2-8.8 30.2-6.6 76.8-14.2 89.6-15 3 0 5.4-.8 5.4-1.4 0-1.8 26-6.6 27.4-5 .6.6 2.4.2 4-1 1.4-1.4 5.2-1.8 8.6-1 3.4.6 6 .4 6-.4 0-2 45.2-9.2 47.8-7.6 1.2.8 2.2.6 2.2-.4 0-2.2 33-7.2 35.8-5.4 1.2.6 2.2.4 2.2-.6 0-2.4 28.8-7.2 45-7.4 7.8 0 14.6-.8 15.4-2 .8-1 7.8-2 15.6-2.2s14.6-.8 15.4-1.6c.6-.6 3.4-.6 6 0 2.6.8 5.8.2 7.2-1 3.6-3 34.2-6 47.2-4.8 7.6.8 11 .4 12.2-1.6 1.4-2.2 5.2-2.2 21.4 0 10.8 1.2 27.4 3.2 37 4.4 9.6 1 24 4 32.2 6.8 18.2 5.8 37.4 14.6 37.4 16.8 0 1-6.8 4.8-15 8.4-9.2 4-15 7.8-15.2 9.6 0 2-.6 2.2-1 .8-.8-1.8-3.4-1.6-10.4.4-5.2 1.6-18.2 4-28.8 5.2-10.8 1.4-19.6 3.2-19.6 4.2s-1.6 1.4-3.4.8c-4.8-1.4-63.2 2-75.6 4.6-13 2.6-36.2 6.2-54.4 8.2-16 1.8-28.6 5.4-28.6 8 0 .8-6 1.6-13.4 1.6-14 .2-50.2 7.2-53.4 10.6-1.2 1-5 1.8-8.4 1.8-3.6 0-7.8 1.4-9.6 3-1.8 1.8-6 3-9.6 2.8-8.4-.6-50 6.2-52.4 8.4-1.2 1-4.2 1.8-7 1.8-3 0-7.4 1.2-10.2 2.6-3 1.6-11 3.4-18 4-7.2.8-13.8 2.6-15 4-1 1.4-3.6 2.2-5.4 1.8-2-.4-3.6.2-3.6 1.4 0 1.4-5.4 2.2-14.4 2.2-9.2 0-25.2 2.2-42.6 6.2-35.6 7.8-56.4 12.2-95 19.6-27.8 5.4-44.2 8.8-107 22.2-9.8 2-29.2 6.6-43 10s-28.6 7-33 8-15.2 3.6-24 6c-35.4 9.4-44.6 12-59 16-19 5.2-38.8 10.6-58.4 15.8-8.4 2.4-21.6 6.4-29.2 9.2-7.8 2.8-18 6-22.8 7-20.4 4.4-76.2 20.8-82 24-2 1.2-5.4 2-7.6 2s-4.6 1.2-5 2.6c-.6 1.2-4 2.4-7.6 2.6-3.4 0-9.8 1.6-13.8 3.6s-8.2 3-9.2 2.4c-1.2-.6-10.8 1.6-21.4 4.8-10.8 3.4-20.8 6-22.4 6s-5.8 1.2-9.2 2.8c-3.6 1.6-13.2 4.4-21.4 6.2-16.4 3.8-25.4 6.2-36 10-3.8 1.4-12.4 4-19 5.6-14 3.6-28.8 7.6-54 14.4-9.8 2.6-27 7-38 9.8-36.8 9.4-55 15-55 17 0 .8-3.4 1.6-7.4 1.8-4.2.2-12.6 2-18.6 3.8-6 1.6-14.6 3.4-19 3.8s-11.2 2-15 3.6-12.4 4.4-19 6.2-30 9-52 16c-42.6 13.6-76 23-81 23-1.8 0-4 .8-5 1.8-2 1.8-73.8 20.2-78.8 20.2-1.4 0-5.4 1.2-8.8 2.8-3.6 1.6-13 4.8-20.8 7-8 2.4-14.6 5-14.6 5.8s-4 1.8-8.8 2-11 1.2-14 2.4c-9.4 3.6-20 2.4-24.6-2.4"/><path fill="#b6b9bd" d="M3062 2298c0-1 1.4-2 3-2s3 1 3 2c0 1.2-1.4 2-3 2s-3-.8-3-2"/></svg>